<?xml version="1.0" standalone="no"?>
<!DOCTYPE svg PUBLIC "-//W3C//DTD SVG 1.1//EN" "http://www.w3.org/Graphics/SVG/1.1/DTD/svg11.dtd" >
<svg>
<metadata>
Created by FontForge 20090914 at Wed Jan 22 11:03:58 2020
 By www-data
Copyright 2011 Google Inc. All Rights Reserved.
</metadata>
<defs>
<font id="RobotoCondensed-Bold" horiz-adv-x="980" >
  <font-face 
    font-family="Roboto Condensed"
    font-weight="700"
    font-stretch="normal"
    units-per-em="2048"
    panose-1="2 0 0 0 0 0 0 0 0 0"
    ascent="1536"
    descent="-512"
    x-height="1082"
    cap-height="1456"
    bbox="-1487 -554.998 2132 2163"
    underline-thickness="100"
    underline-position="-100"
    unicode-range="U+0002-U+FFFD"
  />
<missing-glyph horiz-adv-x="803" 
d="M699 0h-595v1456h595v-1456zM653 86v1284l-229 -642zM149 1361v-1267l226 634zM183 54h432l-216 605zM399 796l216 606h-432z" />
    <glyph glyph-name="uniFB01" unicode="fi" horiz-adv-x="1118" 
d="M160 0v869h-131v213h131v49c1.33301 136 38.5 241 111.5 315s177.167 111 312.5 111c78 0 173.667 -19.667 287 -59l-41 -241c-81.333 30.667 -157 46 -227 46c-104.667 0 -157.667 -57.667 -159 -173v-48h167v-213h-167v-869h-284zM1000 0h-284v1082h284v-1082z" />
    <glyph glyph-name="uniFB02" unicode="fl" horiz-adv-x="1126" 
d="M724 1313c-46.667 4.66699 -84.333 7 -113 7c-106 0 -159 -55 -159 -165v-73h169v-213h-169v-869h-284v869h-131v213h131v75c0 130 35 229.167 105 297.5s169.333 102.5 298 102.5c97.333 0 243 -10.333 437 -31v-1526h-284v1313z" />
    <glyph glyph-name="uniFB03" unicode="ffi" horiz-adv-x="1682" 
d="M168 0l0.000976562 869.001h-131v213h131v97c0.666992 119.333 32.167 212.166 94.5 278.499s148.5 99.5 258.5 99.5c33.333 0 76 -6.66699 128 -20l-2 -226c-19.333 6 -42.333 9 -69 9c-84 0 -126 -50 -126 -150v-88h272v49c1.33301 136 38.5 241 111.5 315
s177.167 111 312.5 111c78 0 173.667 -19.667 287 -59l-41 -241c-32 12 -65.833 22.667 -101.5 32s-77.834 14 -126.501 14c-103.333 0 -156 -56.667 -158 -170v-51h167v-213h-167v-869h-284v869h-272v-869h-284zM1564 0.000976562h-284v1082h284v-1082z" />
    <glyph glyph-name="uniFB04" unicode="ffl" horiz-adv-x="1682" 
d="M168 0l0.000976562 869.001h-131v213h131v97c0.666992 119.333 32.167 212.166 94.5 278.499s148.5 99.5 258.5 99.5c33.333 0 76 -6.66699 128 -20l-2 -226c-19.333 6 -42.333 9 -69 9c-84 0 -126 -50 -126 -150v-88h272v75c0 130 35 229.167 105 297.5
s169.333 102.5 298 102.5c97.333 0 243 -10.333 437 -31v-1526h-284v1313c-46.667 4.66699 -84.334 7 -113.001 7c-106 0 -159 -55 -159 -165v-73h169v-213h-169v-869h-284v869h-272v-869h-284z" />
    <glyph glyph-name=".notdef" horiz-adv-x="803" 
d="M699 0h-595v1456h595v-1456zM653 86v1284l-229 -642zM149 1361v-1267l226 634zM183 54h432l-216 605zM399 796l216 606h-432z" />
    <glyph glyph-name="uni0000" horiz-adv-x="0" 
 />
    <glyph glyph-name="uni0000" horiz-adv-x="0" 
 />
    <glyph glyph-name="uni0002" horiz-adv-x="0" 
 />
    <glyph glyph-name="uni000D" unicode="&#xd;" horiz-adv-x="472" 
 />
    <glyph glyph-name="space" unicode=" " horiz-adv-x="472" 
 />
    <glyph glyph-name="exclam" unicode="!" horiz-adv-x="533" 
d="M392 448h-235l-33 1008h301zM119 137c0 45.333 14.333 82.5 43 111.5s66 43.5 112 43.5c45.333 0 82.333 -14.5 111 -43.5s43 -66.167 43 -111.5c0 -44.667 -14.167 -81.334 -42.5 -110.001s-65.5 -43 -111.5 -43c-46.667 0 -84.167 14.333 -112.5 43
s-42.5 65.334 -42.5 110.001z" />
    <glyph glyph-name="quotedbl" unicode="&#x22;" horiz-adv-x="656" 
d="M265 1398l-39 -413h-164v551h203v-138zM592 1398l-40 -413h-163v551h203v-138z" />
    <glyph glyph-name="numbersign" unicode="#" horiz-adv-x="1080" 
d="M565 410h-134l-59 -410h-175l60 410h-183v173h208l42 283h-187v174h212l61 416h174l-61 -416h135l61 416h174l-61 -416h179v-174h-204l-42 -283h182v-173h-207l-60 -410h-175zM456 583h135l41 283h-134z" />
    <glyph glyph-name="dollar" unicode="$" horiz-adv-x="1036" 
d="M657 384c0 55.333 -11.333 99.0029 -34 131.003s-60 62 -112 90c-102 45.333 -177.5 88.833 -226.5 130.5s-85.5 89.334 -109.5 143.001s-36 117.5 -36 191.5c0 110.667 30.667 202.167 92 274.5s142.333 115.166 243 128.499v214h151v-218
c100 -19.333 177.833 -70 233.5 -152s83.5 -186 83.5 -312h-283c0 80 -11.5 139.667 -34.5 179s-52.833 59 -89.5 59c-35.333 0 -63 -15.333 -83 -46s-30 -73.334 -30 -128.001c0 -47.333 10.333 -86.666 31 -117.999s60 -64 118 -98
c106.667 -50.667 183.5 -96.834 230.5 -138.501s81.833 -88.834 104.5 -141.501s34 -115 34 -187c0 -112.667 -29.833 -204.334 -89.5 -275.001s-142.167 -113 -247.5 -127v-199h-150v199c-115.333 16.667 -204.333 65.834 -267 147.501s-94 190.5 -94 326.5h283
c0 -78.667 12.667 -139.167 38 -181.5s63.333 -63.5 114 -63.5c40.667 0 72.5 15.167 95.5 45.5s34.5 72.166 34.5 125.499z" />
    <glyph glyph-name="percent" unicode="%" horiz-adv-x="1308" 
d="M97 1176c0 88.667 24.5 161 73.5 217s115.167 84 198.5 84s149.833 -27.5 199.5 -82.5s74.5 -129.167 74.5 -222.5v-73c0 -90 -24.667 -162.333 -74 -217s-115.333 -82 -198 -82c-82 0 -148.167 27.333 -198.5 82s-75.5 129 -75.5 223v71zM281 1099
c0 -40 8.49902 -71.833 25.499 -95.5s38.5 -35.5 64.5 -35.5c26.667 0 47.834 12.333 63.501 37s23.5 57 23.5 97v74c0 38.667 -8 70.5 -24 95.5s-37.667 37.5 -65 37.5c-26.667 0 -48 -12.5 -64 -37.5s-24 -57.833 -24 -98.5v-74zM670.999 357c0 90 25 162.501 75 217.501
s116 82.5 198 82.5c82.667 0 149 -27.167 199 -81.5s75 -128.833 75 -223.5v-73c0 -89.333 -24.333 -161.5 -73 -216.5s-115 -82.5 -199 -82.5c-84.667 0 -151.667 27.667 -201 83s-74 128.666 -74 219.999v74zM855.999 279.001c0 -37.333 8.83203 -68.666 26.499 -93.999
s38.834 -38 63.501 -38c55.333 0 84.333 39.667 87 119v91c0 39.333 -8.16699 71.166 -24.5 95.499s-37.833 36.5 -64.5 36.5c-58.667 0 -88 -51 -88 -153v-57zM421.998 109.001l-134 76l597 1138l135 -76z" />
    <glyph glyph-name="ampersand" unicode="&#x26;" horiz-adv-x="1186" 
d="M72 392c0 68.667 15.5 130.834 46.5 186.501s89.167 118.5 174.5 188.5c-36.667 58 -65.667 112.833 -87 164.5s-32 105.167 -32 160.5c0 114 31.667 206.5 95 277.5s148 106.5 254 106.5c95.333 0 173.833 -32.833 235.5 -98.5s92.5 -146.167 92.5 -241.5
c0 -126.667 -53 -232.334 -159 -317.001l-80 -65l187 -261c23.333 68.667 35 142.667 35 222h239c0 -187.333 -36.667 -338 -110 -452l188 -263h-321l-54 76c-86 -64 -185.333 -96 -298 -96c-122.667 0 -221 37.667 -295 113s-111 175 -111 299zM493 214
c52.667 0 102.333 17.333 149 52l-230 325l-6 -5c-33.333 -51.333 -50 -110.333 -50 -177c0 -56 13.167 -102.5 39.5 -139.5s58.833 -55.5 97.5 -55.5zM425.999 1097c0 -47.333 22.666 -105.335 67.999 -174.002l47 36c28 21.333 48 43.5 60 66.5s18 53.833 18 92.5
c0 34.667 -9.5 63.834 -28.5 87.501s-41.833 35.5 -68.5 35.5c-29.333 0 -52.666 -13.167 -69.999 -39.5s-26 -61.166 -26 -104.499z" />
    <glyph glyph-name="quotesingle" unicode="'" horiz-adv-x="330" 
d="M275 1388l-29 -405h-184v553h213v-148z" />
    <glyph glyph-name="parenleft" unicode="(" horiz-adv-x="662" 
d="M120 592c0 149.333 17.499 292.67 52.499 430.003s87.333 260.166 157 368.499s144.167 183.166 223.5 224.499l53 -156c-75.333 -70.667 -135 -179.167 -179 -325.5s-67 -315.5 -69 -507.5v-60c0 -200 21.833 -375.833 65.5 -527.5s104.5 -264.834 182.5 -339.501
l-53 -154c-78.667 41.333 -152.5 115 -221.5 221s-121.167 226.667 -156.5 362s-53.666 276.333 -54.999 423v41z" />
    <glyph glyph-name="parenright" unicode=")" horiz-adv-x="662" 
d="M556 568c0 -155.333 -19.833 -302.332 -59.5 -440.999s-94.667 -260.334 -165 -365.001s-144.833 -177 -223.5 -217l-52 154c76 72.667 136 183.834 180 333.501s66.667 319.167 68 508.5v53c0 194 -21.833 367.5 -65.5 520.5s-104.5 268.5 -182.5 346.5l52 154
c51.333 -26 103.833 -69.333 157.5 -130s102.167 -135.667 145.5 -225s78.333 -189.833 105 -301.5s40 -241.834 40 -390.501z" />
    <glyph glyph-name="asterisk" unicode="*" horiz-adv-x="930" 
d="M342 962l-315 89l60 182l310 -126l-19 349h196l-20 -356l304 123l59 -183l-320 -90l210 -265l-160 -113l-182 291l-181 -282l-159 109z" />
    <glyph glyph-name="plus" unicode="+" horiz-adv-x="973" 
d="M620 816h283v-263h-283v-407h-268v407h-288v263h288v390h268v-390z" />
    <glyph glyph-name="comma" unicode="," horiz-adv-x="503" 
d="M187 -367l-151 79l38 71c42.667 78.667 64.667 158 66 238v225h246l-1 -201c-0.666992 -70.667 -18.667 -144 -54 -220s-83.333 -140 -144 -192z" />
    <glyph glyph-name="hyphen" unicode="-" horiz-adv-x="744" 
d="M612 506h-489v236h489v-236z" />
    <glyph glyph-name="period" unicode="." horiz-adv-x="596" 
d="M126 144c0 45.333 15.1689 82.667 45.502 112s69.833 44 118.5 44c47.333 0 86.666 -14.5 117.999 -43.5s47 -66.5 47 -112.5c0 -46.667 -15.833 -84.167 -47.5 -112.5s-70.834 -42.5 -117.501 -42.5c-47.333 0 -86.5 14.333 -117.5 43s-46.5 66 -46.5 112z" />
    <glyph glyph-name="slash" unicode="/" horiz-adv-x="678" 
d="M206 -125h-207l437 1581h207z" />
    <glyph glyph-name="zero" unicode="0" horiz-adv-x="1036" 
d="M941 602c0 -201.333 -36.5 -355.334 -109.5 -462.001s-177.167 -160 -312.5 -160c-134 0 -237.5 51.833 -310.5 155.5s-110.833 252.167 -113.5 445.5v275c0 200.667 36.333 354.167 109 460.5s177 159.5 313 159.5s240.333 -52.667 313 -158
s109.667 -255.666 111 -450.999v-265zM657 896.999c0 114.667 -11.332 200.665 -33.999 257.998s-58 86 -106 86c-90 0 -136.667 -105 -140 -315v-363c0 -117.333 11.5 -204.666 34.5 -261.999s58.833 -86 107.5 -86c46 0 80.167 26.833 102.5 80.5
s34.166 135.834 35.499 246.501v355z" />
    <glyph glyph-name="one" unicode="1" horiz-adv-x="1036" 
d="M718 0h-284v1112l-277 -107v236l531 217h30v-1458z" />
    <glyph glyph-name="two" unicode="2" horiz-adv-x="1036" 
d="M953 0l-858 -0.000976562v200l394 501c50 69.333 86.833 130.166 110.5 182.499s35.5 102.5 35.5 150.5c0 64.667 -11.167 115.334 -33.5 152.001s-54.5 55 -96.5 55c-46 0 -82.5 -21.333 -109.5 -64s-40.5 -102.667 -40.5 -180h-284c0 89.333 18.5 171 55.5 245
s89 131.5 156 172.5s142.833 61.5 227.5 61.5c130 0 230.833 -35.833 302.5 -107.5s107.5 -173.5 107.5 -305.5c0 -82 -19.833 -165.167 -59.5 -249.5s-111.5 -188.166 -215.5 -311.499l-187 -267h495v-235z" />
    <glyph glyph-name="three" unicode="3" horiz-adv-x="1036" 
d="M347 857l137 0.000976562c52 0 90.167 18.167 114.5 54.5s36.5 84.833 36.5 145.5c0 58 -12.5 103.167 -37.5 135.5s-58.5 48.5 -100.5 48.5c-39.333 0 -71.5 -15.333 -96.5 -46s-37.5 -69.334 -37.5 -116.001h-283c0 76 17.5 144.167 52.5 204.5s84 107.5 147 141.5
s132.833 51 209.5 51c134 0 239 -37 315 -111s114 -175.333 114 -304c0 -66 -17.167 -127.167 -51.5 -183.5s-79.5 -99.5 -135.5 -129.5c68.667 -29.333 119.834 -73.333 153.501 -132s50.5 -128 50.5 -208c0 -129.333 -41.167 -233 -123.5 -311s-190.5 -117 -324.5 -117
c-124.667 0 -225.834 38.5 -303.501 115.5s-116.5 178.167 -116.5 303.5h283c0 -52 13.667 -95.667 41 -131s62 -53 104 -53c48.667 0 87.167 18 115.5 54s42.5 84 42.5 144c0 143.333 -55.667 215.333 -167 216h-139v228z" />
    <glyph glyph-name="four" unicode="4" horiz-adv-x="1036" 
d="M841 550h124v-235h-124v-315h-283v315h-482l-13 183l494 958h284v-906zM338 550h220v487l-6 -11z" />
    <glyph glyph-name="five" unicode="5" horiz-adv-x="1036" 
d="M124 716l71.999 740h705v-242h-473l-26 -312c54.667 36.667 111 55 169 55c120 0 212.5 -42.667 277.5 -128s97.5 -206 97.5 -362c0 -146 -38.667 -263.667 -116 -353s-180.666 -134 -309.999 -134c-76.667 0 -147.667 18.167 -213 54.5s-116.833 86.833 -154.5 151.5
s-56.834 138 -57.501 220h280c4.66699 -60.667 19.667 -107.667 45 -141s58 -50 98 -50c46.667 0 82.667 22.5 108 67.5s38 112.167 38 201.5c0 84 -15.167 147.333 -45.5 190s-72.833 64 -127.5 64c-53.333 0 -94.666 -18.333 -123.999 -55l-18 -25z" />
    <glyph glyph-name="six" unicode="6" horiz-adv-x="1036" 
d="M770 1471l-0.000976562 -240.001h-16c-106 -0.666992 -190.167 -32.5 -252.5 -95.5s-100.166 -151.167 -113.499 -264.5c60.667 69.333 136.667 104 228 104c105.333 0 189.5 -45 252.5 -135s94.5 -210 94.5 -360c0 -95.333 -18 -181.333 -54 -258
s-86.5 -136.167 -151.5 -178.5s-138.5 -63.5 -220.5 -63.5c-132 0 -237.833 53 -317.5 159s-119.5 248.667 -119.5 428v105c0 160.667 25.167 301.334 75.5 422.001s123 213.5 218 278.5s205.833 97.833 332.5 98.5h44zM526.999 740.999
c-36 0 -66.166 -11.332 -90.499 -33.999s-42.5 -50.667 -54.5 -84v-102c0 -102.667 13.667 -179.334 41 -230.001s63.333 -76 108 -76c45.333 0 81.666 24.5 108.999 73.5s41 111.833 41 188.5c0 78 -14.167 141.5 -42.5 190.5s-65.5 73.5 -111.5 73.5z" />
    <glyph glyph-name="seven" unicode="7" horiz-adv-x="1036" 
d="M949 1293l-460 -1293h-299l462 1221h-584v235h881v-163z" />
    <glyph glyph-name="eight" unicode="8" horiz-adv-x="1036" 
d="M911 1069c0 -70.667 -15 -133.333 -45 -188s-71.333 -98.334 -124 -131.001c60 -34 107.333 -80.833 142 -140.5s52 -129.834 52 -210.501c0 -129.333 -37.333 -231.5 -112 -306.5s-176.334 -112.5 -305.001 -112.5s-231 37.5 -307 112.5s-114 177.167 -114 306.5
c0 80.667 17.333 151 52 211s82.334 106.667 143.001 140c-53.333 32.667 -95 76.334 -125 131.001s-45 117.334 -45 188.001c0 127.333 35.667 227 107 299s167 108 287 108c121.333 0 217.333 -36.333 288 -109s106 -172 106 -298zM519 215.001
c42.667 0 75.501 18.167 98.501 54.5s34.5 86.833 34.5 151.5s-12 115.334 -36 152.001s-57 55 -99 55s-75.167 -18.333 -99.5 -55s-36.5 -87.334 -36.5 -152.001s12.167 -115.167 36.5 -151.5s58.166 -54.5 101.499 -54.5zM629.001 1054c0 56.667 -9.16699 102 -27.5 136
s-46.5 51 -84.5 51c-36 0 -63.333 -16.5 -82 -49.5s-28 -78.833 -28 -137.5c0 -57.333 9.33301 -103.5 28 -138.5s46.667 -52.5 84 -52.5s65 17.5 83 52.5s27 81.167 27 138.5z" />
    <glyph glyph-name="nine" unicode="9" horiz-adv-x="1036" 
d="M644 563c-60 -61.333 -125.666 -92.001 -196.999 -92.001c-110.667 0 -197.834 44.5 -261.501 133.5s-95.5 207.833 -95.5 356.5c0 96 18 183.833 54 263.5s86.167 141.5 150.5 185.5s136.166 66 215.499 66c82 0 155 -24.333 219 -73s113.667 -118.5 149 -209.5
s53 -194.5 53 -310.5v-103c0 -248 -54.5 -441.833 -163.5 -581.5s-263.5 -210.834 -463.5 -213.501h-29v244h19c110.667 0.666992 193.834 29.334 249.501 86.001s89.167 139.334 100.5 248.001zM519.001 692.999c54.667 0 97.667 37.334 129 112.001v130
c0 95.333 -13 170.166 -39 224.499s-59.667 81.5 -101 81.5c-40.667 0 -73.5 -26.833 -98.5 -80.5s-37.5 -119.167 -37.5 -196.5c0 -84 13 -150.167 39 -198.5s62 -72.5 108 -72.5z" />
    <glyph glyph-name="colon" unicode=":" horiz-adv-x="562" 
d="M128 144c0 45.333 15.1689 82.667 45.502 112s69.833 44 118.5 44c47.333 0 86.666 -14.5 117.999 -43.5s47 -66.5 47 -112.5c0 -46.667 -15.833 -84.167 -47.5 -112.5s-70.834 -42.5 -117.501 -42.5c-47.333 0 -86.5 14.333 -117.5 43s-46.5 66 -46.5 112z
M128.002 962.001c0 45.333 15.1689 82.667 45.502 112s69.833 44 118.5 44c47.333 0 86.666 -14.5 117.999 -43.5s47 -66.5 47 -112.5c0 -46.667 -15.833 -84.167 -47.5 -112.5s-70.834 -42.5 -117.501 -42.5c-47.333 0 -86.5 14.333 -117.5 43s-46.5 66 -46.5 112z" />
    <glyph glyph-name="semicolon" unicode=";" horiz-adv-x="522" 
d="M112 962c0 45.333 15.1689 82.667 45.502 112s69.833 44 118.5 44c47.333 0 86.666 -14.5 117.999 -43.5s47 -66.5 47 -112.5c0 -46.667 -15.833 -84.167 -47.5 -112.5s-70.834 -42.5 -117.501 -42.5c-47.333 0 -86.5 14.333 -117.5 43s-46.5 66 -46.5 112z
M211.002 -366.999l-151 79l38 71c42.667 78.667 64.667 158 66 238v225h246l-1 -201c-0.666992 -70.667 -18.667 -144 -54 -220s-83.333 -140 -144 -192z" />
    <glyph glyph-name="less" unicode="&#x3c;" horiz-adv-x="915" 
d="M336 617l453 -199v-282l-728 364v238l728 365v-282z" />
    <glyph glyph-name="equal" unicode="=" horiz-adv-x="1030" 
d="M895 744h-763v238h763v-238zM895 311h-763v237h763v-237z" />
    <glyph glyph-name="greater" unicode="&#x3e;" horiz-adv-x="930" 
d="M583 621l-462 201v280l738 -364v-238l-738 -365v280z" />
    <glyph glyph-name="question" unicode="?" horiz-adv-x="918" 
d="M304 448c0 93.333 9.16504 167.503 27.498 222.503s51.166 107.5 98.499 157.5c50 55.333 83.333 100.666 100 135.999s25 71 25 107c0 111.333 -36 167 -108 167c-32 0 -58.667 -15.333 -80 -46s-32.666 -72 -33.999 -124h-283
c1.33301 129.333 37.5 229.666 108.5 300.999s167.167 107 288.5 107c124 0 220.333 -34.5 289 -103.5s103 -165.5 103 -289.5c0 -102.667 -42.333 -203.334 -127 -302.001l-83 -94c-27.333 -32.667 -46.666 -66.5 -57.999 -101.5s-17.666 -80.833 -18.999 -137.5h-248z
M277.998 142.003c0 45.333 14.5 82.333 43.5 111s65.833 43 110.5 43c46 0 83.333 -14.5 112 -43.5s43 -65.833 43 -110.5c0 -44 -14 -80.667 -42 -110s-65.667 -44 -113 -44c-46.667 0 -84 14.667 -112 44s-42 66 -42 110z" />
    <glyph glyph-name="at" unicode="@" horiz-adv-x="1569" 
d="M1486 537c-3.33301 -112 -21.501 -211.5 -54.501 -298.5s-77.167 -152 -132.5 -195s-119.333 -64.5 -192 -64.5c-95.333 0 -163.333 44.667 -204 134c-55.333 -87.333 -125 -131 -209 -131s-148.667 41.5 -194 124.5s-62.666 191.167 -51.999 324.5
c10 108.667 33.5 205.667 70.5 291s83.833 151.333 140.5 198s118.334 70 185.001 70c84.667 0 156.334 -22.667 215.001 -68l53 -41l-44 -578c-4.66699 -54 -1.16699 -94.5 10.5 -121.5s33.167 -40.5 64.5 -40.5c48 0 88 37 120 111s49.333 166.667 52 278
c8.66699 231.333 -29.666 409.5 -114.999 534.5s-211.333 187.5 -378 187.5c-159.333 0 -288.333 -71 -387 -213s-152.334 -334 -161.001 -576c-9.33301 -238.667 29.167 -421.667 115.5 -549s213.5 -191 381.5 -191c47.333 0 96.333 6.16699 147 18.5
s94.667 28.833 132 49.5l34 -155c-34.667 -26.667 -81.334 -48.167 -140.001 -64.5s-117.334 -24.5 -176.001 -24.5c-150 0 -277.333 35.5 -382 106.5s-182.667 175.333 -234 313s-74 303.167 -68 496.5c6 184 41.167 349 105.5 495s151.5 258.667 261.5 338
s235 119 375 119c139.333 0 260 -35.5 362 -106.5s178.667 -173.5 230 -307.5s74 -288.667 68 -464zM662.999 431c-5.33301 -88.667 0.666992 -155.666 18 -200.999s45 -68 83 -68c21.333 0 42 13.667 62 41s36.333 64.666 49 111.999l36 491
c-17.333 4.66699 -33.333 7 -48 7c-58.667 0 -104.167 -30.333 -136.5 -91s-53.5 -157.667 -63.5 -291z" />
    <glyph glyph-name="A" unicode="A" horiz-adv-x="1223" 
d="M812 298h-401l-78 -298h-311l455 1456h269l458 -1456h-314zM475 543h272l-136 519z" />
    <glyph glyph-name="B" unicode="B" horiz-adv-x="1149" 
d="M117 0l0.00195312 1456h450c152 0 267.5 -33.833 346.5 -101.5s118.5 -166.834 118.5 -297.501c0 -74 -16.333 -137.667 -49 -191s-77.334 -92.333 -134.001 -117c65.333 -18.667 115.666 -56.167 150.999 -112.5s53 -125.833 53 -208.5
c0 -141.333 -38.833 -248 -116.5 -320s-190.167 -108 -337.5 -108h-482zM411.002 633.001v-389h188c52.667 0 92.667 16.333 120 49s41 79 41 139c0 130.667 -47.333 197.667 -142 201h-207zM411.002 847.001h153c115.333 0 173 59.667 173 179
c0 66 -13.333 113.333 -40 142s-70 43 -130 43h-156v-364z" />
    <glyph glyph-name="C" unicode="C" horiz-adv-x="1168" 
d="M1104 485c-7.33301 -166 -53.9961 -291.668 -139.996 -377.001s-207.333 -128 -364 -128c-164.667 0 -290.834 54.167 -378.501 162.5s-131.5 262.833 -131.5 463.5v245c0 200 45.333 354.167 136 462.5s216.667 162.5 378 162.5c158.667 0 279.167 -44.333 361.5 -133
s129.166 -216 140.499 -382h-295c-2.66699 102.667 -18.5 173.5 -47.5 212.5s-82.167 58.5 -159.5 58.5c-78.667 0 -134.334 -27.5 -167.001 -82.5s-50 -145.5 -52 -271.5v-275c0 -144.667 16.167 -244 48.5 -298s87.833 -81 166.5 -81
c77.333 0 130.666 18.833 159.999 56.5s46 105.834 50 204.501h294z" />
    <glyph glyph-name="D" unicode="D" horiz-adv-x="1157" 
d="M117 0v1456h385c170 0 305.5 -54 406.5 -162s152.5 -256 154.5 -444v-236c0 -191.333 -50.5 -341.5 -151.5 -450.5s-240.167 -163.5 -417.5 -163.5h-377zM411 1211v-967.002h88c98 0 167 25.833 207 77.5s61 140.834 63 267.501v253c0 136 -19 230.833 -57 284.5
s-102.667 81.834 -194 84.501h-107z" />
    <glyph glyph-name="E" unicode="E" horiz-adv-x="1005" 
d="M869 630h-458v-386h542v-244h-836v1456h834v-245h-540v-344h458v-237z" />
    <glyph glyph-name="F" unicode="F" horiz-adv-x="974" 
d="M868 594h-457v-594h-294v1456h806v-245h-512v-373h457v-244z" />
    <glyph glyph-name="G" unicode="G" horiz-adv-x="1198" 
d="M1107 165c-56.667 -61.333 -126.167 -107.501 -208.5 -138.501s-172.5 -46.5 -270.5 -46.5c-167.333 0 -297.333 51.833 -390 155.5s-140.334 254.5 -143.001 452.5v262c0 200.667 43.833 355.167 131.5 463.5s215.5 162.5 383.5 162.5c158 0 277.167 -39 357.5 -117
s126.833 -200.333 139.5 -367h-286c-8 92.667 -27.333 155.834 -58 189.501s-78.667 50.5 -144 50.5c-79.333 0 -137 -29 -173 -87s-54.667 -150.333 -56 -277v-264c0 -132.667 19.833 -229.167 59.5 -289.5s104.834 -90.5 195.501 -90.5c58 0 105 11.667 141 35l26 18v267
h-206v222h501v-601z" />
    <glyph glyph-name="H" unicode="H" horiz-adv-x="1257" 
d="M1138 0h-293v623h-434v-623h-294v1456h294v-589h434v589h293v-1456z" />
    <glyph glyph-name="I" unicode="I" horiz-adv-x="554" 
d="M424 0h-294v1456h294v-1456z" />
    <glyph glyph-name="J" unicode="J" horiz-adv-x="1004" 
d="M596 1456h294v-1008c0 -141.333 -39.333 -254.666 -118 -339.999s-180 -128 -304 -128c-133.333 0 -237 39.667 -311 119s-111 189.666 -111 330.999h295c0 -137.333 42.333 -206 127 -206c85.333 0 128 79.333 128 238v994z" />
    <glyph glyph-name="K" unicode="K" horiz-adv-x="1133" 
d="M527 562l-116 -146v-416h-294v1456h294v-635l93 157l271 478h360l-417 -640l424 -816h-349z" />
    <glyph glyph-name="L" unicode="L" 
d="M411 244h516v-244h-810v1456h294v-1212z" />
    <glyph glyph-name="M" unicode="M" horiz-adv-x="1553" 
d="M501 1456l275 -1053l274 1053h384v-1456h-295v394l27 607l-291 -1001h-200l-291 1001l27 -607v-394h-294v1456h384z" />
    <glyph glyph-name="N" unicode="N" horiz-adv-x="1254" 
d="M1135 0h-294l-430 955v-955h-294v1456h294l431 -956v956h293v-1456z" />
    <glyph glyph-name="O" unicode="O" horiz-adv-x="1236" 
d="M1142 597c0 -195.333 -46.1689 -347.001 -138.502 -455.001s-220.5 -162 -384.5 -162c-163.333 0 -291.666 53.5 -384.999 160.5s-140.666 256.833 -141.999 449.5v249c0 200 46.333 356.167 139 468.5s221.334 168.5 386.001 168.5c162 0 289.667 -55.167 383 -165.5
s140.666 -265.166 141.999 -464.499v-249zM846.998 840.999c0 131.333 -18.668 228.999 -56.001 292.999s-95.333 96 -174 96c-78 0 -135.667 -30.833 -173 -92.5s-56.666 -155.5 -57.999 -281.5v-259c0 -127.333 19 -221.166 57 -281.499s96.667 -90.5 176 -90.5
c76.667 0 133.667 29.5 171 88.5s56.333 150.5 57 274.5v253z" />
    <glyph glyph-name="P" unicode="P" horiz-adv-x="1165" 
d="M411 512v-511.999h-294v1456h496c144 0 258.833 -44.667 344.5 -134s128.5 -205.333 128.5 -348s-42.333 -255.334 -127 -338.001s-202 -124 -352 -124h-196zM411 757.001h202c56 0 99.333 18.333 130 55s46 90 46 160c0 72.667 -15.667 130.5 -47 173.5
s-73.333 64.833 -126 65.5h-205v-454z" />
    <glyph glyph-name="Q" unicode="Q" horiz-adv-x="1236" 
d="M1141 615c0 -240.667 -65 -415.667 -195 -525l201 -180l-185 -170l-268 245l-77 -5c-164.667 0 -293.5 55.833 -386.5 167.5s-139.833 266.167 -140.5 463.5v228c0 200 46.333 356.167 139 468.5s221.334 168.5 386.001 168.5c160.667 0 287.667 -54 381 -162
s141.666 -259.667 144.999 -455v-244zM846 841c0 132.667 -19.0029 230.666 -57.0029 293.999s-96 95 -174 95s-135.667 -30.833 -173 -92.5s-56.666 -155.5 -57.999 -281.5v-241c0 -133.333 19.167 -231.666 57.5 -294.999s96.833 -95 175.5 -95
c76.667 0 133.834 31.5 171.501 94.5s56.834 159.167 57.501 288.5v233z" />
    <glyph glyph-name="R" unicode="R" horiz-adv-x="1134" 
d="M558 532l-145.999 -0.000976562v-532h-294v1456h469c147.333 0 261.166 -38.167 341.499 -114.5s120.5 -184.833 120.5 -325.5c0 -193.333 -70.333 -328.666 -211 -405.999l255 -596v-14h-316zM412.001 776.999h167c58.667 0 102.667 19.5 132 58.5s44 91.167 44 156.5
c0 146 -57 219 -171 219h-172v-434z" />
    <glyph glyph-name="S" unicode="S" horiz-adv-x="1106" 
d="M732 382c0 59.333 -15.166 104.169 -45.499 134.502s-85.5 61.833 -165.5 94.5c-146 55.333 -251 120.166 -315 194.499s-96 162.166 -96 263.499c0 122.667 43.5 221.167 130.5 295.5s197.5 111.5 331.5 111.5c89.333 0 169 -18.833 239 -56.5
s123.833 -90.834 161.5 -159.501s56.5 -146.667 56.5 -234h-293c0 68 -14.5 119.833 -43.5 155.5s-70.833 53.5 -125.5 53.5c-51.333 0 -91.333 -15.167 -120 -45.5s-43 -71.166 -43 -122.499c0 -40 16 -76.167 48 -108.5s88.667 -65.833 170 -100.5
c142 -51.333 245.167 -114.333 309.5 -189s96.5 -169.667 96.5 -285c0 -126.667 -40.333 -225.667 -121 -297s-190.334 -107 -329.001 -107c-94 0 -179.667 19.333 -257 58s-137.833 94 -181.5 166s-65.5 157 -65.5 255h295c0 -84 16.333 -145 49 -183s86 -57 160 -57
c102.667 0 154 54.333 154 163z" />
    <glyph glyph-name="T" unicode="T" horiz-adv-x="1112" 
d="M1060 1211h-360v-1211h-295v1211h-354v245h1009v-245z" />
    <glyph glyph-name="U" unicode="U" horiz-adv-x="1170" 
d="M1064 1456v-1008c-1.33301 -151.333 -43 -267.166 -125 -347.499s-199.667 -120.5 -353 -120.5c-156 0 -275.167 40.667 -357.5 122s-123.5 199 -123.5 353v1001h296v-1002c0 -82.667 13.333 -141.667 40 -177s75 -53 145 -53s118 17.5 144 52.5s39.333 92.5 40 172.5
v1007h294z" />
    <glyph glyph-name="V" unicode="V" horiz-adv-x="1184" 
d="M591 400l245 1056h328l-420 -1456h-306l-417 1456h326z" />
    <glyph glyph-name="W" unicode="W" horiz-adv-x="1534" 
d="M1063 541l138 915h291l-259 -1456h-295l-170 858l-168 -858h-296l-260 1456h293l137 -914l171 914h247z" />
    <glyph glyph-name="X" unicode="X" horiz-adv-x="1146" 
d="M573 956l196 500h337l-342 -722l350 -734h-341l-200 509l-199 -509h-341l350 734l-343 722h337z" />
    <glyph glyph-name="Y" unicode="Y" horiz-adv-x="1111" 
d="M556 802l219 654h320l-390 -928v-528h-298v528l-391 928h320z" />
    <glyph glyph-name="Z" unicode="Z" horiz-adv-x="1086" 
d="M422 244h600v-244h-944v177l594 1034h-600v245h939v-173z" />
    <glyph glyph-name="bracketleft" unicode="[" horiz-adv-x="540" 
d="M499 1471h-105v-1587h105v-223h-389v2034h389v-224z" />
    <glyph glyph-name="backslash" unicode="\" horiz-adv-x="781" 
d="M10 1456h289l510 -1581h-289z" />
    <glyph glyph-name="bracketright" unicode="]" horiz-adv-x="540" 
d="M34 1695h389v-2034h-389v223h106v1587h-106v224z" />
    <glyph glyph-name="asciicircum" unicode="^" horiz-adv-x="800" 
d="M402 1184l-131 -455h-222l252 727h203l251 -727h-221z" />
    <glyph glyph-name="underscore" unicode="_" horiz-adv-x="819" 
d="M796 -228h-775v228h775v-228z" />
    <glyph glyph-name="grave" unicode="`" horiz-adv-x="678" 
d="M567 1226h-239l-276 310h317z" />
    <glyph glyph-name="a" unicode="a" horiz-adv-x="964" 
d="M617 0c-8 16.667 -15.9971 44.668 -23.9971 84.001c-50.667 -69.333 -119.334 -104 -206.001 -104c-90.667 0 -165.834 30 -225.501 90s-89.5 137.667 -89.5 233c0 113.333 36.167 201 108.5 263s176.5 93.667 312.5 95h86v87c0 48.667 -8.33301 83 -25 103
s-41 30 -73 30c-70.667 0 -106 -41.333 -106 -124h-283c0 100 37.5 182.5 112.5 247.5s169.833 97.5 284.5 97.5c118.667 0 210.5 -30.833 275.5 -92.5s97.5 -149.834 97.5 -264.501v-509c1.33301 -93.333 14.666 -166.333 39.999 -219v-17h-285zM450.003 202.001
c31.333 0 58 6.33301 80 19s38.333 27.667 49 45v225h-68c-48 0 -85.833 -15.333 -113.5 -46s-41.5 -71.667 -41.5 -123c0 -80 31.333 -120 94 -120z" />
    <glyph glyph-name="b" unicode="b" horiz-adv-x="1014" 
d="M947 506c0 -175.333 -27.999 -306.833 -83.999 -394.5s-144 -131.5 -264 -131.5c-94 0 -169.333 42.333 -226 127l-9 -107h-261v1536h283v-542c53.333 72 123.666 108 210.999 108c120 0 208 -43.5 264 -130.5s84.667 -214.5 86 -382.5v-83zM664.001 577
c0 114 -11.001 190.5 -33.001 229.5s-60.333 58.5 -115 58.5c-59.333 0 -102.666 -27 -129.999 -81v-493c25.333 -50.667 69.333 -76 132 -76c54 0 91.5 17.667 112.5 53s32.167 104 33.5 206v103z" />
    <glyph glyph-name="c" unicode="c" horiz-adv-x="942" 
d="M494 215c82 0 123.663 53.3311 124.996 159.998h266c-1.33301 -118 -37.666 -213.333 -108.999 -286s-163.333 -109 -276 -109c-139.333 0 -245.666 43.333 -318.999 130s-110.666 214.334 -111.999 383.001v86c0 170 36.167 299.667 108.5 389s179.166 134 320.499 134
c119.333 0 213.333 -36.833 282 -110.5s103.667 -178.167 105 -313.5h-266c-0.666992 60.667 -10.667 107.334 -30 140.001s-51.333 49 -96 49c-49.333 0 -84.666 -17.5 -105.999 -52.5s-32.666 -102.833 -33.999 -203.5v-110c0 -88 4.33301 -149.5 13 -184.5
s23 -60.667 43 -77s48.333 -24.5 85 -24.5z" />
    <glyph glyph-name="d" unicode="d" horiz-adv-x="1015" 
d="M65 574c0 177.333 30.001 309.667 90.001 397s147.333 131 262 131c83.333 0 152.666 -36 207.999 -108v542h285v-1536h-257l-13 110c-58 -86.667 -132.667 -130 -224 -130c-113.333 0 -199.833 43.333 -259.5 130s-90.167 214 -91.5 382v82zM349.001 503.001
c0 -106.667 11.333 -181.167 34 -223.5s61 -63.5 115 -63.5c56 0 98.333 25 127 75v494c-28 53.333 -70 80 -126 80c-52 0 -90 -21 -114 -63s-36 -116.667 -36 -224v-75z" />
    <glyph glyph-name="e" unicode="e" 
d="M540 -20c-145.333 0 -258.666 43.332 -339.999 129.999s-122 210.667 -122 372v86c0 170.667 37.333 302.334 112 395.001s181.667 139 321 139c136 0 238.333 -43.5 307 -130.5s103.667 -215.833 105 -386.5v-139h-563c4 -80 21.667 -138.5 53 -175.5
s79.666 -55.5 144.999 -55.5c94.667 0 173.667 32.333 237 97l111 -171c-34.667 -48 -85 -86.833 -151 -116.5s-137.667 -44.5 -215 -44.5zM362 643.999h282.999v26c-1.33301 64.667 -12 113.667 -32 147s-54.667 50 -104 50s-85.166 -17.667 -107.499 -53
s-35.5 -92 -39.5 -170z" />
    <glyph glyph-name="f" unicode="f" horiz-adv-x="671" 
d="M168 0v869.001h-131v213h131v97c0.666992 119.333 32.167 212.166 94.5 278.499s148.5 99.5 258.5 99.5c33.333 0 76 -6.66699 128 -20l-2 -226c-19.333 6 -42.333 9 -69 9c-84 0 -126 -50 -126 -150v-88h169v-213h-169v-869h-284z" />
    <glyph glyph-name="g" unicode="g" horiz-adv-x="1030" 
d="M69 574c0 177.333 31.9971 309.667 95.9971 397s153.667 131 269 131c98 0 173.667 -38.667 227 -116l11 96h255v-1082c0 -138 -38.667 -243.5 -116 -316.5s-188.333 -109.5 -333 -109.5c-59.333 0 -121.666 11.833 -186.999 35.5s-114 53.834 -146 90.501l95 196
c26.667 -28 61.334 -50.833 104.001 -68.5s83 -26.5 121 -26.5c63.333 0 108.833 15.167 136.5 45.5s41.834 79.166 42.501 146.499v93c-54 -70.667 -124.333 -106 -211 -106c-115.333 0 -204.5 44.833 -267.5 134.5s-95.167 216.167 -96.5 379.5v80zM351.997 503.001
c0 -100 12.999 -172.833 38.999 -218.5s67.333 -68.5 124 -68.5c58 0 101 21 129 63v517c-29.333 46 -71.666 69 -126.999 69c-56 0 -97.5 -23 -124.5 -69s-40.5 -120 -40.5 -222v-71z" />
    <glyph glyph-name="h" unicode="h" horiz-adv-x="1008" 
d="M379 987c61.333 76.667 136.667 115 226 115c98.667 0 173.667 -34.667 225 -104s77.333 -172.666 78 -309.999v-688h-284v685c0 63.333 -9.83301 109.166 -29.5 137.499s-51.5 42.5 -95.5 42.5c-51.333 0 -91.333 -23.667 -120 -71v-794h-283v1536h283v-549z" />
    <glyph glyph-name="i" unicode="i" horiz-adv-x="516" 
d="M400 0h-284v1082h284v-1082zM103 1362c0 44 14 80 42 108s65.333 42 112 42s84 -14 112 -42s42 -64 42 -108c0 -43.333 -13.833 -79.333 -41.5 -108s-65.167 -43 -112.5 -43s-84.833 14.333 -112.5 43s-41.5 64.667 -41.5 108z" />
    <glyph glyph-name="j" unicode="j" horiz-adv-x="503" 
d="M401 1082v-1140c0 -123.333 -28.333 -217.333 -85 -282s-137 -97 -241 -97c-44 0 -86.667 5.66699 -128 17l-1 231c31.333 -6 56.333 -9 75 -9c62.667 0 94.667 44 96 132v1148h284zM98 1362c0 44 14 80 42 108s65.333 42 112 42s84 -14 112 -42s42 -64 42 -108
c0 -43.333 -13.833 -79.333 -41.5 -108s-65.167 -43 -112.5 -43s-84.833 14.333 -112.5 43s-41.5 64.667 -41.5 108z" />
    <glyph glyph-name="k" unicode="k" 
d="M462 417l-76 -85v-332h-283v1536h283v-830l35 52l196 324h337l-314 -446l344 -636h-324z" />
    <glyph glyph-name="l" unicode="l" horiz-adv-x="516" 
d="M400 0h-284v1536h284v-1536z" />
    <glyph glyph-name="m" unicode="m" horiz-adv-x="1519" 
d="M369 1082l8.00098 -100.001c63.333 80 147 120 251 120c108 0 184.333 -48.667 229 -146c62 97.333 150.333 146 265 146c189.333 0 286.333 -131 291 -393v-709h-283v691c0 62.667 -8.66699 107.334 -26 134.001s-46.666 40 -87.999 40c-52.667 0 -92 -32.333 -118 -97
l2 -34v-734h-283v689c0 62 -8.33301 106.833 -25 134.5s-46.334 41.5 -89.001 41.5c-48.667 0 -87.334 -26.333 -116.001 -79v-786h-283v1082h265z" />
    <glyph glyph-name="n" unicode="n" horiz-adv-x="1008" 
d="M362 1082l8 -107c64 84.667 147.667 127 251 127c186 0 281.667 -130.333 287 -391v-711h-284v690c0 61.333 -9.16699 105.833 -27.5 133.5s-50.5 41.5 -96.5 41.5c-51.333 0 -91.333 -26.333 -120 -79v-786h-284v1082h266z" />
    <glyph glyph-name="o" unicode="o" horiz-adv-x="1019" 
d="M70 576c0 164 38.667 292.667 116 386s184.333 140 321 140c138 0 245.667 -46.667 323 -140s116 -222.666 116 -387.999v-69c0 -164.667 -38.333 -293.334 -115 -386.001s-184 -139 -322 -139c-138.667 0 -246.5 46.5 -323.5 139.5s-115.5 222.167 -115.5 387.5v69z
M354 505c0 -193.333 51.668 -290 155.001 -290c95.333 0 146.666 80.667 153.999 242l1 119c0 98.667 -13.667 171.834 -41 219.501s-66 71.5 -116 71.5c-48 0 -85.5 -23.833 -112.5 -71.5s-40.5 -120.834 -40.5 -219.501v-71z" />
    <glyph glyph-name="p" unicode="p" horiz-adv-x="1014" 
d="M946 507c0 -170 -29.166 -300.333 -87.499 -391s-145.166 -136 -260.499 -136c-88 0 -158.667 35.667 -212 107v-503h-283v1498h262l10 -99c54 79.333 127.667 119 221 119c115.333 0 202.166 -42 260.499 -126s88.166 -212.667 89.499 -386v-83zM664.001 578
c0 104.667 -11.5 178.667 -34.5 222s-61.833 65 -116.5 65c-58 0 -100.333 -24.333 -127 -73v-507c25.333 -46.667 68.333 -70 129 -70c56 0 94.833 23.667 116.5 71s32.5 121 32.5 221v71z" />
    <glyph glyph-name="q" unicode="q" horiz-adv-x="1018" 
d="M65 576c0 177.333 29.667 309.333 89 396s147.333 130 264 130c94.667 0 170 -42.667 226 -128l18 108h247v-1498h-284v500c-52.667 -69.333 -122 -104 -208 -104c-114 0 -200.833 44.167 -260.5 132.5s-90.167 215.5 -91.5 381.5v82zM349 505
c0 -104.667 11.333 -179.168 34 -223.501s61.334 -66.5 116.001 -66.5c57.333 0 99.333 22.333 126 67v515c-26.667 46.667 -68.334 70 -125.001 70c-54 0 -92.5 -21.667 -115.5 -65s-34.833 -115.666 -35.5 -216.999v-80z" />
    <glyph glyph-name="r" unicode="r" horiz-adv-x="679" 
d="M637 809l-94.002 8c-77.333 0 -129.666 -34 -156.999 -102v-715h-284v1082h267l8 -117c44.667 91.333 106.334 137 185.001 137c32 0 58 -4.33301 78 -13z" />
    <glyph glyph-name="s" unicode="s" horiz-adv-x="930" 
d="M582 290c0 24 -11.498 46.165 -34.498 66.498s-74.167 47.833 -153.5 82.5c-116.667 47.333 -196.834 96.333 -240.501 147s-65.5 113.667 -65.5 189c0 94.667 34.167 172.834 102.5 234.501s158.833 92.5 271.5 92.5c118.667 0 213.667 -30.667 285 -92
s107 -143.666 107 -246.999h-283c0 88 -36.667 132 -110 132c-30 0 -54.667 -9.33301 -74 -28s-29 -44.667 -29 -78c0 -24 10.667 -45.167 32 -63.5s71.666 -44.5 150.999 -78.5c115.333 -42.667 196.833 -90.167 244.5 -142.5s71.5 -120.166 71.5 -203.499
c0 -96.667 -36.333 -174.334 -109 -233.001s-168 -88 -286 -88c-79.333 0 -149.333 15.5 -210 46.5s-108.167 74.167 -142.5 129.5s-51.5 115 -51.5 179h269c1.33301 -49.333 12.833 -86.333 34.5 -111s57.167 -37 106.5 -37c76 0 114 34.333 114 103z" />
    <glyph glyph-name="t" unicode="t" horiz-adv-x="629" 
d="M432 1348l0.000976562 -266h145v-213h-145v-537c0 -42.667 5.83301 -72 17.5 -88s34.167 -24 67.5 -24c27.333 0 49.666 2.33301 66.999 7l-2 -220c-48 -18 -100 -27 -156 -27c-182.667 0 -275 104.667 -277 314v575h-125v213h125v266h283z" />
    <glyph glyph-name="u" unicode="u" horiz-adv-x="1008" 
d="M635 99c-58.667 -79.333 -137.335 -119 -236.002 -119c-99.333 0 -174.666 34.167 -225.999 102.5s-77 167.833 -77 298.5v701h283v-708c1.33301 -105.333 36.333 -158 105 -158c64.667 0 111.334 28 140.001 84v782h285v-1082h-266z" />
    <glyph glyph-name="v" unicode="v" horiz-adv-x="920" 
d="M458 400l137 682h295l-297 -1082h-270l-298 1082h296z" />
    <glyph glyph-name="w" unicode="w" horiz-adv-x="1296" 
d="M891 475l97 607h271l-224 -1082h-235l-153 626l-153 -626h-236l-224 1082h272l96 -608l144 608h201z" />
    <glyph glyph-name="x" unicode="x" horiz-adv-x="927" 
d="M465 761l126 321h300l-247 -529l256 -553h-301l-133 339l-132 -339h-302l256 553l-245 529h301z" />
    <glyph glyph-name="y" unicode="y" horiz-adv-x="914" 
d="M450 471l144 611h302l-356 -1244c-53.333 -183.333 -153.666 -275 -300.999 -275c-34 0 -72.667 6.33301 -116 19v221l33 -1c44 0 77.167 8.5 99.5 25.5s39.166 46.5 50.499 88.5l22 73l-312 1093h304z" />
    <glyph glyph-name="z" unicode="z" horiz-adv-x="927" 
d="M416 235h428v-235h-764v177l418 669h-408v236h748v-171z" />
    <glyph glyph-name="braceleft" unicode="{" horiz-adv-x="610" 
d="M502 -360c-201.333 65.333 -304.333 215.001 -309 449.001v216c0 139.333 -45.667 209 -137 209v208c91.333 0 137 70.667 137 212v218c5.33301 231.333 108.333 379.666 309 444.999l54 -162c-66.667 -32 -103 -115 -109 -249l-1 -250c0 -150 -53 -255.667 -159 -317
c106 -62 159 -169 159 -321s0.666992 -239 2 -261c7.33301 -125.333 43 -203.333 107 -234z" />
    <glyph glyph-name="bar" unicode="|" horiz-adv-x="519" 
d="M349 -270h-176v1726h176v-1726z" />
    <glyph glyph-name="braceright" unicode="}" horiz-adv-x="610" 
d="M54 -197c37.333 17.333 65 49.499 83 96.499s27 115.5 27 205.5v196c0 152.667 54.333 258.334 163 317.001c-108.667 59.333 -163 165.333 -163 318s-0.333008 236 -1 250c-6 134.667 -42.667 217.667 -110 249l54 162c102.667 -33.333 179.5 -87.333 230.5 -162
s77.167 -172.667 78.5 -294v-208c0 -140.667 46 -211 138 -211v-208c-92 0 -138 -70.333 -138 -211v-217c-5.33301 -232 -108.333 -380.667 -309 -446z" />
    <glyph glyph-name="asciitilde" unicode="~" horiz-adv-x="1141" 
d="M1041 794c0 -123.333 -26.998 -223.999 -80.998 -301.999s-123.667 -117 -209 -117c-40 0 -77.333 9.16699 -112 27.5s-74.667 53.166 -120 104.499c-40.667 55.333 -79.334 83 -116.001 83c-28 0 -50.833 -17.167 -68.5 -51.5s-26.5 -76.5 -26.5 -126.5l-209 3
c0 123.333 26.667 223 80 299s123 114 209 114c44 0 84.5 -10.833 121.5 -32.5s74.167 -54.5 111.5 -98.5c38.667 -56 77 -84 115 -84c27.333 0 50.666 17.333 69.999 52s29 77.667 29 129h206z" />
    <glyph glyph-name="uni00A0" unicode="&#xa0;" horiz-adv-x="472" 
 />
    <glyph glyph-name="exclamdown" unicode="&#xa1;" horiz-adv-x="555" 
d="M161 638h235l33 -1007h-301zM434 947c0 -44.667 -14.333 -81.5 -43 -110.5s-66 -43.5 -112 -43.5c-44.667 0 -81.5 14.333 -110.5 43s-43.5 65.667 -43.5 111c0 44 14 80.667 42 110s65.333 44 112 44c47.333 0 85 -14.667 113 -44s42 -66 42 -110z" />
    <glyph glyph-name="cent" unicode="&#xa2;" horiz-adv-x="1042" 
d="M522 215c40 0 70.668 14.334 92.001 43.001s32.333 67.667 33 117h266c-1.33301 -95.333 -28.5 -178 -81.5 -248s-122.833 -115.333 -209.5 -136v-236h-191v235c-106 22.667 -188 81.5 -246 176.5s-87 216.833 -87 365.5v22c0 145.333 29 265.666 87 360.999
s140 154.333 246 177v226h191v-227c90 -20 160.667 -66.167 212 -138.5s77.666 -163.833 78.999 -274.5h-266c0 58 -11 104 -33 138s-53 51 -93 51c-74.667 0 -119 -57 -133 -171c-4.66699 -37.333 -7 -94 -7 -170c0 -118 11.5 -199.333 34.5 -244s58.5 -67 106.5 -67z" />
    <glyph glyph-name="sterling" unicode="&#xa3;" horiz-adv-x="1074" 
d="M529 575l5 -137c-1.33301 -82 -20 -146.667 -56 -194h534v-244h-906v244h74c32.667 10 50.667 51.667 54 125l1 52l-4 154h-127v237h121l-6 227c0 134.667 36 241 108 319s167.667 117 287 117c122.667 0 219.167 -37.333 289.5 -112s105.5 -176.667 105.5 -306h-279
c0 56 -10.167 99 -30.5 129s-48.833 45 -85.5 45c-28 0 -51.833 -16 -71.5 -48s-29.5 -80 -29.5 -144l8 -227h250v-237h-242z" />
    <glyph glyph-name="currency" unicode="&#xa4;" horiz-adv-x="1417" 
d="M1072 107c-106 -84.667 -226.333 -127 -361 -127c-135.333 0 -255.666 42 -360.999 126l-129 -132l-141 144l135 137c-66.667 104 -100 221.667 -100 353c0 136 36.333 257.667 109 365l-144 147l141 144l142 -145c103.333 76.667 219.333 115 348 115
c129.333 0 245.666 -39 348.999 -117l144 148l142 -145l-148 -151c71.333 -106 107 -226.333 107 -361c0 -128.667 -32.667 -245 -98 -349l139 -141l-142 -145zM301 608c0 -78.667 18 -151.834 54 -219.501s85.833 -121 149.5 -160s132.5 -58.5 206.5 -58.5
c73.333 0 141.833 19.5 205.5 58.5s113.5 92.333 149.5 160s54 140.834 54 219.501c0 79.333 -18 152.5 -54 219.5s-85.667 119.833 -149 158.5s-132 58 -206 58c-74.667 0 -143.667 -19.333 -207 -58s-113 -91.5 -149 -158.5s-54 -140.167 -54 -219.5z" />
    <glyph glyph-name="yen" unicode="&#xa5;" horiz-adv-x="972" 
d="M487 959l156 497h305l-263 -714h169v-176h-224v-114h224v-175h-224v-277h-294v277h-243v175h243v114h-243v176h196l-264 714h307z" />
    <glyph glyph-name="brokenbar" unicode="&#xa6;" horiz-adv-x="517" 
d="M127 -270v795h262v-795h-262zM389 698h-262v758h262v-758z" />
    <glyph glyph-name="section" unicode="&#xa7;" horiz-adv-x="1131" 
d="M1026 482c0 -118 -46.002 -207.667 -138.002 -269c38.667 -34 68 -74 88 -120s30 -102.667 30 -170c0 -118 -39.833 -209.833 -119.5 -275.5s-188.167 -98.5 -325.5 -98.5c-149.333 0 -264.5 36 -345.5 108s-121.5 175 -121.5 309h283c0 -120.667 61.333 -181 184 -181
c54 0 94.667 12.333 122 37s41 58 41 100c0 40.667 -14.833 74 -44.5 100s-91.167 56 -184.5 90c-150 47.333 -254.167 103.333 -312.5 168s-87.5 149 -87.5 253c0 118.667 45.667 209 137 271c-38.667 34 -68.167 74 -88.5 120s-30.5 102.667 -30.5 170
c0 116 40.5 208.667 121.5 278s189.833 104 326.5 104c142.667 0 252.834 -37.833 330.501 -113.5s116.5 -180.167 116.5 -313.5h-283c0 58.667 -14.667 105.334 -44 140.001s-69.333 52 -120 52c-52.667 0 -93.167 -13 -121.5 -39s-42.5 -61.333 -42.5 -106
c0 -46.667 14.167 -82.5 42.5 -107.5s88.833 -53.167 181.5 -84.5c104.667 -31.333 184.834 -65.5 240.501 -102.5s97 -81.333 124 -133s40.5 -113.834 40.5 -186.501zM524.998 660l-102.999 35.999c-30 -30 -45 -74 -45 -132c0 -52 14.5 -91.5 43.5 -118.5
s86.5 -56.833 172.5 -89.5l102 -35c34.667 32 52 76 52 132c0 44 -14.333 80.333 -43 109s-88.334 61.334 -179.001 98.001z" />
    <glyph glyph-name="dieresis" unicode="&#xa8;" horiz-adv-x="959" 
d="M94 1365c0 36.667 13.5 67.167 40.5 91.5s59.833 36.5 98.5 36.5s71.5 -12.167 98.5 -36.5s40.5 -54.833 40.5 -91.5c0 -36 -13.5 -66.167 -40.5 -90.5s-59.833 -36.5 -98.5 -36.5s-71.5 12.167 -98.5 36.5s-40.5 54.5 -40.5 90.5zM583 1365c0 36 13.5 66.167 40.5 90.5
s59.833 36.5 98.5 36.5s71.5 -12.167 98.5 -36.5s40.5 -54.5 40.5 -90.5c0 -34.667 -12.833 -64.5 -38.5 -89.5s-59.167 -37.5 -100.5 -37.5s-74.833 12.5 -100.5 37.5s-38.5 54.833 -38.5 89.5z" />
    <glyph glyph-name="copyright" unicode="&#xa9;" horiz-adv-x="1606" 
d="M1117 596c0 -101.333 -29.166 -179 -87.499 -233s-140.833 -81 -247.5 -81s-191.5 35.5 -254.5 106.5s-94.5 166.5 -94.5 286.5v113c0 116 31.833 209.5 95.5 280.5s148.167 106.5 253.5 106.5c108.667 0 191.834 -27.5 249.501 -82.5s86.5 -132.167 86.5 -231.5h-156
c0 64 -15.333 109.833 -46 137.5s-75.334 41.5 -134.001 41.5c-61.333 0 -108.833 -22.5 -142.5 -67.5s-50.834 -105.167 -51.501 -180.5v-123c0 -78 17 -139.5 51 -184.5s81.667 -67.5 143 -67.5c59.333 0 104 13.5 134 40.5s45 73.167 45 138.5h156zM1383 729
c0 110.667 -25.002 213.5 -75.002 308.5s-120.667 171 -212 228s-191.333 85.5 -300 85.5c-106 0 -204.5 -27.333 -295.5 -82s-162.5 -130 -214.5 -226s-78 -200.667 -78 -314s25.833 -218 77.5 -314s123 -171.833 214 -227.5s189.833 -83.5 296.5 -83.5
s205.834 28.333 297.501 85s162.834 133 213.501 229s76 199.667 76 311zM85.999 729c0 134.667 31.1709 259.668 93.5039 375.001s148.666 206.166 258.999 272.499s229.5 99.5 357.5 99.5s247.167 -33.167 357.5 -99.5s196.666 -157.166 258.999 -272.499
s93.5 -240.333 93.5 -375c0 -136 -31.667 -261.833 -95 -377.5s-149.833 -206.5 -259.5 -272.5s-228.167 -99 -355.5 -99c-128.667 0 -247.834 33.333 -357.501 100s-195.834 157.667 -258.501 273s-94 240.666 -94 375.999z" />
    <glyph glyph-name="ordfeminine" unicode="&#xaa;" horiz-adv-x="805" 
d="M515 705l-14 63c-40 -51.333 -94 -77 -162 -77c-66 0 -117.333 20.5 -154 61.5s-55 96.5 -55 166.5c0 151.333 93.667 228.333 281 231h84v51c0 84.667 -28 127 -84 127c-66.667 0 -100 -33 -100 -99l-165 14c0 68 24.5 123.833 73.5 167.5s112.833 65.5 191.5 65.5
c77.333 0 138.333 -24 183 -72s67 -116 67 -204v-318c0 -65.333 7.33301 -124.333 22 -177h-168zM382 835c39.333 0 77 18.667 113 56v142h-63c-90.667 0 -136 -36.667 -136 -110c0 -58.667 28.667 -88 86 -88z" />
    <glyph glyph-name="guillemotleft" unicode="&#xab;" horiz-adv-x="920" 
d="M289 523l192 -399h-175l-233 390v19l233 390h175zM630 523l192 -399h-175l-233 390v19l233 390h175z" />
    <glyph glyph-name="logicalnot" unicode="&#xac;" horiz-adv-x="993" 
d="M835 374h-192v260h-517v171h709v-431z" />
    <glyph glyph-name="uni00AD" unicode="&#xad;" horiz-adv-x="744" 
d="M612 506h-489v236h489v-236z" />
    <glyph glyph-name="registered" unicode="&#xae;" horiz-adv-x="1606" 
d="M86 729c0 134.667 31.1709 259.668 93.5039 375.001s148.666 206.166 258.999 272.499s229.5 99.5 357.5 99.5s247.167 -33.167 357.5 -99.5s196.666 -157.166 258.999 -272.499s93.5 -240.333 93.5 -375c0 -136 -31.667 -261.833 -95 -377.5
s-149.833 -206.5 -259.5 -272.5s-228.167 -99 -355.5 -99c-128.667 0 -247.834 33.333 -357.501 100s-195.834 157.667 -258.501 273s-94 240.666 -94 375.999zM1383 729.001c0 110.667 -25.002 213.5 -75.002 308.5s-120.667 171 -212 228s-191.333 85.5 -300 85.5
c-106 0 -204.5 -27.333 -295.5 -82s-162.5 -130 -214.5 -226s-78 -200.667 -78 -314s25.833 -218 77.5 -314s123 -171.833 214 -227.5s189.833 -83.5 296.5 -83.5s205.834 28.333 297.501 85s162.834 133 213.501 229s76 199.667 76 311zM652.002 653.001v-337h-151v850h281
c100.667 0 180 -22.833 238 -68.5s87 -110.5 87 -194.5c0 -74.667 -37.333 -132.667 -112 -174c40 -20.667 68.167 -49.334 84.5 -86.001s24.5 -82.5 24.5 -137.5s1.16699 -93.833 3.5 -116.5s6.83301 -41.667 13.5 -57v-16h-155c-8.66699 22.667 -13 87.334 -13 194.001
c0 50.667 -11 87.167 -33 109.5s-58.667 33.5 -110 33.5h-158zM652.002 787.001l135 -0.00195312c48.667 0 89.167 10.5 121.5 31.5s48.5 49.167 48.5 84.5c0 46.667 -11.833 79.834 -35.5 99.501s-66.5 29.834 -128.5 30.501h-141v-246z" />
    <glyph glyph-name="macron" unicode="&#xaf;" horiz-adv-x="938" 
d="M767 1287h-600v168h600v-168z" />
    <glyph glyph-name="degree" unicode="&#xb0;" horiz-adv-x="796" 
d="M126 1200c0 76.667 27.1689 141.834 81.502 195.501s118.166 80.5 191.499 80.5c72.667 0 135.5 -26.833 188.5 -80.5s79.5 -118.834 79.5 -195.501c0 -77.333 -26.5 -142.166 -79.5 -194.499s-115.833 -78.5 -188.5 -78.5s-136.334 26.167 -191.001 78.5
s-82 117.166 -82 194.499zM399.002 1076c35.333 0 64.332 12 86.999 36s34 53.333 34 88s-11.333 64.667 -34 90s-51.667 38 -87 38s-65.166 -12.5 -89.499 -37.5s-36.5 -55.167 -36.5 -90.5s12.5 -64.833 37.5 -88.5s54.5 -35.5 88.5 -35.5z" />
    <glyph glyph-name="plusminus" unicode="&#xb1;" horiz-adv-x="968" 
d="M607 945h260v-243h-260v-364h-247v364h-263v243h263v341h247v-341zM844 1h-731v238h731v-238z" />
    <glyph glyph-name="uni00B2" unicode="&#xb2;" horiz-adv-x="687" 
d="M609 667l-532.999 -0.00195312v138l240 257c28.667 32.667 49.334 63 62.001 91s19 49.667 19 65c0 56 -21.333 84 -64 84c-22.667 0 -40.5 -10.167 -53.5 -30.5s-19.5 -46.833 -19.5 -79.5h-199c0 78.667 24.667 144.167 74 196.5s112.333 78.5 189 78.5
c87.333 0 154.166 -21.5 200.499 -64.5s69.5 -104.167 69.5 -183.5c0 -51.333 -11.833 -97.166 -35.5 -137.499s-74.834 -95.166 -153.501 -164.499l-69 -85h273v-165z" />
    <glyph glyph-name="uni00B3" unicode="&#xb3;" horiz-adv-x="687" 
d="M250 1138l75 -0.00195312c52 0 78 29 78 87c0 24 -6.5 42.833 -19.5 56.5s-30.833 20.5 -53.5 20.5c-18 0 -33.667 -5.16699 -47 -15.5s-20 -25.166 -20 -44.499h-197c0 67.333 24.167 121.666 72.5 162.999s110.166 62 185.499 62c86 0 153.5 -20 202.5 -60
s73.5 -95.333 73.5 -166c0 -79.333 -38.667 -135.666 -116 -168.999c85.333 -27.333 128 -88.666 128 -183.999c0 -70.667 -26.667 -127 -80 -169s-123 -63 -209 -63c-80.667 0 -145.5 22.167 -194.5 66.5s-73.5 104.5 -73.5 180.5h199c0 -21.333 7.16699 -40.333 21.5 -57
s34.5 -25 60.5 -25c28.667 0 48.834 8.83301 60.501 26.5s17.5 38.167 17.5 61.5c0 60 -27.333 90.667 -82 92h-82v137z" />
    <glyph glyph-name="acute" unicode="&#xb4;" horiz-adv-x="680" 
d="M297 1536h318l-278 -310h-236z" />
    <glyph glyph-name="uni00B5" unicode="&#xb5;" horiz-adv-x="1125" 
d="M414 1082v-623c0 -84.667 9.5 -146.167 28.5 -184.5s53.167 -57.5 102.5 -57.5c66.667 0 114.667 28.667 144 86v779h284v-1082h-264l-4 51c-46.667 -48 -102.667 -72 -168 -72c-47.333 0 -88.333 11.333 -123 34v-429h-282v1498h282z" />
    <glyph glyph-name="paragraph" unicode="&#xb6;" horiz-adv-x="892" 
d="M556 0l-0.000976562 520h-65c-83.333 0 -156.166 19.333 -218.499 58s-110 93.667 -143 165s-49.5 153 -49.5 245c0 142 37.333 255.5 112 340.5s175.667 127.5 303 127.5h272v-1456h-211z" />
    <glyph glyph-name="periodcentered" unicode="&#xb7;" horiz-adv-x="583" 
d="M131 696c0 45.333 14.498 82.666 43.498 111.999s66.5 44 112.5 44c46.667 0 84.334 -14.667 113.001 -44s43 -66.666 43 -111.999c0 -46 -14.5 -83.333 -43.5 -112s-66.5 -43 -112.5 -43c-45.333 0 -82.666 14.333 -111.999 43s-44 66 -44 112z" />
    <glyph glyph-name="cedilla" unicode="&#xb8;" horiz-adv-x="511" 
d="M334 7l-9 -58c38.667 -8.66699 68.5 -27.834 89.5 -57.501s31.5 -68.167 31.5 -115.5c0 -73.333 -26.333 -131.333 -79 -174s-128 -64 -226 -64l-6 167c48.667 0 73 27.333 73 82c0 26.667 -8.5 45.334 -25.5 56.001s-45.833 17.667 -86.5 21l27 143h211z" />
    <glyph glyph-name="uni00B9" unicode="&#xb9;" horiz-adv-x="687" 
d="M480 667h-197v547l-148 -41v159l327 121h18v-786z" />
    <glyph glyph-name="ordmasculine" unicode="&#xba;" horiz-adv-x="831" 
d="M114 1121c0 106 27.667 191.666 83 256.999s127 98 215 98s159.667 -32.167 215 -96.5s83 -152.166 83 -263.499v-72c0 -106 -27 -191.5 -81 -256.5s-126 -97.5 -216 -97.5c-89.333 0 -161.5 32.5 -216.5 97.5s-82.5 152.167 -82.5 261.5v72zM281 1044
c0 -65.333 11.833 -116.333 35.5 -153s55.834 -55 96.501 -55c39.333 0 70.833 18.167 94.5 54.5s35.5 88.5 35.5 156.5v74c0 64.667 -11.833 115.334 -35.5 152.001s-55.5 55 -95.5 55c-39.333 0 -70.833 -17.833 -94.5 -53.5s-35.834 -85.834 -36.501 -150.501v-80z" />
    <glyph glyph-name="guillemotright" unicode="&#xbb;" horiz-adv-x="921" 
d="M261 923l233 -390v-19l-233 -390h-177l193 399l-193 400h177zM609 923l233 -390v-19l-233 -390h-177l193 399l-193 400h177z" />
    <glyph glyph-name="onequarter" unicode="&#xbc;" horiz-adv-x="1275" 
d="M444 664h-197v547l-148 -41v159l327 121h18v-786zM416 117l-134 76l597 1138l135 -76zM1126 327h64v-168h-64v-159h-197v159h-278l-12 136l290 494h197v-462zM824 327h105v201l-8 -13z" />
    <glyph glyph-name="onehalf" unicode="&#xbd;" horiz-adv-x="1357" 
d="M381 117l-134 76l597 1138l135 -76zM431 670h-197v547l-148 -41v159l327 121h18v-786zM1273 0l-532.999 -0.00195312v138l240 257c28.667 32.667 49.334 63 62.001 91s19 49.667 19 65c0 56 -21.333 84 -64 84c-22.667 0 -40.5 -10.167 -53.5 -30.5
s-19.5 -46.833 -19.5 -79.5h-199c0 78.667 24.667 144.167 74 196.5s112.333 78.5 189 78.5c87.333 0 154.166 -21.5 200.499 -64.5s69.5 -104.167 69.5 -183.5c0 -51.333 -11.833 -97.166 -35.5 -137.499s-74.834 -95.166 -153.501 -164.499l-69 -85h273v-165z" />
    <glyph glyph-name="threequarters" unicode="&#xbe;" horiz-adv-x="1443" 
d="M552 117l-134 76l597 1138l135 -76zM1263 327h64v-168h-64v-159h-197v159h-278l-12 136l290 494h197v-462zM961 327h105v201l-8 -13zM289 1138l75 -0.00195312c52 0 78 29 78 87c0 24 -6.5 42.833 -19.5 56.5s-30.833 20.5 -53.5 20.5c-18 0 -33.667 -5.16699 -47 -15.5
s-20 -25.166 -20 -44.499h-197c0 67.333 24.167 121.666 72.5 162.999s110.166 62 185.499 62c86 0 153.5 -20 202.5 -60s73.5 -95.333 73.5 -166c0 -79.333 -38.667 -135.666 -116 -168.999c85.333 -27.333 128 -88.666 128 -183.999c0 -70.667 -26.667 -127 -80 -169
s-123 -63 -209 -63c-80.667 0 -145.5 22.167 -194.5 66.5s-73.5 104.5 -73.5 180.5h199c0 -21.333 7.16699 -40.333 21.5 -57s34.5 -25 60.5 -25c28.667 0 48.834 8.83301 60.501 26.5s17.5 38.167 17.5 61.5c0 60 -27.333 90.667 -82 92h-82v137z" />
    <glyph glyph-name="questiondown" unicode="&#xbf;" horiz-adv-x="915" 
d="M606 642c0 -85.333 -9.00098 -156 -27.001 -212s-51.333 -111 -100 -165c-52 -61.333 -85.5 -109.5 -100.5 -144.5s-22.5 -72.5 -22.5 -112.5c0 -53.333 9.5 -92.5 28.5 -117.5s44.167 -37.5 75.5 -37.5c34.667 0 63.334 15.333 86.001 46s34 72 34 124h284
c-1.33301 -128 -37.333 -228 -108 -300s-167.667 -108 -291 -108c-124.667 0 -221.167 33.833 -289.5 101.5s-102.5 164.5 -102.5 290.5c0 105.333 42.667 208.666 128 309.999l87 101c22 26.667 38.5 55.334 49.5 86.001s17.167 76.667 18.5 138h250zM638.999 948
c0 -45.333 -14.5 -82.333 -43.5 -111s-65.833 -43 -110.5 -43c-46 0 -83.333 14.5 -112 43.5s-43 65.833 -43 110.5c0 44 14 80.667 42 110s65.667 44 113 44c46.667 0 84 -14.667 112 -44s42 -66 42 -110z" />
    <glyph glyph-name="Agrave" unicode="&#xc0;" horiz-adv-x="1223" 
d="M812 298h-401l-78 -298h-311l455 1456h269l458 -1456h-314zM475 543h272l-136 519zM758 1536h-239l-276 310h317z" />
    <glyph glyph-name="Aacute" unicode="&#xc1;" horiz-adv-x="1223" 
d="M812 298h-401l-78 -298h-311l455 1456h269l458 -1456h-314zM475 543h272l-136 519zM671 1846h318l-278 -310h-236z" />
    <glyph glyph-name="Acircumflex" unicode="&#xc2;" horiz-adv-x="1223" 
d="M812 298h-401l-78 -298h-311l455 1456h269l458 -1456h-314zM475 543h272l-136 519zM960 1566v-12h-221l-125 144l-125 -144h-216v16l260 276h162z" />
    <glyph glyph-name="Atilde" unicode="&#xc3;" horiz-adv-x="1223" 
d="M812 298h-401l-78 -298h-311l455 1456h269l458 -1456h-314zM475 543h272l-136 519zM938 1831c0 -74 -18.8379 -136.833 -56.5049 -188.5s-85.167 -77.5 -142.5 -77.5c-21.333 0 -40.166 3 -56.499 9s-39.333 18.333 -69 37s-50.667 30 -63 34s-25.833 6 -40.5 6
c-18 0 -33 -8.16699 -45 -24.5s-18 -39.833 -18 -70.5l-160 9c0 74 19 137.167 57 189.5s84.667 78.5 140 78.5c14.667 0 28.834 -2.16699 42.501 -6.5s37.334 -16 71.001 -35s57.834 -31 72.501 -36s29.334 -7.5 44.001 -7.5c17.333 0 32.5 8.16699 45.5 24.5
s19.5 39.833 19.5 70.5z" />
    <glyph glyph-name="Adieresis" unicode="&#xc4;" horiz-adv-x="1223" 
d="M812 298h-401l-78 -298h-311l455 1456h269l458 -1456h-314zM475 543h272l-136 519zM230 1675c0 36.667 13.5 67.167 40.5 91.5s59.833 36.5 98.5 36.5s71.5 -12.167 98.5 -36.5s40.5 -54.833 40.5 -91.5c0 -36 -13.5 -66.167 -40.5 -90.5s-59.833 -36.5 -98.5 -36.5
s-71.5 12.167 -98.5 36.5s-40.5 54.5 -40.5 90.5zM719 1675c0 36 13.5 66.167 40.5 90.5s59.833 36.5 98.5 36.5s71.5 -12.167 98.5 -36.5s40.5 -54.5 40.5 -90.5c0 -34.667 -12.833 -64.5 -38.5 -89.5s-59.167 -37.5 -100.5 -37.5s-74.833 12.5 -100.5 37.5
s-38.5 54.833 -38.5 89.5z" />
    <glyph glyph-name="Aring" unicode="&#xc5;" horiz-adv-x="1223" 
d="M812 298h-401l-78 -298h-311l455 1456h269l458 -1456h-314zM475 543h272l-136 519zM392 1730c0 57.333 21.667 105.835 65 145.502s96 59.5 158 59.5c61.333 0 113.833 -19.5 157.5 -58.5s65.5 -87.833 65.5 -146.5c0 -56.667 -21.333 -104.334 -64 -143.001
s-95.667 -58 -159 -58c-64.667 0 -118 19.667 -160 59s-63 86.666 -63 141.999zM615 1623c33.333 0 59.668 10.333 79.001 31s29 46 29 76c0 30.667 -9.83301 56.5 -29.5 77.5s-45.834 31.5 -78.501 31.5c-31.333 0 -57 -10.333 -77 -31s-30 -46.667 -30 -78
s10.167 -57 30.5 -77s45.833 -30 76.5 -30z" />
    <glyph glyph-name="AE" unicode="&#xc6;" horiz-adv-x="1674" 
d="M1602 0h-778l-12 333h-333l-132 -333h-332l643 1456h892v-238h-485l13 -352h404v-238h-396l13 -390h503v-238zM577 582h226l-18 524z" />
    <glyph glyph-name="Ccedilla" unicode="&#xc7;" horiz-adv-x="1168" 
d="M1104 485c-7.33301 -166 -53.9961 -291.668 -139.996 -377.001s-207.333 -128 -364 -128c-164.667 0 -290.834 54.167 -378.501 162.5s-131.5 262.833 -131.5 463.5v245c0 200 45.333 354.167 136 462.5s216.667 162.5 378 162.5c158.667 0 279.167 -44.333 361.5 -133
s129.166 -216 140.499 -382h-295c-2.66699 102.667 -18.5 173.5 -47.5 212.5s-82.167 58.5 -159.5 58.5c-78.667 0 -134.334 -27.5 -167.001 -82.5s-50 -145.5 -52 -271.5v-275c0 -144.667 16.167 -244 48.5 -298s87.833 -81 166.5 -81
c77.333 0 130.666 18.833 159.999 56.5s46 105.834 50 204.501h294zM706.004 5.99902l-9 -58c38.667 -8.66699 68.5 -27.834 89.5 -57.501s31.5 -68.167 31.5 -115.5c0 -73.333 -26.333 -131.333 -79 -174s-128 -64 -226 -64l-6 167c48.667 0 73 27.333 73 82
c0 26.667 -8.5 45.334 -25.5 56.001s-45.833 17.667 -86.5 21l27 143h211z" />
    <glyph glyph-name="Egrave" unicode="&#xc8;" horiz-adv-x="1005" 
d="M869 630h-458v-386h542v-244h-836v1456h834v-245h-540v-344h458v-237zM700 1539h-239l-276 310h317z" />
    <glyph glyph-name="Eacute" unicode="&#xc9;" horiz-adv-x="1005" 
d="M869 630h-458v-386h542v-244h-836v1456h834v-245h-540v-344h458v-237zM613 1849h318l-278 -310h-236z" />
    <glyph glyph-name="Ecircumflex" unicode="&#xca;" horiz-adv-x="1005" 
d="M869 630h-458v-386h542v-244h-836v1456h834v-245h-540v-344h458v-237zM902 1569v-12h-221l-125 144l-125 -144h-216v16l260 276h162z" />
    <glyph glyph-name="Edieresis" unicode="&#xcb;" horiz-adv-x="1005" 
d="M869 630h-458v-386h542v-244h-836v1456h834v-245h-540v-344h458v-237zM172 1678c0 36.667 13.5 67.167 40.5 91.5s59.833 36.5 98.5 36.5s71.5 -12.167 98.5 -36.5s40.5 -54.833 40.5 -91.5c0 -36 -13.5 -66.167 -40.5 -90.5s-59.833 -36.5 -98.5 -36.5
s-71.5 12.167 -98.5 36.5s-40.5 54.5 -40.5 90.5zM661 1678c0 36 13.5 66.167 40.5 90.5s59.833 36.5 98.5 36.5s71.5 -12.167 98.5 -36.5s40.5 -54.5 40.5 -90.5c0 -34.667 -12.833 -64.5 -38.5 -89.5s-59.167 -37.5 -100.5 -37.5s-74.833 12.5 -100.5 37.5
s-38.5 54.833 -38.5 89.5z" />
    <glyph glyph-name="Igrave" unicode="&#xcc;" horiz-adv-x="554" 
d="M424 0h-294v1456h294v-1456zM420 1539h-239l-276 310h317z" />
    <glyph glyph-name="Iacute" unicode="&#xcd;" horiz-adv-x="554" 
d="M424 0h-294v1456h294v-1456zM332 1849h318l-278 -310h-236z" />
    <glyph glyph-name="Icircumflex" unicode="&#xce;" horiz-adv-x="554" 
d="M424 0h-294v1456h294v-1456zM622 1569v-12h-221l-125 144l-125 -144h-216v16l260 276h162z" />
    <glyph glyph-name="Idieresis" unicode="&#xcf;" horiz-adv-x="554" 
d="M424 0h-294v1456h294v-1456zM-108 1678c0 36.667 13.5 67.167 40.5 91.5s59.833 36.5 98.5 36.5s71.5 -12.167 98.5 -36.5s40.5 -54.833 40.5 -91.5c0 -36 -13.5 -66.167 -40.5 -90.5s-59.833 -36.5 -98.5 -36.5s-71.5 12.167 -98.5 36.5s-40.5 54.5 -40.5 90.5z
M381 1678c0 36 13.5 66.167 40.5 90.5s59.833 36.5 98.5 36.5s71.5 -12.167 98.5 -36.5s40.5 -54.5 40.5 -90.5c0 -34.667 -12.833 -64.5 -38.5 -89.5s-59.167 -37.5 -100.5 -37.5s-74.833 12.5 -100.5 37.5s-38.5 54.833 -38.5 89.5z" />
    <glyph glyph-name="Eth" unicode="&#xd0;" horiz-adv-x="1187" 
d="M147 0v641h-156v183h156v632h385c170 0 305.5 -54 406.5 -162s152.5 -256 154.5 -444v-236c0 -191.333 -50.5 -341.5 -151.5 -450.5s-240.167 -163.5 -417.5 -163.5h-377zM598 641h-157v-397h102c92.667 2 158 29.167 196 81.5s58 141.166 60 266.499v250
c0 136 -19 230.833 -57 284.5s-102.667 81.834 -194 84.501h-107v-387h157v-183z" />
    <glyph glyph-name="Ntilde" unicode="&#xd1;" horiz-adv-x="1254" 
d="M1135 0h-294l-430 955v-955h-294v1456h294l431 -956v956h293v-1456zM954 1831c0 -74 -18.8379 -136.833 -56.5049 -188.5s-85.167 -77.5 -142.5 -77.5c-21.333 0 -40.166 3 -56.499 9s-39.333 18.333 -69 37s-50.667 30 -63 34s-25.833 6 -40.5 6
c-18 0 -33 -8.16699 -45 -24.5s-18 -39.833 -18 -70.5l-160 9c0 74 19 137.167 57 189.5s84.667 78.5 140 78.5c14.667 0 28.834 -2.16699 42.501 -6.5s37.334 -16 71.001 -35s57.834 -31 72.501 -36s29.334 -7.5 44.001 -7.5c17.333 0 32.5 8.16699 45.5 24.5
s19.5 39.833 19.5 70.5z" />
    <glyph glyph-name="Ograve" unicode="&#xd2;" horiz-adv-x="1236" 
d="M1142 597c0 -195.333 -46.1689 -347.001 -138.502 -455.001s-220.5 -162 -384.5 -162c-163.333 0 -291.666 53.5 -384.999 160.5s-140.666 256.833 -141.999 449.5v249c0 200 46.333 356.167 139 468.5s221.334 168.5 386.001 168.5c162 0 289.667 -55.167 383 -165.5
s140.666 -265.166 141.999 -464.499v-249zM846.998 840.999c0 131.333 -18.668 228.999 -56.001 292.999s-95.333 96 -174 96c-78 0 -135.667 -30.833 -173 -92.5s-56.666 -155.5 -57.999 -281.5v-259c0 -127.333 19 -221.166 57 -281.499s96.667 -90.5 176 -90.5
c76.667 0 133.667 29.5 171 88.5s56.333 150.5 57 274.5v253zM761.997 1536h-239l-276 310h317z" />
    <glyph glyph-name="Oacute" unicode="&#xd3;" horiz-adv-x="1236" 
d="M1142 597c0 -195.333 -46.1689 -347.001 -138.502 -455.001s-220.5 -162 -384.5 -162c-163.333 0 -291.666 53.5 -384.999 160.5s-140.666 256.833 -141.999 449.5v249c0 200 46.333 356.167 139 468.5s221.334 168.5 386.001 168.5c162 0 289.667 -55.167 383 -165.5
s140.666 -265.166 141.999 -464.499v-249zM846.998 840.999c0 131.333 -18.668 228.999 -56.001 292.999s-95.333 96 -174 96c-78 0 -135.667 -30.833 -173 -92.5s-56.666 -155.5 -57.999 -281.5v-259c0 -127.333 19 -221.166 57 -281.499s96.667 -90.5 176 -90.5
c76.667 0 133.667 29.5 171 88.5s56.333 150.5 57 274.5v253zM674.997 1846h318l-278 -310h-236z" />
    <glyph glyph-name="Ocircumflex" unicode="&#xd4;" horiz-adv-x="1236" 
d="M1142 597c0 -195.333 -46.1689 -347.001 -138.502 -455.001s-220.5 -162 -384.5 -162c-163.333 0 -291.666 53.5 -384.999 160.5s-140.666 256.833 -141.999 449.5v249c0 200 46.333 356.167 139 468.5s221.334 168.5 386.001 168.5c162 0 289.667 -55.167 383 -165.5
s140.666 -265.166 141.999 -464.499v-249zM846.998 840.999c0 131.333 -18.668 228.999 -56.001 292.999s-95.333 96 -174 96c-78 0 -135.667 -30.833 -173 -92.5s-56.666 -155.5 -57.999 -281.5v-259c0 -127.333 19 -221.166 57 -281.499s96.667 -90.5 176 -90.5
c76.667 0 133.667 29.5 171 88.5s56.333 150.5 57 274.5v253zM963.997 1566v-12h-221l-125 144l-125 -144h-216v16l260 276h162z" />
    <glyph glyph-name="Otilde" unicode="&#xd5;" horiz-adv-x="1236" 
d="M1142 597c0 -195.333 -46.1689 -347.001 -138.502 -455.001s-220.5 -162 -384.5 -162c-163.333 0 -291.666 53.5 -384.999 160.5s-140.666 256.833 -141.999 449.5v249c0 200 46.333 356.167 139 468.5s221.334 168.5 386.001 168.5c162 0 289.667 -55.167 383 -165.5
s140.666 -265.166 141.999 -464.499v-249zM846.998 840.999c0 131.333 -18.668 228.999 -56.001 292.999s-95.333 96 -174 96c-78 0 -135.667 -30.833 -173 -92.5s-56.666 -155.5 -57.999 -281.5v-259c0 -127.333 19 -221.166 57 -281.499s96.667 -90.5 176 -90.5
c76.667 0 133.667 29.5 171 88.5s56.333 150.5 57 274.5v253zM941.997 1831c0 -74 -18.8379 -136.833 -56.5049 -188.5s-85.167 -77.5 -142.5 -77.5c-21.333 0 -40.166 3 -56.499 9s-39.333 18.333 -69 37s-50.667 30 -63 34s-25.833 6 -40.5 6
c-18 0 -33 -8.16699 -45 -24.5s-18 -39.833 -18 -70.5l-160 9c0 74 19 137.167 57 189.5s84.667 78.5 140 78.5c14.667 0 28.834 -2.16699 42.501 -6.5s37.334 -16 71.001 -35s57.834 -31 72.501 -36s29.334 -7.5 44.001 -7.5c17.333 0 32.5 8.16699 45.5 24.5
s19.5 39.833 19.5 70.5z" />
    <glyph glyph-name="Odieresis" unicode="&#xd6;" horiz-adv-x="1236" 
d="M1142 597c0 -195.333 -46.1689 -347.001 -138.502 -455.001s-220.5 -162 -384.5 -162c-163.333 0 -291.666 53.5 -384.999 160.5s-140.666 256.833 -141.999 449.5v249c0 200 46.333 356.167 139 468.5s221.334 168.5 386.001 168.5c162 0 289.667 -55.167 383 -165.5
s140.666 -265.166 141.999 -464.499v-249zM846.998 840.999c0 131.333 -18.668 228.999 -56.001 292.999s-95.333 96 -174 96c-78 0 -135.667 -30.833 -173 -92.5s-56.666 -155.5 -57.999 -281.5v-259c0 -127.333 19 -221.166 57 -281.499s96.667 -90.5 176 -90.5
c76.667 0 133.667 29.5 171 88.5s56.333 150.5 57 274.5v253zM233.997 1675c0 36.667 13.5 67.167 40.5 91.5s59.833 36.5 98.5 36.5s71.5 -12.167 98.5 -36.5s40.5 -54.833 40.5 -91.5c0 -36 -13.5 -66.167 -40.5 -90.5s-59.833 -36.5 -98.5 -36.5s-71.5 12.167 -98.5 36.5
s-40.5 54.5 -40.5 90.5zM722.997 1675c0 36 13.5 66.167 40.5 90.5s59.833 36.5 98.5 36.5s71.5 -12.167 98.5 -36.5s40.5 -54.5 40.5 -90.5c0 -34.667 -12.833 -64.5 -38.5 -89.5s-59.167 -37.5 -100.5 -37.5s-74.833 12.5 -100.5 37.5s-38.5 54.833 -38.5 89.5z" />
    <glyph glyph-name="multiply" unicode="&#xd7;" horiz-adv-x="960" 
d="M68 374l255 309l-259 315l166 170l246 -299l247 299l165 -170l-259 -315l255 -309l-166 -170l-242 294l-242 -294z" />
    <glyph glyph-name="Oslash" unicode="&#xd8;" horiz-adv-x="1233" 
d="M1158 695c0 -142.667 -21.833 -267.999 -65.5 -375.999s-106.167 -191.5 -187.5 -250.5s-174.333 -88.5 -279 -88.5c-89.333 0 -170 21.333 -242 64l-68 -139h-177l120 245c-111.333 131.333 -167 315.666 -167 552.999v56c0 143.333 22.167 269.5 66.5 378.5
s107 192.667 188 251s173.5 87.5 277.5 87.5c92.667 0 176.667 -23.333 252 -70l55 112h178l-110 -223c105.333 -132.667 158.333 -311 159 -535v-65zM389 695.001c0 -92.667 7.33301 -170.667 22 -234l347 705c-36.667 40 -81.334 60 -134.001 60
c-75.333 0 -133.166 -38.667 -173.499 -116s-60.833 -191.333 -61.5 -342v-73zM860 761.001c0 78.667 -6.33301 149.667 -19 213l-341 -695c34 -34 76 -51 126 -51c74.667 0 132.167 39.333 172.5 118s60.833 192.667 61.5 342v73z" />
    <glyph glyph-name="Ugrave" unicode="&#xd9;" horiz-adv-x="1170" 
d="M1064 1456v-1008c-1.33301 -151.333 -43 -267.166 -125 -347.499s-199.667 -120.5 -353 -120.5c-156 0 -275.167 40.667 -357.5 122s-123.5 199 -123.5 353v1001h296v-1002c0 -82.667 13.333 -141.667 40 -177s75 -53 145 -53s118 17.5 144 52.5s39.333 92.5 40 172.5
v1007h294zM722 1536h-239l-276 310h317z" />
    <glyph glyph-name="Uacute" unicode="&#xda;" horiz-adv-x="1170" 
d="M1064 1456v-1008c-1.33301 -151.333 -43 -267.166 -125 -347.499s-199.667 -120.5 -353 -120.5c-156 0 -275.167 40.667 -357.5 122s-123.5 199 -123.5 353v1001h296v-1002c0 -82.667 13.333 -141.667 40 -177s75 -53 145 -53s118 17.5 144 52.5s39.333 92.5 40 172.5
v1007h294zM635 1846h318l-278 -310h-236z" />
    <glyph glyph-name="Ucircumflex" unicode="&#xdb;" horiz-adv-x="1170" 
d="M1064 1456v-1008c-1.33301 -151.333 -43 -267.166 -125 -347.499s-199.667 -120.5 -353 -120.5c-156 0 -275.167 40.667 -357.5 122s-123.5 199 -123.5 353v1001h296v-1002c0 -82.667 13.333 -141.667 40 -177s75 -53 145 -53s118 17.5 144 52.5s39.333 92.5 40 172.5
v1007h294zM924 1566v-12h-221l-125 144l-125 -144h-216v16l260 276h162z" />
    <glyph glyph-name="Udieresis" unicode="&#xdc;" horiz-adv-x="1170" 
d="M1064 1456v-1008c-1.33301 -151.333 -43 -267.166 -125 -347.499s-199.667 -120.5 -353 -120.5c-156 0 -275.167 40.667 -357.5 122s-123.5 199 -123.5 353v1001h296v-1002c0 -82.667 13.333 -141.667 40 -177s75 -53 145 -53s118 17.5 144 52.5s39.333 92.5 40 172.5
v1007h294zM194 1675c0 36.667 13.5 67.167 40.5 91.5s59.833 36.5 98.5 36.5s71.5 -12.167 98.5 -36.5s40.5 -54.833 40.5 -91.5c0 -36 -13.5 -66.167 -40.5 -90.5s-59.833 -36.5 -98.5 -36.5s-71.5 12.167 -98.5 36.5s-40.5 54.5 -40.5 90.5zM683 1675
c0 36 13.5 66.167 40.5 90.5s59.833 36.5 98.5 36.5s71.5 -12.167 98.5 -36.5s40.5 -54.5 40.5 -90.5c0 -34.667 -12.833 -64.5 -38.5 -89.5s-59.167 -37.5 -100.5 -37.5s-74.833 12.5 -100.5 37.5s-38.5 54.833 -38.5 89.5z" />
    <glyph glyph-name="Yacute" unicode="&#xdd;" horiz-adv-x="1111" 
d="M556 802l219 654h320l-390 -928v-528h-298v528l-391 928h320zM615 1846h318l-278 -310h-236z" />
    <glyph glyph-name="Thorn" unicode="&#xde;" horiz-adv-x="1092" 
d="M403 1456l-0.000976562 -267h159c146 0 260.667 -40.667 344 -122s125 -191 125 -329s-41.667 -247.833 -125 -329.5s-197.666 -122.5 -342.999 -122.5h-160v-286h-283v1456h283zM402.999 959l-0.000976562 -438h162c56.667 0 101.334 19 134.001 57s49 90.667 49 158
c0 66.667 -16 119.667 -48 159s-77 59 -135 59h-158z" />
    <glyph glyph-name="germandbls" unicode="&#xdf;" horiz-adv-x="1145" 
d="M411 0l-281.998 0.00292969v1101c0 145.333 37 258 111 338s178 120 312 120c114.667 0 205.5 -33.333 272.5 -100s100.5 -156.667 100.5 -270c0 -71.333 -14.667 -136.333 -44 -195s-44 -113 -44 -163c0 -24 7.5 -48.167 22.5 -72.5s44.833 -61.833 89.5 -112.5
s77.167 -99.334 97.5 -146.001s30.5 -95 30.5 -145c0 -118.667 -32 -210.834 -96 -276.501s-161.333 -98.5 -292 -98.5c-44.667 0 -88.334 5.33301 -131.001 16s-75.334 24 -98.001 40l51 230c50 -34 107.667 -51 173 -51c74 0 111 45 111 135c0 30 -8.33301 58.667 -25 86
s-46.667 63.166 -90 107.499s-75 88.333 -95 132s-30 91.167 -30 142.5c0 64 15.167 126.333 45.5 187s45.5 117 45.5 169c0 46 -10.5 82.667 -31.5 110s-49.5 41 -85.5 41c-76 0 -115.333 -69.667 -118 -209v-1116z" />
    <glyph glyph-name="agrave" unicode="&#xe0;" horiz-adv-x="964" 
d="M617 0c-8 16.667 -15.9971 44.668 -23.9971 84.001c-50.667 -69.333 -119.334 -104 -206.001 -104c-90.667 0 -165.834 30 -225.501 90s-89.5 137.667 -89.5 233c0 113.333 36.167 201 108.5 263s176.5 93.667 312.5 95h86v87c0 48.667 -8.33301 83 -25 103
s-41 30 -73 30c-70.667 0 -106 -41.333 -106 -124h-283c0 100 37.5 182.5 112.5 247.5s169.833 97.5 284.5 97.5c118.667 0 210.5 -30.833 275.5 -92.5s97.5 -149.834 97.5 -264.501v-509c1.33301 -93.333 14.666 -166.333 39.999 -219v-17h-285zM450.003 202.001
c31.333 0 58 6.33301 80 19s38.333 27.667 49 45v225h-68c-48 0 -85.833 -15.333 -113.5 -46s-41.5 -71.667 -41.5 -123c0 -80 31.333 -120 94 -120zM622.003 1226h-239l-276 310h317z" />
    <glyph glyph-name="aacute" unicode="&#xe1;" horiz-adv-x="964" 
d="M617 0c-8 16.667 -15.9971 44.668 -23.9971 84.001c-50.667 -69.333 -119.334 -104 -206.001 -104c-90.667 0 -165.834 30 -225.501 90s-89.5 137.667 -89.5 233c0 113.333 36.167 201 108.5 263s176.5 93.667 312.5 95h86v87c0 48.667 -8.33301 83 -25 103
s-41 30 -73 30c-70.667 0 -106 -41.333 -106 -124h-283c0 100 37.5 182.5 112.5 247.5s169.833 97.5 284.5 97.5c118.667 0 210.5 -30.833 275.5 -92.5s97.5 -149.834 97.5 -264.501v-509c1.33301 -93.333 14.666 -166.333 39.999 -219v-17h-285zM450.003 202.001
c31.333 0 58 6.33301 80 19s38.333 27.667 49 45v225h-68c-48 0 -85.833 -15.333 -113.5 -46s-41.5 -71.667 -41.5 -123c0 -80 31.333 -120 94 -120zM535.003 1536h318l-278 -310h-236z" />
    <glyph glyph-name="acircumflex" unicode="&#xe2;" horiz-adv-x="964" 
d="M617 0c-8 16.667 -15.9971 44.668 -23.9971 84.001c-50.667 -69.333 -119.334 -104 -206.001 -104c-90.667 0 -165.834 30 -225.501 90s-89.5 137.667 -89.5 233c0 113.333 36.167 201 108.5 263s176.5 93.667 312.5 95h86v87c0 48.667 -8.33301 83 -25 103
s-41 30 -73 30c-70.667 0 -106 -41.333 -106 -124h-283c0 100 37.5 182.5 112.5 247.5s169.833 97.5 284.5 97.5c118.667 0 210.5 -30.833 275.5 -92.5s97.5 -149.834 97.5 -264.501v-509c1.33301 -93.333 14.666 -166.333 39.999 -219v-17h-285zM450.003 202.001
c31.333 0 58 6.33301 80 19s38.333 27.667 49 45v225h-68c-48 0 -85.833 -15.333 -113.5 -46s-41.5 -71.667 -41.5 -123c0 -80 31.333 -120 94 -120zM824.003 1256v-12h-221l-125 144l-125 -144h-216v16l260 276h162z" />
    <glyph glyph-name="atilde" unicode="&#xe3;" horiz-adv-x="964" 
d="M617 0c-8 16.667 -15.9971 44.668 -23.9971 84.001c-50.667 -69.333 -119.334 -104 -206.001 -104c-90.667 0 -165.834 30 -225.501 90s-89.5 137.667 -89.5 233c0 113.333 36.167 201 108.5 263s176.5 93.667 312.5 95h86v87c0 48.667 -8.33301 83 -25 103
s-41 30 -73 30c-70.667 0 -106 -41.333 -106 -124h-283c0 100 37.5 182.5 112.5 247.5s169.833 97.5 284.5 97.5c118.667 0 210.5 -30.833 275.5 -92.5s97.5 -149.834 97.5 -264.501v-509c1.33301 -93.333 14.666 -166.333 39.999 -219v-17h-285zM450.003 202.001
c31.333 0 58 6.33301 80 19s38.333 27.667 49 45v225h-68c-48 0 -85.833 -15.333 -113.5 -46s-41.5 -71.667 -41.5 -123c0 -80 31.333 -120 94 -120zM802.003 1522c0 -74 -18.8379 -136.833 -56.5049 -188.5s-85.167 -77.5 -142.5 -77.5c-21.333 0 -40.166 3 -56.499 9
s-39.333 18.333 -69 37s-50.667 30 -63 34s-25.833 6 -40.5 6c-18 0 -33 -8.16699 -45 -24.5s-18 -39.833 -18 -70.5l-160 9c0 74 19 137.167 57 189.5s84.667 78.5 140 78.5c14.667 0 28.834 -2.16699 42.501 -6.5s37.334 -16 71.001 -35s57.834 -31 72.501 -36
s29.334 -7.5 44.001 -7.5c17.333 0 32.5 8.16699 45.5 24.5s19.5 39.833 19.5 70.5z" />
    <glyph glyph-name="adieresis" unicode="&#xe4;" horiz-adv-x="964" 
d="M617 0c-8 16.667 -15.9971 44.668 -23.9971 84.001c-50.667 -69.333 -119.334 -104 -206.001 -104c-90.667 0 -165.834 30 -225.501 90s-89.5 137.667 -89.5 233c0 113.333 36.167 201 108.5 263s176.5 93.667 312.5 95h86v87c0 48.667 -8.33301 83 -25 103
s-41 30 -73 30c-70.667 0 -106 -41.333 -106 -124h-283c0 100 37.5 182.5 112.5 247.5s169.833 97.5 284.5 97.5c118.667 0 210.5 -30.833 275.5 -92.5s97.5 -149.834 97.5 -264.501v-509c1.33301 -93.333 14.666 -166.333 39.999 -219v-17h-285zM450.003 202.001
c31.333 0 58 6.33301 80 19s38.333 27.667 49 45v225h-68c-48 0 -85.833 -15.333 -113.5 -46s-41.5 -71.667 -41.5 -123c0 -80 31.333 -120 94 -120zM94.0029 1365c0 36.667 13.5 67.167 40.5 91.5s59.833 36.5 98.5 36.5s71.5 -12.167 98.5 -36.5s40.5 -54.833 40.5 -91.5
c0 -36 -13.5 -66.167 -40.5 -90.5s-59.833 -36.5 -98.5 -36.5s-71.5 12.167 -98.5 36.5s-40.5 54.5 -40.5 90.5zM583.003 1365c0 36 13.5 66.167 40.5 90.5s59.833 36.5 98.5 36.5s71.5 -12.167 98.5 -36.5s40.5 -54.5 40.5 -90.5c0 -34.667 -12.833 -64.5 -38.5 -89.5
s-59.167 -37.5 -100.5 -37.5s-74.833 12.5 -100.5 37.5s-38.5 54.833 -38.5 89.5z" />
    <glyph glyph-name="aring" unicode="&#xe5;" horiz-adv-x="964" 
d="M617 0c-8 16.667 -15.9971 44.668 -23.9971 84.001c-50.667 -69.333 -119.334 -104 -206.001 -104c-90.667 0 -165.834 30 -225.501 90s-89.5 137.667 -89.5 233c0 113.333 36.167 201 108.5 263s176.5 93.667 312.5 95h86v87c0 48.667 -8.33301 83 -25 103
s-41 30 -73 30c-70.667 0 -106 -41.333 -106 -124h-283c0 100 37.5 182.5 112.5 247.5s169.833 97.5 284.5 97.5c118.667 0 210.5 -30.833 275.5 -92.5s97.5 -149.834 97.5 -264.501v-509c1.33301 -93.333 14.666 -166.333 39.999 -219v-17h-285zM450.003 202.001
c31.333 0 58 6.33301 80 19s38.333 27.667 49 45v225h-68c-48 0 -85.833 -15.333 -113.5 -46s-41.5 -71.667 -41.5 -123c0 -80 31.333 -120 94 -120zM256.003 1420c0 57.333 21.667 105.835 65 145.502s96 59.5 158 59.5c61.333 0 113.833 -19.5 157.5 -58.5
s65.5 -87.833 65.5 -146.5c0 -56.667 -21.333 -104.334 -64 -143.001s-95.667 -58 -159 -58c-64.667 0 -118 19.667 -160 59s-63 86.666 -63 141.999zM479.003 1313c33.333 0 59.668 10.333 79.001 31s29 46 29 76c0 30.667 -9.83301 56.5 -29.5 77.5
s-45.834 31.5 -78.501 31.5c-31.333 0 -57 -10.333 -77 -31s-30 -46.667 -30 -78s10.167 -57 30.5 -77s45.833 -30 76.5 -30z" />
    <glyph glyph-name="ae" unicode="&#xe6;" horiz-adv-x="1491" 
d="M1063 -20c-136.667 0 -244.668 45.333 -324.001 136c-37.333 -44 -84 -77.667 -140 -101s-117.333 -35 -184 -35c-108 0 -192.333 29.833 -253 89.5s-91 142.834 -91 249.501c0 104.667 35.167 185.667 105.5 243s174.833 86.666 313.5 87.999h125v55
c0 50.667 -9.66699 90.334 -29 119.001s-46.333 43 -81 43c-38 0 -67.667 -12 -89 -36s-32 -53 -32 -87l-282 19c0 100 37.667 181.5 113 244.5s173 94.5 293 94.5c113.333 0 203.333 -31.333 270 -94c70.667 64 159 95.333 265 94c120.667 0 215.334 -43.333 284.001 -130
s103.667 -204.334 105 -353.001v-170h-540c6 -76.667 26.167 -135 60.5 -175s81.5 -60 141.5 -60c42 0 80.667 5.33301 116 16s77 31 125 61l72 -191c-32 -32 -80.333 -60 -145 -84s-131 -36 -199 -36zM470.999 193c48 0 96 22.333 144 67v200h-115
c-42 0 -76.833 -13.5 -104.5 -40.5s-41.5 -61.833 -41.5 -104.5c0 -81.333 39 -122 117 -122zM1043 867c-88 0 -138 -74.333 -150 -223h262v28c0 58 -8.83301 105 -26.5 141s-46.167 54 -85.5 54z" />
    <glyph glyph-name="ccedilla" unicode="&#xe7;" horiz-adv-x="942" 
d="M494 215c82 0 123.663 53.3311 124.996 159.998h266c-1.33301 -118 -37.666 -213.333 -108.999 -286s-163.333 -109 -276 -109c-139.333 0 -245.666 43.333 -318.999 130s-110.666 214.334 -111.999 383.001v86c0 170 36.167 299.667 108.5 389s179.166 134 320.499 134
c119.333 0 213.333 -36.833 282 -110.5s103.667 -178.167 105 -313.5h-266c-0.666992 60.667 -10.667 107.334 -30 140.001s-51.333 49 -96 49c-49.333 0 -84.666 -17.5 -105.999 -52.5s-32.666 -102.833 -33.999 -203.5v-110c0 -88 4.33301 -149.5 13 -184.5
s23 -60.667 43 -77s48.333 -24.5 85 -24.5zM595.996 5.99805l-9 -58c38.667 -8.66699 68.5 -27.834 89.5 -57.501s31.5 -68.167 31.5 -115.5c0 -73.333 -26.333 -131.333 -79 -174s-128 -64 -226 -64l-6 167c48.667 0 73 27.333 73 82c0 26.667 -8.5 45.334 -25.5 56.001
s-45.833 17.667 -86.5 21l27 143h211z" />
    <glyph glyph-name="egrave" unicode="&#xe8;" 
d="M540 -20c-145.333 0 -258.666 43.332 -339.999 129.999s-122 210.667 -122 372v86c0 170.667 37.333 302.334 112 395.001s181.667 139 321 139c136 0 238.333 -43.5 307 -130.5s103.667 -215.833 105 -386.5v-139h-563c4 -80 21.667 -138.5 53 -175.5
s79.666 -55.5 144.999 -55.5c94.667 0 173.667 32.333 237 97l111 -171c-34.667 -48 -85 -86.833 -151 -116.5s-137.667 -44.5 -215 -44.5zM362 643.999h282.999v26c-1.33301 64.667 -12 113.667 -32 147s-54.667 50 -104 50s-85.166 -17.667 -107.499 -53
s-35.5 -92 -39.5 -170zM616.999 1226h-239l-276 310h317z" />
    <glyph glyph-name="eacute" unicode="&#xe9;" 
d="M540 -20c-145.333 0 -258.666 43.332 -339.999 129.999s-122 210.667 -122 372v86c0 170.667 37.333 302.334 112 395.001s181.667 139 321 139c136 0 238.333 -43.5 307 -130.5s103.667 -215.833 105 -386.5v-139h-563c4 -80 21.667 -138.5 53 -175.5
s79.666 -55.5 144.999 -55.5c94.667 0 173.667 32.333 237 97l111 -171c-34.667 -48 -85 -86.833 -151 -116.5s-137.667 -44.5 -215 -44.5zM362 643.999h282.999v26c-1.33301 64.667 -12 113.667 -32 147s-54.667 50 -104 50s-85.166 -17.667 -107.499 -53
s-35.5 -92 -39.5 -170zM529.999 1536h318l-278 -310h-236z" />
    <glyph glyph-name="ecircumflex" unicode="&#xea;" 
d="M540 -20c-145.333 0 -258.666 43.332 -339.999 129.999s-122 210.667 -122 372v86c0 170.667 37.333 302.334 112 395.001s181.667 139 321 139c136 0 238.333 -43.5 307 -130.5s103.667 -215.833 105 -386.5v-139h-563c4 -80 21.667 -138.5 53 -175.5
s79.666 -55.5 144.999 -55.5c94.667 0 173.667 32.333 237 97l111 -171c-34.667 -48 -85 -86.833 -151 -116.5s-137.667 -44.5 -215 -44.5zM362 643.999h282.999v26c-1.33301 64.667 -12 113.667 -32 147s-54.667 50 -104 50s-85.166 -17.667 -107.499 -53
s-35.5 -92 -39.5 -170zM818.999 1256v-12h-221l-125 144l-125 -144h-216v16l260 276h162z" />
    <glyph glyph-name="edieresis" unicode="&#xeb;" 
d="M540 -20c-145.333 0 -258.666 43.332 -339.999 129.999s-122 210.667 -122 372v86c0 170.667 37.333 302.334 112 395.001s181.667 139 321 139c136 0 238.333 -43.5 307 -130.5s103.667 -215.833 105 -386.5v-139h-563c4 -80 21.667 -138.5 53 -175.5
s79.666 -55.5 144.999 -55.5c94.667 0 173.667 32.333 237 97l111 -171c-34.667 -48 -85 -86.833 -151 -116.5s-137.667 -44.5 -215 -44.5zM362 643.999h282.999v26c-1.33301 64.667 -12 113.667 -32 147s-54.667 50 -104 50s-85.166 -17.667 -107.499 -53
s-35.5 -92 -39.5 -170zM89.999 1365c0 36.667 13.5 67.167 40.5 91.5s59.833 36.5 98.5 36.5s71.5 -12.167 98.5 -36.5s40.5 -54.833 40.5 -91.5c0 -36 -13.5 -66.167 -40.5 -90.5s-59.833 -36.5 -98.5 -36.5s-71.5 12.167 -98.5 36.5s-40.5 54.5 -40.5 90.5zM578.999 1365
c0 36 13.5 66.167 40.5 90.5s59.833 36.5 98.5 36.5s71.5 -12.167 98.5 -36.5s40.5 -54.5 40.5 -90.5c0 -34.667 -12.833 -64.5 -38.5 -89.5s-59.167 -37.5 -100.5 -37.5s-74.833 12.5 -100.5 37.5s-38.5 54.833 -38.5 89.5z" />
    <glyph glyph-name="igrave" unicode="&#xec;" horiz-adv-x="537" 
d="M407 0h-283v1082h283v-1082zM413 1211h-239l-276 310h317z" />
    <glyph glyph-name="iacute" unicode="&#xed;" horiz-adv-x="537" 
d="M407 0h-283v1082h283v-1082zM325 1521h318l-278 -310h-236z" />
    <glyph glyph-name="icircumflex" unicode="&#xee;" horiz-adv-x="537" 
d="M407 0h-283v1082h283v-1082zM615 1241v-12h-221l-125 144l-125 -144h-216v16l260 276h162z" />
    <glyph glyph-name="idieresis" unicode="&#xef;" horiz-adv-x="537" 
d="M407 0h-283v1082h283v-1082zM-115 1350c0 36.667 13.5 67.167 40.5 91.5s59.833 36.5 98.5 36.5s71.5 -12.167 98.5 -36.5s40.5 -54.833 40.5 -91.5c0 -36 -13.5 -66.167 -40.5 -90.5s-59.833 -36.5 -98.5 -36.5s-71.5 12.167 -98.5 36.5s-40.5 54.5 -40.5 90.5z
M374 1350c0 36 13.5 66.167 40.5 90.5s59.833 36.5 98.5 36.5s71.5 -12.167 98.5 -36.5s40.5 -54.5 40.5 -90.5c0 -34.667 -12.833 -64.5 -38.5 -89.5s-59.167 -37.5 -100.5 -37.5s-74.833 12.5 -100.5 37.5s-38.5 54.833 -38.5 89.5z" />
    <glyph glyph-name="eth" unicode="&#xf0;" horiz-adv-x="1029" 
d="M733 1307c70.667 -82 126 -178.169 166 -288.502s60 -233.166 60 -368.499v-72c0 -114.667 -19.333 -217.667 -58 -309s-92.667 -162.333 -162 -213s-147 -76 -233 -76c-82 0 -156 21.167 -222 63.5s-117.333 101 -154 176s-55 157.833 -55 248.5
c0 151.333 34.333 272 103 362s162.334 135 281.001 135c68 0 129 -20 183 -60c-28.667 95.333 -71.334 176 -128.001 242l-154 -114l-73 114l128 94c-63.333 48.667 -135.333 86.334 -216 113.001l89 225c132 -32.667 248 -91 348 -175l141 104l72 -115zM676 651.998l-1 19
c-33.333 49.333 -83.333 74 -150 74c-53.333 0 -94.333 -24.167 -123 -72.5s-43 -116.5 -43 -204.5c0 -74.667 14 -135.5 42 -182.5s64.333 -70.5 109 -70.5c52 0 92.667 30.167 122 90.5s44 142.833 44 247.5v99z" />
    <glyph glyph-name="ntilde" unicode="&#xf1;" horiz-adv-x="1008" 
d="M362 1082l8 -107c64 84.667 147.667 127 251 127c186 0 281.667 -130.333 287 -391v-711h-284v690c0 61.333 -9.16699 105.833 -27.5 133.5s-50.5 41.5 -96.5 41.5c-51.333 0 -91.333 -26.333 -120 -79v-786h-284v1082h266zM827 1522
c0 -74 -18.8379 -136.833 -56.5049 -188.5s-85.167 -77.5 -142.5 -77.5c-21.333 0 -40.166 3 -56.499 9s-39.333 18.333 -69 37s-50.667 30 -63 34s-25.833 6 -40.5 6c-18 0 -33 -8.16699 -45 -24.5s-18 -39.833 -18 -70.5l-160 9c0 74 19 137.167 57 189.5
s84.667 78.5 140 78.5c14.667 0 28.834 -2.16699 42.501 -6.5s37.334 -16 71.001 -35s57.834 -31 72.501 -36s29.334 -7.5 44.001 -7.5c17.333 0 32.5 8.16699 45.5 24.5s19.5 39.833 19.5 70.5z" />
    <glyph glyph-name="ograve" unicode="&#xf2;" horiz-adv-x="1019" 
d="M70 576c0 164 38.667 292.667 116 386s184.333 140 321 140c138 0 245.667 -46.667 323 -140s116 -222.666 116 -387.999v-69c0 -164.667 -38.333 -293.334 -115 -386.001s-184 -139 -322 -139c-138.667 0 -246.5 46.5 -323.5 139.5s-115.5 222.167 -115.5 387.5v69z
M354 505c0 -193.333 51.668 -290 155.001 -290c95.333 0 146.666 80.667 153.999 242l1 119c0 98.667 -13.667 171.834 -41 219.501s-66 71.5 -116 71.5c-48 0 -85.5 -23.833 -112.5 -71.5s-40.5 -120.834 -40.5 -219.501v-71zM649.001 1226h-239l-276 310h317z" />
    <glyph glyph-name="oacute" unicode="&#xf3;" horiz-adv-x="1019" 
d="M70 576c0 164 38.667 292.667 116 386s184.333 140 321 140c138 0 245.667 -46.667 323 -140s116 -222.666 116 -387.999v-69c0 -164.667 -38.333 -293.334 -115 -386.001s-184 -139 -322 -139c-138.667 0 -246.5 46.5 -323.5 139.5s-115.5 222.167 -115.5 387.5v69z
M354 505c0 -193.333 51.668 -290 155.001 -290c95.333 0 146.666 80.667 153.999 242l1 119c0 98.667 -13.667 171.834 -41 219.501s-66 71.5 -116 71.5c-48 0 -85.5 -23.833 -112.5 -71.5s-40.5 -120.834 -40.5 -219.501v-71zM562.001 1536h318l-278 -310h-236z" />
    <glyph glyph-name="ocircumflex" unicode="&#xf4;" horiz-adv-x="1019" 
d="M70 576c0 164 38.667 292.667 116 386s184.333 140 321 140c138 0 245.667 -46.667 323 -140s116 -222.666 116 -387.999v-69c0 -164.667 -38.333 -293.334 -115 -386.001s-184 -139 -322 -139c-138.667 0 -246.5 46.5 -323.5 139.5s-115.5 222.167 -115.5 387.5v69z
M354 505c0 -193.333 51.668 -290 155.001 -290c95.333 0 146.666 80.667 153.999 242l1 119c0 98.667 -13.667 171.834 -41 219.501s-66 71.5 -116 71.5c-48 0 -85.5 -23.833 -112.5 -71.5s-40.5 -120.834 -40.5 -219.501v-71zM851.001 1256v-12h-221l-125 144l-125 -144
h-216v16l260 276h162z" />
    <glyph glyph-name="otilde" unicode="&#xf5;" horiz-adv-x="1019" 
d="M70 576c0 164 38.667 292.667 116 386s184.333 140 321 140c138 0 245.667 -46.667 323 -140s116 -222.666 116 -387.999v-69c0 -164.667 -38.333 -293.334 -115 -386.001s-184 -139 -322 -139c-138.667 0 -246.5 46.5 -323.5 139.5s-115.5 222.167 -115.5 387.5v69z
M354 505c0 -193.333 51.668 -290 155.001 -290c95.333 0 146.666 80.667 153.999 242l1 119c0 98.667 -13.667 171.834 -41 219.501s-66 71.5 -116 71.5c-48 0 -85.5 -23.833 -112.5 -71.5s-40.5 -120.834 -40.5 -219.501v-71zM829.001 1522
c0 -74 -18.8379 -136.833 -56.5049 -188.5s-85.167 -77.5 -142.5 -77.5c-21.333 0 -40.166 3 -56.499 9s-39.333 18.333 -69 37s-50.667 30 -63 34s-25.833 6 -40.5 6c-18 0 -33 -8.16699 -45 -24.5s-18 -39.833 -18 -70.5l-160 9c0 74 19 137.167 57 189.5
s84.667 78.5 140 78.5c14.667 0 28.834 -2.16699 42.501 -6.5s37.334 -16 71.001 -35s57.834 -31 72.501 -36s29.334 -7.5 44.001 -7.5c17.333 0 32.5 8.16699 45.5 24.5s19.5 39.833 19.5 70.5z" />
    <glyph glyph-name="odieresis" unicode="&#xf6;" horiz-adv-x="1019" 
d="M70 576c0 164 38.667 292.667 116 386s184.333 140 321 140c138 0 245.667 -46.667 323 -140s116 -222.666 116 -387.999v-69c0 -164.667 -38.333 -293.334 -115 -386.001s-184 -139 -322 -139c-138.667 0 -246.5 46.5 -323.5 139.5s-115.5 222.167 -115.5 387.5v69z
M354 505c0 -193.333 51.668 -290 155.001 -290c95.333 0 146.666 80.667 153.999 242l1 119c0 98.667 -13.667 171.834 -41 219.501s-66 71.5 -116 71.5c-48 0 -85.5 -23.833 -112.5 -71.5s-40.5 -120.834 -40.5 -219.501v-71zM121.001 1365c0 36.667 13.5 67.167 40.5 91.5
s59.833 36.5 98.5 36.5s71.5 -12.167 98.5 -36.5s40.5 -54.833 40.5 -91.5c0 -36 -13.5 -66.167 -40.5 -90.5s-59.833 -36.5 -98.5 -36.5s-71.5 12.167 -98.5 36.5s-40.5 54.5 -40.5 90.5zM610.001 1365c0 36 13.5 66.167 40.5 90.5s59.833 36.5 98.5 36.5
s71.5 -12.167 98.5 -36.5s40.5 -54.5 40.5 -90.5c0 -34.667 -12.833 -64.5 -38.5 -89.5s-59.167 -37.5 -100.5 -37.5s-74.833 12.5 -100.5 37.5s-38.5 54.833 -38.5 89.5z" />
    <glyph glyph-name="divide" unicode="&#xf7;" horiz-adv-x="1023" 
d="M941 570h-870v232h870v-232zM349 1089c0 44.667 14.166 81.167 42.499 109.5s66.166 42.5 113.499 42.5c48.667 0 86.834 -14.333 114.501 -43s41.5 -65 41.5 -109s-14 -80.167 -42 -108.5s-66 -42.5 -114 -42.5c-47.333 0 -85.166 14.167 -113.499 42.5
s-42.5 64.5 -42.5 108.5zM348.999 277c0 46 14.667 83 44 111s66.666 42 111.999 42c46 0 83.5 -14 112.5 -42s43.5 -65 43.5 -111c0 -44 -14 -80.167 -42 -108.5s-66 -42.5 -114 -42.5c-47.333 0 -85.166 14.167 -113.499 42.5s-42.5 64.5 -42.5 108.5z" />
    <glyph glyph-name="oslash" unicode="&#xf8;" horiz-adv-x="1017" 
d="M71 551c0 168 39.666 301.833 118.999 401.5s185 149.5 317 149.5c52.667 0 102.334 -8.33301 149.001 -25l57 139h152l-87 -212c112 -98.667 168 -256.667 168 -474c0 -167.333 -39.333 -300.833 -118 -400.5s-185 -149.5 -319 -149.5c-52 0 -99.333 7.33301 -142 22
l-59 -144h-152l88 214c-115.333 99.333 -173 259 -173 479zM353.999 530c0 -66.667 4.33398 -119 13.001 -157l197 480c-17.333 9.33301 -36.333 14 -57 14c-92.667 0 -143.334 -89.333 -152.001 -268zM663 551c0 52.667 -4 101 -12 145l-193 -471
c14 -6.66699 31 -10 51 -10c93.333 0 144.333 88 153 264z" />
    <glyph glyph-name="ugrave" unicode="&#xf9;" horiz-adv-x="1008" 
d="M635 99c-58.667 -79.333 -137.335 -119 -236.002 -119c-99.333 0 -174.666 34.167 -225.999 102.5s-77 167.833 -77 298.5v701h283v-708c1.33301 -105.333 36.333 -158 105 -158c64.667 0 111.334 28 140.001 84v782h285v-1082h-266zM642.999 1226h-239l-276 310h317z
" />
    <glyph glyph-name="uacute" unicode="&#xfa;" horiz-adv-x="1008" 
d="M635 99c-58.667 -79.333 -137.335 -119 -236.002 -119c-99.333 0 -174.666 34.167 -225.999 102.5s-77 167.833 -77 298.5v701h283v-708c1.33301 -105.333 36.333 -158 105 -158c64.667 0 111.334 28 140.001 84v782h285v-1082h-266zM555.999 1536h318l-278 -310h-236z
" />
    <glyph glyph-name="ucircumflex" unicode="&#xfb;" horiz-adv-x="1008" 
d="M635 99c-58.667 -79.333 -137.335 -119 -236.002 -119c-99.333 0 -174.666 34.167 -225.999 102.5s-77 167.833 -77 298.5v701h283v-708c1.33301 -105.333 36.333 -158 105 -158c64.667 0 111.334 28 140.001 84v782h285v-1082h-266zM844.999 1256v-12h-221l-125 144
l-125 -144h-216v16l260 276h162z" />
    <glyph glyph-name="udieresis" unicode="&#xfc;" horiz-adv-x="1008" 
d="M635 99c-58.667 -79.333 -137.335 -119 -236.002 -119c-99.333 0 -174.666 34.167 -225.999 102.5s-77 167.833 -77 298.5v701h283v-708c1.33301 -105.333 36.333 -158 105 -158c64.667 0 111.334 28 140.001 84v782h285v-1082h-266zM114.999 1365
c0 36.667 13.5 67.167 40.5 91.5s59.833 36.5 98.5 36.5s71.5 -12.167 98.5 -36.5s40.5 -54.833 40.5 -91.5c0 -36 -13.5 -66.167 -40.5 -90.5s-59.833 -36.5 -98.5 -36.5s-71.5 12.167 -98.5 36.5s-40.5 54.5 -40.5 90.5zM603.999 1365c0 36 13.5 66.167 40.5 90.5
s59.833 36.5 98.5 36.5s71.5 -12.167 98.5 -36.5s40.5 -54.5 40.5 -90.5c0 -34.667 -12.833 -64.5 -38.5 -89.5s-59.167 -37.5 -100.5 -37.5s-74.833 12.5 -100.5 37.5s-38.5 54.833 -38.5 89.5z" />
    <glyph glyph-name="yacute" unicode="&#xfd;" horiz-adv-x="914" 
d="M450 471l144 611h302l-356 -1244c-53.333 -183.333 -153.666 -275 -300.999 -275c-34 0 -72.667 6.33301 -116 19v221l33 -1c44 0 77.167 8.5 99.5 25.5s39.166 46.5 50.499 88.5l22 73l-312 1093h304zM515 1536h318l-278 -310h-236z" />
    <glyph glyph-name="thorn" unicode="&#xfe;" horiz-adv-x="1022" 
d="M948 532c0 -167.333 -32 -301.167 -96 -401.5s-150.333 -150.5 -259 -150.5c-84 0 -152.333 30.667 -205 92v-488h-283v1952h283v-523c52.667 59.333 120 89 202 89c112.667 0 200.5 -48.5 263.5 -145.5s94.5 -238.5 94.5 -424.5zM665 552.999
c0 208 -50.333 312 -151 312c-58 0 -100 -28 -126 -84v-485c25.333 -54 68 -81 128 -81c49.333 0 86.5 26.667 111.5 80s37.5 139.333 37.5 258z" />
    <glyph glyph-name="ydieresis" unicode="&#xff;" horiz-adv-x="914" 
d="M450 471l144 611h302l-356 -1244c-53.333 -183.333 -153.666 -275 -300.999 -275c-34 0 -72.667 6.33301 -116 19v221l33 -1c44 0 77.167 8.5 99.5 25.5s39.166 46.5 50.499 88.5l22 73l-312 1093h304zM75 1365c0 36.667 13.5 67.167 40.5 91.5s59.833 36.5 98.5 36.5
s71.5 -12.167 98.5 -36.5s40.5 -54.833 40.5 -91.5c0 -36 -13.5 -66.167 -40.5 -90.5s-59.833 -36.5 -98.5 -36.5s-71.5 12.167 -98.5 36.5s-40.5 54.5 -40.5 90.5zM564 1365c0 36 13.5 66.167 40.5 90.5s59.833 36.5 98.5 36.5s71.5 -12.167 98.5 -36.5
s40.5 -54.5 40.5 -90.5c0 -34.667 -12.833 -64.5 -38.5 -89.5s-59.167 -37.5 -100.5 -37.5s-74.833 12.5 -100.5 37.5s-38.5 54.833 -38.5 89.5z" />
    <glyph glyph-name="Amacron" unicode="&#x100;" horiz-adv-x="1223" 
d="M812 298h-401l-78 -298h-311l455 1456h269l458 -1456h-314zM475 543h272l-136 519zM915 1595h-600v168h600v-168z" />
    <glyph glyph-name="amacron" unicode="&#x101;" horiz-adv-x="964" 
d="M617 0c-8 16.667 -15.9971 44.668 -23.9971 84.001c-50.667 -69.333 -119.334 -104 -206.001 -104c-90.667 0 -165.834 30 -225.501 90s-89.5 137.667 -89.5 233c0 113.333 36.167 201 108.5 263s176.5 93.667 312.5 95h86v87c0 48.667 -8.33301 83 -25 103
s-41 30 -73 30c-70.667 0 -106 -41.333 -106 -124h-283c0 100 37.5 182.5 112.5 247.5s169.833 97.5 284.5 97.5c118.667 0 210.5 -30.833 275.5 -92.5s97.5 -149.834 97.5 -264.501v-509c1.33301 -93.333 14.666 -166.333 39.999 -219v-17h-285zM450.003 202.001
c31.333 0 58 6.33301 80 19s38.333 27.667 49 45v225h-68c-48 0 -85.833 -15.333 -113.5 -46s-41.5 -71.667 -41.5 -123c0 -80 31.333 -120 94 -120zM779.003 1286h-600v168h600v-168z" />
    <glyph glyph-name="Abreve" unicode="&#x102;" horiz-adv-x="1223" 
d="M812 298h-401l-78 -298h-311l455 1456h269l458 -1456h-314zM475 543h272l-136 519zM962 1837c0 -88.667 -31.832 -160.334 -95.499 -215.001s-147.5 -82 -251.5 -82c-104.667 0 -188.834 27.333 -252.501 82s-95.5 126.334 -95.5 215.001h207
c0 -41.333 12.5 -73.5 37.5 -96.5s59.5 -34.5 103.5 -34.5c43.333 0 77.333 11.5 102 34.5s37 55.167 37 96.5h208z" />
    <glyph glyph-name="abreve" unicode="&#x103;" horiz-adv-x="964" 
d="M617 0c-8 16.667 -15.9971 44.668 -23.9971 84.001c-50.667 -69.333 -119.334 -104 -206.001 -104c-90.667 0 -165.834 30 -225.501 90s-89.5 137.667 -89.5 233c0 113.333 36.167 201 108.5 263s176.5 93.667 312.5 95h86v87c0 48.667 -8.33301 83 -25 103
s-41 30 -73 30c-70.667 0 -106 -41.333 -106 -124h-283c0 100 37.5 182.5 112.5 247.5s169.833 97.5 284.5 97.5c118.667 0 210.5 -30.833 275.5 -92.5s97.5 -149.834 97.5 -264.501v-509c1.33301 -93.333 14.666 -166.333 39.999 -219v-17h-285zM450.003 202.001
c31.333 0 58 6.33301 80 19s38.333 27.667 49 45v225h-68c-48 0 -85.833 -15.333 -113.5 -46s-41.5 -71.667 -41.5 -123c0 -80 31.333 -120 94 -120zM826.003 1527c0 -88.667 -31.832 -160.334 -95.499 -215.001s-147.5 -82 -251.5 -82
c-104.667 0 -188.834 27.333 -252.501 82s-95.5 126.334 -95.5 215.001h207c0 -41.333 12.5 -73.5 37.5 -96.5s59.5 -34.5 103.5 -34.5c43.333 0 77.333 11.5 102 34.5s37 55.167 37 96.5h208z" />
    <glyph glyph-name="Aogonek" unicode="&#x104;" horiz-adv-x="1223" 
d="M746 1456l457.999 -1456h-86c-42.667 -28 -74 -55.333 -94 -82s-30 -57.667 -30 -93c0 -43.333 17 -65 51 -65c16.667 0 37.334 6.66699 62.001 20l27 -158c-43.333 -29.333 -92 -44 -146 -44c-60.667 0 -109.667 19 -147 57s-56 88.667 -56 152
c0 92.667 34.333 165.667 103 219l-76 292h-401l-78 -298h-311l455 1456h269zM474.999 543h272l-136 519z" />
    <glyph glyph-name="aogonek" unicode="&#x105;" horiz-adv-x="964" 
d="M616 1c-6.66699 14.667 -14.3311 42.334 -22.998 83.001c-50.667 -69.333 -119.334 -104 -206.001 -104c-90.667 0 -165.834 30 -225.501 90s-89.5 137.667 -89.5 233c0 113.333 36.167 201 108.5 263s176.5 93.667 312.5 95h86v87c0 48.667 -8.33301 83 -25 103
s-41 30 -73 30c-70.667 0 -106 -41.333 -106 -124h-283c0 100 37.5 182.5 112.5 247.5s169.833 97.5 284.5 97.5c118.667 0 210.5 -30.833 275.5 -92.5s97.5 -149.834 97.5 -264.501v-509c1.33301 -93.333 14.666 -166.333 39.999 -219v-17h-49
c-42.667 -28 -74 -55.333 -94 -82s-30 -57.667 -30 -93c0 -43.333 17 -65 51 -65c16.667 0 37.334 6.66699 62.001 20l27 -158c-43.333 -29.333 -92 -44 -146 -44c-60.667 0 -109.667 19 -147 57s-56 88.667 -56 152c0 88.667 32 160 96 214zM450.003 202
c31.333 0 58 6.33301 80 19s38.333 27.667 49 45v225h-68c-48 0 -85.833 -15.333 -113.5 -46s-41.5 -71.667 -41.5 -123c0 -80 31.333 -120 94 -120z" />
    <glyph glyph-name="Cacute" unicode="&#x106;" horiz-adv-x="1168" 
d="M1104 485c-7.33301 -166 -53.9961 -291.668 -139.996 -377.001s-207.333 -128 -364 -128c-164.667 0 -290.834 54.167 -378.501 162.5s-131.5 262.833 -131.5 463.5v245c0 200 45.333 354.167 136 462.5s216.667 162.5 378 162.5c158.667 0 279.167 -44.333 361.5 -133
s129.166 -216 140.499 -382h-295c-2.66699 102.667 -18.5 173.5 -47.5 212.5s-82.167 58.5 -159.5 58.5c-78.667 0 -134.334 -27.5 -167.001 -82.5s-50 -145.5 -52 -271.5v-275c0 -144.667 16.167 -244 48.5 -298s87.833 -81 166.5 -81
c77.333 0 130.666 18.833 159.999 56.5s46 105.834 50 204.501h294zM657.004 1854h318l-278 -310h-236z" />
    <glyph glyph-name="cacute" unicode="&#x107;" horiz-adv-x="942" 
d="M494 215c82 0 123.663 53.3311 124.996 159.998h266c-1.33301 -118 -37.666 -213.333 -108.999 -286s-163.333 -109 -276 -109c-139.333 0 -245.666 43.333 -318.999 130s-110.666 214.334 -111.999 383.001v86c0 170 36.167 299.667 108.5 389s179.166 134 320.499 134
c119.333 0 213.333 -36.833 282 -110.5s103.667 -178.167 105 -313.5h-266c-0.666992 60.667 -10.667 107.334 -30 140.001s-51.333 49 -96 49c-49.333 0 -84.666 -17.5 -105.999 -52.5s-32.666 -102.833 -33.999 -203.5v-110c0 -88 4.33301 -149.5 13 -184.5
s23 -60.667 43 -77s48.333 -24.5 85 -24.5zM522.996 1536h318l-278 -310h-236z" />
    <glyph glyph-name="Ccircumflex" unicode="&#x108;" horiz-adv-x="1168" 
d="M1104 485c-7.33301 -166 -53.9961 -291.668 -139.996 -377.001s-207.333 -128 -364 -128c-164.667 0 -290.834 54.167 -378.501 162.5s-131.5 262.833 -131.5 463.5v245c0 200 45.333 354.167 136 462.5s216.667 162.5 378 162.5c158.667 0 279.167 -44.333 361.5 -133
s129.166 -216 140.499 -382h-295c-2.66699 102.667 -18.5 173.5 -47.5 212.5s-82.167 58.5 -159.5 58.5c-78.667 0 -134.334 -27.5 -167.001 -82.5s-50 -145.5 -52 -271.5v-275c0 -144.667 16.167 -244 48.5 -298s87.833 -81 166.5 -81
c77.333 0 130.666 18.833 159.999 56.5s46 105.834 50 204.501h294zM946.004 1574v-12h-221l-125 144l-125 -144h-216v16l260 276h162z" />
    <glyph glyph-name="ccircumflex" unicode="&#x109;" horiz-adv-x="942" 
d="M494 215c82 0 123.663 53.3311 124.996 159.998h266c-1.33301 -118 -37.666 -213.333 -108.999 -286s-163.333 -109 -276 -109c-139.333 0 -245.666 43.333 -318.999 130s-110.666 214.334 -111.999 383.001v86c0 170 36.167 299.667 108.5 389s179.166 134 320.499 134
c119.333 0 213.333 -36.833 282 -110.5s103.667 -178.167 105 -313.5h-266c-0.666992 60.667 -10.667 107.334 -30 140.001s-51.333 49 -96 49c-49.333 0 -84.666 -17.5 -105.999 -52.5s-32.666 -102.833 -33.999 -203.5v-110c0 -88 4.33301 -149.5 13 -184.5
s23 -60.667 43 -77s48.333 -24.5 85 -24.5zM811.996 1256v-12h-221l-125 144l-125 -144h-216v16l260 276h162z" />
    <glyph glyph-name="Cdotaccent" unicode="&#x10a;" horiz-adv-x="1168" 
d="M1104 485c-7.33301 -166 -53.9961 -291.668 -139.996 -377.001s-207.333 -128 -364 -128c-164.667 0 -290.834 54.167 -378.501 162.5s-131.5 262.833 -131.5 463.5v245c0 200 45.333 354.167 136 462.5s216.667 162.5 378 162.5c158.667 0 279.167 -44.333 361.5 -133
s129.166 -216 140.499 -382h-295c-2.66699 102.667 -18.5 173.5 -47.5 212.5s-82.167 58.5 -159.5 58.5c-78.667 0 -134.334 -27.5 -167.001 -82.5s-50 -145.5 -52 -271.5v-275c0 -144.667 16.167 -244 48.5 -298s87.833 -81 166.5 -81
c77.333 0 130.666 18.833 159.999 56.5s46 105.834 50 204.501h294zM451.004 1710c0 41.333 14 74.666 42 99.999s63.667 38 107 38s79 -12.667 107 -38s42 -58.666 42 -99.999c0 -40 -13.333 -72.667 -40 -98s-63 -38 -109 -38s-82.333 12.667 -109 38s-40 58 -40 98z" />
    <glyph glyph-name="cdotaccent" unicode="&#x10b;" horiz-adv-x="942" 
d="M494 215c82 0 123.663 53.3311 124.996 159.998h266c-1.33301 -118 -37.666 -213.333 -108.999 -286s-163.333 -109 -276 -109c-139.333 0 -245.666 43.333 -318.999 130s-110.666 214.334 -111.999 383.001v86c0 170 36.167 299.667 108.5 389s179.166 134 320.499 134
c119.333 0 213.333 -36.833 282 -110.5s103.667 -178.167 105 -313.5h-266c-0.666992 60.667 -10.667 107.334 -30 140.001s-51.333 49 -96 49c-49.333 0 -84.666 -17.5 -105.999 -52.5s-32.666 -102.833 -33.999 -203.5v-110c0 -88 4.33301 -149.5 13 -184.5
s23 -60.667 43 -77s48.333 -24.5 85 -24.5zM316.996 1392c0 41.333 14 74.666 42 99.999s63.667 38 107 38s79 -12.667 107 -38s42 -58.666 42 -99.999c0 -40 -13.333 -72.667 -40 -98s-63 -38 -109 -38s-82.333 12.667 -109 38s-40 58 -40 98z" />
    <glyph glyph-name="Ccaron" unicode="&#x10c;" horiz-adv-x="1168" 
d="M1104 485c-7.33301 -166 -53.9961 -291.668 -139.996 -377.001s-207.333 -128 -364 -128c-164.667 0 -290.834 54.167 -378.501 162.5s-131.5 262.833 -131.5 463.5v245c0 200 45.333 354.167 136 462.5s216.667 162.5 378 162.5c158.667 0 279.167 -44.333 361.5 -133
s129.166 -216 140.499 -382h-295c-2.66699 102.667 -18.5 173.5 -47.5 212.5s-82.167 58.5 -159.5 58.5c-78.667 0 -134.334 -27.5 -167.001 -82.5s-50 -145.5 -52 -271.5v-275c0 -144.667 16.167 -244 48.5 -298s87.833 -81 166.5 -81
c77.333 0 130.666 18.833 159.999 56.5s46 105.834 50 204.501h294zM600.004 1713l116 142h240v-11l-268 -281h-176l-267 283v9h240z" />
    <glyph glyph-name="ccaron" unicode="&#x10d;" horiz-adv-x="942" 
d="M494 215c82 0 123.663 53.3311 124.996 159.998h266c-1.33301 -118 -37.666 -213.333 -108.999 -286s-163.333 -109 -276 -109c-139.333 0 -245.666 43.333 -318.999 130s-110.666 214.334 -111.999 383.001v86c0 170 36.167 299.667 108.5 389s179.166 134 320.499 134
c119.333 0 213.333 -36.833 282 -110.5s103.667 -178.167 105 -313.5h-266c-0.666992 60.667 -10.667 107.334 -30 140.001s-51.333 49 -96 49c-49.333 0 -84.666 -17.5 -105.999 -52.5s-32.666 -102.833 -33.999 -203.5v-110c0 -88 4.33301 -149.5 13 -184.5
s23 -60.667 43 -77s48.333 -24.5 85 -24.5zM465.996 1395l116 142h240v-11l-268 -281h-176l-267 283v9h240z" />
    <glyph glyph-name="Dcaron" unicode="&#x10e;" horiz-adv-x="1157" 
d="M117 0v1456h385c170 0 305.5 -54 406.5 -162s152.5 -256 154.5 -444v-236c0 -191.333 -50.5 -341.5 -151.5 -450.5s-240.167 -163.5 -417.5 -163.5h-377zM411 1211v-967.002h88c98 0 167 25.833 207 77.5s61 140.834 63 267.501v253c0 136 -19 230.833 -57 284.5
s-102.667 81.834 -194 84.501h-107zM450 1708l116 142h240v-11l-268 -281h-176l-267 283v9h240z" />
    <glyph glyph-name="dcaron" unicode="&#x10f;" horiz-adv-x="1165" 
d="M65 574c0 177.333 30.001 309.667 90.001 397s147.333 131 262 131c83.333 0 152.666 -36 207.999 -108v542h285v-1536h-257l-13 110c-58 -86.667 -132.667 -130 -224 -130c-113.333 0 -199.833 43.333 -259.5 130s-90.167 214 -91.5 382v82zM349.001 503.001
c0 -106.667 11.333 -181.167 34 -223.5s61 -63.5 115 -63.5c56 0 98.333 25 127 75v494c-28 53.333 -70 80 -126 80c-52 0 -90 -21 -114 -63s-36 -116.667 -36 -224v-75zM1107 1112l-138 79c41.333 79.333 63 159.333 65 240v106h204v-76
c-0.666992 -60.667 -13.167 -123.5 -37.5 -188.5s-55.5 -118.5 -93.5 -160.5z" />
    <glyph glyph-name="Dcroat" unicode="&#x110;" horiz-adv-x="1187" 
d="M147 0v641h-156v183h156v632h385c170 0 305.5 -54 406.5 -162s152.5 -256 154.5 -444v-236c0 -191.333 -50.5 -341.5 -151.5 -450.5s-240.167 -163.5 -417.5 -163.5h-377zM598 641h-157v-397h102c92.667 2 158 29.167 196 81.5s58 141.166 60 266.499v250
c0 136 -19 230.833 -57 284.5s-102.667 81.834 -194 84.501h-107v-387h157v-183z" />
    <glyph glyph-name="dcroat" unicode="&#x111;" horiz-adv-x="1153" 
d="M1041 1218h-131v-1218h-256l-12 96c-57.333 -77.333 -130.333 -116 -219 -116c-108 0 -194.667 50 -260 150s-98 239.667 -98 419c0 168.667 31.833 303 95.5 403s151.5 150 263.5 150c80 0 147 -31.333 201 -94v210h-191v183h191v135h285v-135h131v-183zM349 528
c0 -208 49.668 -312 149.001 -312c57.333 0 99.666 29 126.999 87v469c-27.333 62 -69.333 93 -126 93c-48 0 -85 -26 -111 -78s-39 -138.333 -39 -259z" />
    <glyph glyph-name="Emacron" unicode="&#x112;" horiz-adv-x="1005" 
d="M869 630h-458v-386h542v-244h-836v1456h834v-245h-540v-344h458v-237zM857 1598h-600v168h600v-168z" />
    <glyph glyph-name="emacron" unicode="&#x113;" 
d="M540 -20c-145.333 0 -258.666 43.332 -339.999 129.999s-122 210.667 -122 372v86c0 170.667 37.333 302.334 112 395.001s181.667 139 321 139c136 0 238.333 -43.5 307 -130.5s103.667 -215.833 105 -386.5v-139h-563c4 -80 21.667 -138.5 53 -175.5
s79.666 -55.5 144.999 -55.5c94.667 0 173.667 32.333 237 97l111 -171c-34.667 -48 -85 -86.833 -151 -116.5s-137.667 -44.5 -215 -44.5zM362 643.999h282.999v26c-1.33301 64.667 -12 113.667 -32 147s-54.667 50 -104 50s-85.166 -17.667 -107.499 -53
s-35.5 -92 -39.5 -170zM773.999 1286h-600v168h600v-168z" />
    <glyph glyph-name="Ebreve" unicode="&#x114;" horiz-adv-x="1005" 
d="M869 630h-458v-386h542v-244h-836v1456h834v-245h-540v-344h458v-237zM904 1840c0 -88.667 -31.832 -160.334 -95.499 -215.001s-147.5 -82 -251.5 -82c-104.667 0 -188.834 27.333 -252.501 82s-95.5 126.334 -95.5 215.001h207c0 -41.333 12.5 -73.5 37.5 -96.5
s59.5 -34.5 103.5 -34.5c43.333 0 77.333 11.5 102 34.5s37 55.167 37 96.5h208z" />
    <glyph glyph-name="ebreve" unicode="&#x115;" 
d="M540 -20c-145.333 0 -258.666 43.332 -339.999 129.999s-122 210.667 -122 372v86c0 170.667 37.333 302.334 112 395.001s181.667 139 321 139c136 0 238.333 -43.5 307 -130.5s103.667 -215.833 105 -386.5v-139h-563c4 -80 21.667 -138.5 53 -175.5
s79.666 -55.5 144.999 -55.5c94.667 0 173.667 32.333 237 97l111 -171c-34.667 -48 -85 -86.833 -151 -116.5s-137.667 -44.5 -215 -44.5zM362 643.999h282.999v26c-1.33301 64.667 -12 113.667 -32 147s-54.667 50 -104 50s-85.166 -17.667 -107.499 -53
s-35.5 -92 -39.5 -170zM820.999 1527c0 -88.667 -31.832 -160.334 -95.499 -215.001s-147.5 -82 -251.5 -82c-104.667 0 -188.834 27.333 -252.501 82s-95.5 126.334 -95.5 215.001h207c0 -41.333 12.5 -73.5 37.5 -96.5s59.5 -34.5 103.5 -34.5
c43.333 0 77.333 11.5 102 34.5s37 55.167 37 96.5h208z" />
    <glyph glyph-name="Edotaccent" unicode="&#x116;" horiz-adv-x="1005" 
d="M869 630h-458v-386h542v-244h-836v1456h834v-245h-540v-344h458v-237zM407 1705c0 41.333 14 74.666 42 99.999s63.667 38 107 38s79 -12.667 107 -38s42 -58.666 42 -99.999c0 -40 -13.333 -72.667 -40 -98s-63 -38 -109 -38s-82.333 12.667 -109 38s-40 58 -40 98z" />
    <glyph glyph-name="edotaccent" unicode="&#x117;" 
d="M540 -20c-145.333 0 -258.666 43.332 -339.999 129.999s-122 210.667 -122 372v86c0 170.667 37.333 302.334 112 395.001s181.667 139 321 139c136 0 238.333 -43.5 307 -130.5s103.667 -215.833 105 -386.5v-139h-563c4 -80 21.667 -138.5 53 -175.5
s79.666 -55.5 144.999 -55.5c94.667 0 173.667 32.333 237 97l111 -171c-34.667 -48 -85 -86.833 -151 -116.5s-137.667 -44.5 -215 -44.5zM362 643.999h282.999v26c-1.33301 64.667 -12 113.667 -32 147s-54.667 50 -104 50s-85.166 -17.667 -107.499 -53
s-35.5 -92 -39.5 -170zM323.999 1392c0 41.333 14 74.666 42 99.999s63.667 38 107 38s79 -12.667 107 -38s42 -58.666 42 -99.999c0 -40 -13.333 -72.667 -40 -98s-63 -38 -109 -38s-82.333 12.667 -109 38s-40 58 -40 98z" />
    <glyph glyph-name="Eogonek" unicode="&#x118;" horiz-adv-x="1005" 
d="M869 630h-458.001v-386h542v-244h-145c-42.667 -28 -74 -55.333 -94 -82s-30 -57.667 -30 -93c0 -43.333 17 -65 51 -65c16.667 0 37.334 6.66699 62.001 20l27 -158c-43.333 -29.333 -92 -44 -146 -44c-60.667 0 -109.667 19 -147 57s-56 88.667 -56 152
c0 88 31.667 159 95 213h-453v1456h834v-245h-540v-344h458v-237z" />
    <glyph glyph-name="eogonek" unicode="&#x119;" 
d="M906 141c-48.667 -63.333 -115 -108.666 -199 -135.999c-58 -44 -87 -93.333 -87 -148c0 -43.333 17 -65 51 -65c16.667 0 37.334 6.66699 62.001 20l27 -158c-43.333 -29.333 -92 -44 -146 -44c-60.667 0 -109.667 19 -147 57s-56 88.667 -56 152
c0 66 16.667 121.333 50 166c-124 15.333 -218.833 65.666 -284.5 150.999s-98.5 199.666 -98.5 342.999v89c0 170.667 37.333 302.334 112 395.001s181.667 139 321 139c136 0 238.333 -43.5 307 -130.5s103.667 -215.833 105 -386.5v-139h-563
c4 -80 21.667 -138.5 53 -175.5s79.666 -55.5 144.999 -55.5c94.667 0 173.667 32.333 237 97zM362 644h282.999v26c-1.33301 64.667 -12 113.667 -32 147s-54.667 50 -104 50s-85.166 -17.667 -107.499 -53s-35.5 -92 -39.5 -170z" />
    <glyph glyph-name="Ecaron" unicode="&#x11a;" horiz-adv-x="1005" 
d="M869 630h-458v-386h542v-244h-836v1456h834v-245h-540v-344h458v-237zM556 1708l116 142h240v-11l-268 -281h-176l-267 283v9h240z" />
    <glyph glyph-name="ecaron" unicode="&#x11b;" 
d="M540 -20c-145.333 0 -258.666 43.332 -339.999 129.999s-122 210.667 -122 372v86c0 170.667 37.333 302.334 112 395.001s181.667 139 321 139c136 0 238.333 -43.5 307 -130.5s103.667 -215.833 105 -386.5v-139h-563c4 -80 21.667 -138.5 53 -175.5
s79.666 -55.5 144.999 -55.5c94.667 0 173.667 32.333 237 97l111 -171c-34.667 -48 -85 -86.833 -151 -116.5s-137.667 -44.5 -215 -44.5zM362 643.999h282.999v26c-1.33301 64.667 -12 113.667 -32 147s-54.667 50 -104 50s-85.166 -17.667 -107.499 -53
s-35.5 -92 -39.5 -170zM472.999 1395l116 142h240v-11l-268 -281h-176l-267 283v9h240z" />
    <glyph glyph-name="Gcircumflex" unicode="&#x11c;" horiz-adv-x="1198" 
d="M1107 165c-56.667 -61.333 -126.167 -107.501 -208.5 -138.501s-172.5 -46.5 -270.5 -46.5c-167.333 0 -297.333 51.833 -390 155.5s-140.334 254.5 -143.001 452.5v262c0 200.667 43.833 355.167 131.5 463.5s215.5 162.5 383.5 162.5c158 0 277.167 -39 357.5 -117
s126.833 -200.333 139.5 -367h-286c-8 92.667 -27.333 155.834 -58 189.501s-78.667 50.5 -144 50.5c-79.333 0 -137 -29 -173 -87s-54.667 -150.333 -56 -277v-264c0 -132.667 19.833 -229.167 59.5 -289.5s104.834 -90.5 195.501 -90.5c58 0 105 11.667 141 35l26 18v267
h-206v222h501v-601zM949 1574v-12h-221l-125 144l-125 -144h-216v16l260 276h162z" />
    <glyph glyph-name="gcircumflex" unicode="&#x11d;" horiz-adv-x="1030" 
d="M69 574c0 177.333 31.9971 309.667 95.9971 397s153.667 131 269 131c98 0 173.667 -38.667 227 -116l11 96h255v-1082c0 -138 -38.667 -243.5 -116 -316.5s-188.333 -109.5 -333 -109.5c-59.333 0 -121.666 11.833 -186.999 35.5s-114 53.834 -146 90.501l95 196
c26.667 -28 61.334 -50.833 104.001 -68.5s83 -26.5 121 -26.5c63.333 0 108.833 15.167 136.5 45.5s41.834 79.166 42.501 146.499v93c-54 -70.667 -124.333 -106 -211 -106c-115.333 0 -204.5 44.833 -267.5 134.5s-95.167 216.167 -96.5 379.5v80zM351.997 503.001
c0 -100 12.999 -172.833 38.999 -218.5s67.333 -68.5 124 -68.5c58 0 101 21 129 63v517c-29.333 46 -71.666 69 -126.999 69c-56 0 -97.5 -23 -124.5 -69s-40.5 -120 -40.5 -222v-71zM828.996 1256v-12h-221l-125 144l-125 -144h-216v16l260 276h162z" />
    <glyph glyph-name="Gbreve" unicode="&#x11e;" horiz-adv-x="1198" 
d="M1107 165c-56.667 -61.333 -126.167 -107.501 -208.5 -138.501s-172.5 -46.5 -270.5 -46.5c-167.333 0 -297.333 51.833 -390 155.5s-140.334 254.5 -143.001 452.5v262c0 200.667 43.833 355.167 131.5 463.5s215.5 162.5 383.5 162.5c158 0 277.167 -39 357.5 -117
s126.833 -200.333 139.5 -367h-286c-8 92.667 -27.333 155.834 -58 189.501s-78.667 50.5 -144 50.5c-79.333 0 -137 -29 -173 -87s-54.667 -150.333 -56 -277v-264c0 -132.667 19.833 -229.167 59.5 -289.5s104.834 -90.5 195.501 -90.5c58 0 105 11.667 141 35l26 18v267
h-206v222h501v-601zM951 1845c0 -88.667 -31.832 -160.334 -95.499 -215.001s-147.5 -82 -251.5 -82c-104.667 0 -188.834 27.333 -252.501 82s-95.5 126.334 -95.5 215.001h207c0 -41.333 12.5 -73.5 37.5 -96.5s59.5 -34.5 103.5 -34.5c43.333 0 77.333 11.5 102 34.5
s37 55.167 37 96.5h208z" />
    <glyph glyph-name="gbreve" unicode="&#x11f;" horiz-adv-x="1030" 
d="M69 574c0 177.333 31.9971 309.667 95.9971 397s153.667 131 269 131c98 0 173.667 -38.667 227 -116l11 96h255v-1082c0 -138 -38.667 -243.5 -116 -316.5s-188.333 -109.5 -333 -109.5c-59.333 0 -121.666 11.833 -186.999 35.5s-114 53.834 -146 90.501l95 196
c26.667 -28 61.334 -50.833 104.001 -68.5s83 -26.5 121 -26.5c63.333 0 108.833 15.167 136.5 45.5s41.834 79.166 42.501 146.499v93c-54 -70.667 -124.333 -106 -211 -106c-115.333 0 -204.5 44.833 -267.5 134.5s-95.167 216.167 -96.5 379.5v80zM351.997 503.001
c0 -100 12.999 -172.833 38.999 -218.5s67.333 -68.5 124 -68.5c58 0 101 21 129 63v517c-29.333 46 -71.666 69 -126.999 69c-56 0 -97.5 -23 -124.5 -69s-40.5 -120 -40.5 -222v-71zM830.996 1527c0 -88.667 -31.832 -160.334 -95.499 -215.001s-147.5 -82 -251.5 -82
c-104.667 0 -188.834 27.333 -252.501 82s-95.5 126.334 -95.5 215.001h207c0 -41.333 12.5 -73.5 37.5 -96.5s59.5 -34.5 103.5 -34.5c43.333 0 77.333 11.5 102 34.5s37 55.167 37 96.5h208z" />
    <glyph glyph-name="Gdotaccent" unicode="&#x120;" horiz-adv-x="1198" 
d="M1107 165c-56.667 -61.333 -126.167 -107.501 -208.5 -138.501s-172.5 -46.5 -270.5 -46.5c-167.333 0 -297.333 51.833 -390 155.5s-140.334 254.5 -143.001 452.5v262c0 200.667 43.833 355.167 131.5 463.5s215.5 162.5 383.5 162.5c158 0 277.167 -39 357.5 -117
s126.833 -200.333 139.5 -367h-286c-8 92.667 -27.333 155.834 -58 189.501s-78.667 50.5 -144 50.5c-79.333 0 -137 -29 -173 -87s-54.667 -150.333 -56 -277v-264c0 -132.667 19.833 -229.167 59.5 -289.5s104.834 -90.5 195.501 -90.5c58 0 105 11.667 141 35l26 18v267
h-206v222h501v-601zM454 1710c0 41.333 14 74.666 42 99.999s63.667 38 107 38s79 -12.667 107 -38s42 -58.666 42 -99.999c0 -40 -13.333 -72.667 -40 -98s-63 -38 -109 -38s-82.333 12.667 -109 38s-40 58 -40 98z" />
    <glyph glyph-name="gdotaccent" unicode="&#x121;" horiz-adv-x="1030" 
d="M69 574c0 177.333 31.9971 309.667 95.9971 397s153.667 131 269 131c98 0 173.667 -38.667 227 -116l11 96h255v-1082c0 -138 -38.667 -243.5 -116 -316.5s-188.333 -109.5 -333 -109.5c-59.333 0 -121.666 11.833 -186.999 35.5s-114 53.834 -146 90.501l95 196
c26.667 -28 61.334 -50.833 104.001 -68.5s83 -26.5 121 -26.5c63.333 0 108.833 15.167 136.5 45.5s41.834 79.166 42.501 146.499v93c-54 -70.667 -124.333 -106 -211 -106c-115.333 0 -204.5 44.833 -267.5 134.5s-95.167 216.167 -96.5 379.5v80zM351.997 503.001
c0 -100 12.999 -172.833 38.999 -218.5s67.333 -68.5 124 -68.5c58 0 101 21 129 63v517c-29.333 46 -71.666 69 -126.999 69c-56 0 -97.5 -23 -124.5 -69s-40.5 -120 -40.5 -222v-71zM333.996 1392c0 41.333 14 74.666 42 99.999s63.667 38 107 38s79 -12.667 107 -38
s42 -58.666 42 -99.999c0 -40 -13.333 -72.667 -40 -98s-63 -38 -109 -38s-82.333 12.667 -109 38s-40 58 -40 98z" />
    <glyph glyph-name="Gcommaaccent" unicode="&#x122;" horiz-adv-x="1198" 
d="M1107 165c-56.667 -61.333 -126.167 -107.501 -208.5 -138.501s-172.5 -46.5 -270.5 -46.5c-167.333 0 -297.333 51.833 -390 155.5s-140.334 254.5 -143.001 452.5v262c0 200.667 43.833 355.167 131.5 463.5s215.5 162.5 383.5 162.5c158 0 277.167 -39 357.5 -117
s126.833 -200.333 139.5 -367h-286c-8 92.667 -27.333 155.834 -58 189.501s-78.667 50.5 -144 50.5c-79.333 0 -137 -29 -173 -87s-54.667 -150.333 -56 -277v-264c0 -132.667 19.833 -229.167 59.5 -289.5s104.834 -90.5 195.501 -90.5c58 0 105 11.667 141 35l26 18v267
h-206v222h501v-601zM602 -519.001l-138 79c41.333 79.333 63 159.333 65 240v106h204v-76c-0.666992 -60.667 -13.167 -123.5 -37.5 -188.5s-55.5 -118.5 -93.5 -160.5z" />
    <glyph glyph-name="gcommaaccent" unicode="&#x123;" horiz-adv-x="1030" 
d="M69 574c0 177.333 31.9971 309.667 95.9971 397s153.667 131 269 131c98 0 173.667 -38.667 227 -116l11 96h255v-1082c0 -138 -38.667 -243.5 -116 -316.5s-188.333 -109.5 -333 -109.5c-59.333 0 -121.666 11.833 -186.999 35.5s-114 53.834 -146 90.501l95 196
c26.667 -28 61.334 -50.833 104.001 -68.5s83 -26.5 121 -26.5c63.333 0 108.833 15.167 136.5 45.5s41.834 79.166 42.501 146.499v93c-54 -70.667 -124.333 -106 -211 -106c-115.333 0 -204.5 44.833 -267.5 134.5s-95.167 216.167 -96.5 379.5v80zM351.997 503.001
c0 -100 12.999 -172.833 38.999 -218.5s67.333 -68.5 124 -68.5c58 0 101 21 129 63v517c-29.333 46 -71.666 69 -126.999 69c-56 0 -97.5 -23 -124.5 -69s-40.5 -120 -40.5 -222v-71zM504.996 1721l143 -77c-38.667 -79.333 -59 -161.333 -61 -246l-1 -139h-216v140
c0.666992 70 13.667 134.5 39 193.5s57.333 101.833 96 128.5z" />
    <glyph glyph-name="Hcircumflex" unicode="&#x124;" horiz-adv-x="1257" 
d="M1138 0h-293v623h-434v-623h-294v1456h294v-589h434v589h293v-1456zM973 1569v-12h-221l-125 144l-125 -144h-216v16l260 276h162z" />
    <glyph glyph-name="hcircumflex" unicode="&#x125;" horiz-adv-x="1008" 
d="M379 987c61.333 76.667 136.667 115 226 115c98.667 0 173.667 -34.667 225 -104s77.333 -172.666 78 -309.999v-688h-284v685c0 63.333 -9.83301 109.166 -29.5 137.499s-51.5 42.5 -95.5 42.5c-51.333 0 -91.333 -23.667 -120 -71v-794h-283v1536h283v-549z
M815.001 1638v-12h-221l-125 144l-125 -144h-216v16l260 276h162z" />
    <glyph glyph-name="Hbar" unicode="&#x126;" horiz-adv-x="1293" 
d="M1160 1225h98v-174h-98v-1051h-293v623h-433v-623h-294v1051h-91v174h91v231h294v-231h433v231h293v-231zM434 867h433v184h-433v-184z" />
    <glyph glyph-name="hbar" unicode="&#x127;" horiz-adv-x="1038" 
d="M570 1215h-160.999v-228c61.333 76.667 136.666 115 225.999 115c98.667 0 173.667 -34.667 225 -104s77.333 -172.666 78 -309.999v-688h-284v685c0 63.333 -9.83301 109.166 -29.5 137.499s-51.5 42.5 -95.5 42.5c-51.333 0 -91.333 -23.667 -120 -71v-794h-283v1215
h-163v183h163v138h283v-138h161v-183z" />
    <glyph glyph-name="Itilde" unicode="&#x128;" horiz-adv-x="554" 
d="M424 0h-294v1456h294v-1456zM600 1834c0 -74 -18.8379 -136.833 -56.5049 -188.5s-85.167 -77.5 -142.5 -77.5c-21.333 0 -40.166 3 -56.499 9s-39.333 18.333 -69 37s-50.667 30 -63 34s-25.833 6 -40.5 6c-18 0 -33 -8.16699 -45 -24.5s-18 -39.833 -18 -70.5l-160 9
c0 74 19 137.167 57 189.5s84.667 78.5 140 78.5c14.667 0 28.834 -2.16699 42.501 -6.5s37.334 -16 71.001 -35s57.834 -31 72.501 -36s29.334 -7.5 44.001 -7.5c17.333 0 32.5 8.16699 45.5 24.5s19.5 39.833 19.5 70.5z" />
    <glyph glyph-name="itilde" unicode="&#x129;" horiz-adv-x="537" 
d="M407 0h-283v1082h283v-1082zM593 1506c0 -74 -18.8379 -136.833 -56.5049 -188.5s-85.167 -77.5 -142.5 -77.5c-21.333 0 -40.166 3 -56.499 9s-39.333 18.333 -69 37s-50.667 30 -63 34s-25.833 6 -40.5 6c-18 0 -33 -8.16699 -45 -24.5s-18 -39.833 -18 -70.5l-160 9
c0 74 19 137.167 57 189.5s84.667 78.5 140 78.5c14.667 0 28.834 -2.16699 42.501 -6.5s37.334 -16 71.001 -35s57.834 -31 72.501 -36s29.334 -7.5 44.001 -7.5c17.333 0 32.5 8.16699 45.5 24.5s19.5 39.833 19.5 70.5z" />
    <glyph glyph-name="Imacron" unicode="&#x12a;" horiz-adv-x="554" 
d="M424 0h-294v1456h294v-1456zM577 1598h-600v168h600v-168z" />
    <glyph glyph-name="imacron" unicode="&#x12b;" horiz-adv-x="537" 
d="M407 0h-283v1082h283v-1082zM570 1270h-600v168h600v-168z" />
    <glyph glyph-name="Ibreve" unicode="&#x12c;" horiz-adv-x="554" 
d="M424 0h-294v1456h294v-1456zM624 1840c0 -88.667 -31.832 -160.334 -95.499 -215.001s-147.5 -82 -251.5 -82c-104.667 0 -188.834 27.333 -252.501 82s-95.5 126.334 -95.5 215.001h207c0 -41.333 12.5 -73.5 37.5 -96.5s59.5 -34.5 103.5 -34.5
c43.333 0 77.333 11.5 102 34.5s37 55.167 37 96.5h208z" />
    <glyph glyph-name="ibreve" unicode="&#x12d;" horiz-adv-x="537" 
d="M407 0h-283v1082h283v-1082zM617 1512c0 -88.667 -31.832 -160.334 -95.499 -215.001s-147.5 -82 -251.5 -82c-104.667 0 -188.834 27.333 -252.501 82s-95.5 126.334 -95.5 215.001h207c0 -41.333 12.5 -73.5 37.5 -96.5s59.5 -34.5 103.5 -34.5
c43.333 0 77.333 11.5 102 34.5s37 55.167 37 96.5h208z" />
    <glyph glyph-name="Iogonek" unicode="&#x12e;" horiz-adv-x="554" 
d="M424 0h-294v1456h294v-1456zM369 2c-42.667 -28 -74.001 -55.333 -94.001 -82s-30 -57.667 -30 -93c0 -43.333 17 -65 51 -65c16.667 0 37.334 6.66699 62.001 20l27 -158c-43.333 -29.333 -92 -44 -146 -44c-60.667 0 -109.667 19 -147 57s-56 88.667 -56 152
s15.333 116.5 46 159.5s78.667 80.833 144 113.5z" />
    <glyph glyph-name="iogonek" unicode="&#x12f;" horiz-adv-x="516" 
d="M400 0h-284v1082h284v-1082zM103 1362c0 44 14 80 42 108s65.333 42 112 42s84 -14 112 -42s42 -64 42 -108c0 -43.333 -13.833 -79.333 -41.5 -108s-65.167 -43 -112.5 -43s-84.833 14.333 -112.5 43s-41.5 64.667 -41.5 108zM358 0
c-42.667 -28 -74.001 -55.333 -94.001 -82s-30 -57.667 -30 -93c0 -43.333 17 -65 51 -65c16.667 0 37.334 6.66699 62.001 20l27 -158c-43.333 -29.333 -92 -44 -146 -44c-60.667 0 -109.667 19 -147 57s-56 88.667 -56 152s15.333 116.5 46 159.5s78.667 80.833 144 113.5
z" />
    <glyph glyph-name="Idotaccent" unicode="&#x130;" horiz-adv-x="554" 
d="M424 0h-294v1456h294v-1456zM126 1705c0 41.333 14 74.666 42 99.999s63.667 38 107 38s79 -12.667 107 -38s42 -58.666 42 -99.999c0 -40 -13.333 -72.667 -40 -98s-63 -38 -109 -38s-82.333 12.667 -109 38s-40 58 -40 98z" />
    <glyph glyph-name="dotlessi" unicode="&#x131;" horiz-adv-x="537" 
d="M407 0h-283v1082h283v-1082z" />
    <glyph glyph-name="IJ" unicode="&#x132;" horiz-adv-x="1558" 
d="M424 0h-294v1456h294v-1456zM1150 1456h294v-1008c0 -141.333 -39.333 -254.666 -118 -339.999s-180 -128 -304 -128c-133.333 0 -237 39.667 -311 119s-111 189.666 -111 330.999h295c0 -137.333 42.333 -206 127 -206c85.333 0 128 79.333 128 238v994z" />
    <glyph glyph-name="ij" unicode="&#x133;" horiz-adv-x="1019" 
d="M400 0h-284v1082h284v-1082zM103 1362c0 44 14 80 42 108s65.333 42 112 42s84 -14 112 -42s42 -64 42 -108c0 -43.333 -13.833 -79.333 -41.5 -108s-65.167 -43 -112.5 -43s-84.833 14.333 -112.5 43s-41.5 64.667 -41.5 108zM917 1082v-1140
c0 -123.333 -28.333 -217.333 -85 -282s-137 -97 -241 -97c-44 0 -86.667 5.66699 -128 17l-1 231c31.333 -6 56.333 -9 75 -9c62.667 0 94.667 44 96 132v1148h284zM614 1362c0 44 14 80 42 108s65.333 42 112 42s84 -14 112 -42s42 -64 42 -108
c0 -43.333 -13.833 -79.333 -41.5 -108s-65.167 -43 -112.5 -43s-84.833 14.333 -112.5 43s-41.5 64.667 -41.5 108z" />
    <glyph glyph-name="Jcircumflex" unicode="&#x134;" horiz-adv-x="1004" 
d="M596 1456h294v-1008c0 -141.333 -39.333 -254.666 -118 -339.999s-180 -128 -304 -128c-133.333 0 -237 39.667 -311 119s-111 189.666 -111 330.999h295c0 -137.333 42.333 -206 127 -206c85.333 0 128 79.333 128 238v994zM1077 1566v-12h-221l-125 144l-125 -144h-216
v16l260 276h162z" />
    <glyph glyph-name="jcircumflex" unicode="&#x135;" horiz-adv-x="550" 
d="M423 1082v-1122c-1.33301 -127.333 -31.5 -225.333 -90.5 -294s-140.833 -103 -245.5 -103c-46.667 0 -88.667 5.66699 -126 17l13 231c28.667 -8.66699 56 -13 82 -13c56 0 84 58.333 84 175v1109h283zM608 1231v-12h-221l-125 144l-125 -144h-216v16l260 276h162z" />
    <glyph glyph-name="Kcommaaccent" unicode="&#x136;" horiz-adv-x="1133" 
d="M527 562l-116 -146v-416h-294v1456h294v-635l93 157l271 478h360l-417 -640l424 -816h-349zM544 -456l-138 79c41.333 79.333 63 159.333 65 240v106h204v-76c-0.666992 -60.667 -13.167 -123.5 -37.5 -188.5s-55.5 -118.5 -93.5 -160.5z" />
    <glyph glyph-name="kcommaaccent" unicode="&#x137;" 
d="M462 417l-76 -85v-332h-283v1536h283v-830l35 52l196 324h337l-314 -446l344 -636h-324zM473 -477l-138 79c41.333 79.333 63 159.333 65 240v106h204v-76c-0.666992 -60.667 -13.167 -123.5 -37.5 -188.5s-55.5 -118.5 -93.5 -160.5z" />
    <glyph glyph-name="kgreenlandic" unicode="&#x138;" horiz-adv-x="1077" 
d="M486 397h-81v-397h-283v1082h283v-406h58l201 406h357l-304 -506l311 -576h-363z" />
    <glyph glyph-name="Lacute" unicode="&#x139;" 
d="M411 244h516v-244h-810v1456h294v-1212zM327 1846h318l-278 -310h-236z" />
    <glyph glyph-name="lacute" unicode="&#x13a;" horiz-adv-x="516" 
d="M400 0h-284v1536h284v-1536zM314 1928h318l-278 -310h-236z" />
    <glyph glyph-name="Lcommaaccent" unicode="&#x13b;" 
d="M411 244h516v-244h-810v1456h294v-1212zM493 -507l-138 79c41.333 79.333 63 159.333 65 240v106h204v-76c-0.666992 -60.667 -13.167 -123.5 -37.5 -188.5s-55.5 -118.5 -93.5 -160.5z" />
    <glyph glyph-name="lcommaaccent" unicode="&#x13c;" horiz-adv-x="516" 
d="M400 0h-284v1536h284v-1536zM229 -507l-138 79c41.333 79.333 63 159.333 65 240v106h204v-76c-0.666992 -60.667 -13.167 -123.5 -37.5 -188.5s-55.5 -118.5 -93.5 -160.5z" />
    <glyph glyph-name="Lcaron" unicode="&#x13d;" 
d="M411 244h516v-244h-810v1456h294v-1212zM693 1031l-138 79c41.333 79.333 63 159.333 65 240v106h204v-76c-0.666992 -60.667 -13.167 -123.5 -37.5 -188.5s-55.5 -118.5 -93.5 -160.5z" />
    <glyph glyph-name="lcaron" unicode="&#x13e;" horiz-adv-x="666" 
d="M400 0h-284v1536h284v-1536zM592 1112l-138 79c41.333 79.333 63 159.333 65 240v106h204v-76c-0.666992 -60.667 -13.167 -123.5 -37.5 -188.5s-55.5 -118.5 -93.5 -160.5z" />
    <glyph glyph-name="Ldot" unicode="&#x13f;" 
d="M411 244h516v-244h-810v1456h294v-1212zM517 829c0 41.333 14 74.666 42 99.999s63.667 38 107 38s79 -12.667 107 -38s42 -58.666 42 -99.999c0 -40 -13.333 -72.667 -40 -98s-63 -38 -109 -38s-82.333 12.667 -109 38s-40 58 -40 98z" />
    <glyph glyph-name="ldot" unicode="&#x140;" horiz-adv-x="736" 
d="M400 0h-284v1536h284v-1536zM471 772c0 41.333 14 74.666 42 99.999s63.667 38 107 38s79 -12.667 107 -38s42 -58.666 42 -99.999c0 -40 -13.333 -72.667 -40 -98s-63 -38 -109 -38s-82.333 12.667 -109 38s-40 58 -40 98z" />
    <glyph glyph-name="Lslash" unicode="&#x141;" horiz-adv-x="1013" 
d="M446 904l158 53v-166l-158 -53v-494h516v-244h-810v639l-104 -35v166l104 35v651h294v-552z" />
    <glyph glyph-name="lslash" unicode="&#x142;" horiz-adv-x="587" 
d="M428 915l109 42v-167l-109 -42v-748h-284v640l-97 -37v167l97 37v729h284v-621z" />
    <glyph glyph-name="Nacute" unicode="&#x143;" horiz-adv-x="1254" 
d="M1135 0h-294l-430 955v-955h-294v1456h294l431 -956v956h293v-1456zM687 1846h318l-278 -310h-236z" />
    <glyph glyph-name="nacute" unicode="&#x144;" horiz-adv-x="1008" 
d="M362 1082l8 -107c64 84.667 147.667 127 251 127c186 0 281.667 -130.333 287 -391v-711h-284v690c0 61.333 -9.16699 105.833 -27.5 133.5s-50.5 41.5 -96.5 41.5c-51.333 0 -91.333 -26.333 -120 -79v-786h-284v1082h266zM560 1536h318l-278 -310h-236z" />
    <glyph glyph-name="Ncommaaccent" unicode="&#x145;" horiz-adv-x="1254" 
d="M1135 0h-294l-430 955v-955h-294v1456h294l431 -956v956h293v-1456zM600 -515l-138 79c41.333 79.333 63 159.333 65 240v106h204v-76c-0.666992 -60.667 -13.167 -123.5 -37.5 -188.5s-55.5 -118.5 -93.5 -160.5z" />
    <glyph glyph-name="ncommaaccent" unicode="&#x146;" horiz-adv-x="1008" 
d="M362 1082l8 -107c64 84.667 147.667 127 251 127c186 0 281.667 -130.333 287 -391v-711h-284v690c0 61.333 -9.16699 105.833 -27.5 133.5s-50.5 41.5 -96.5 41.5c-51.333 0 -91.333 -26.333 -120 -79v-786h-284v1082h266zM473 -507l-138 79
c41.333 79.333 63 159.333 65 240v106h204v-76c-0.666992 -60.667 -13.167 -123.5 -37.5 -188.5s-55.5 -118.5 -93.5 -160.5z" />
    <glyph glyph-name="Ncaron" unicode="&#x147;" horiz-adv-x="1254" 
d="M1135 0h-294l-430 955v-955h-294v1456h294l431 -956v956h293v-1456zM630 1705l116 142h240v-11l-268 -281h-176l-267 283v9h240z" />
    <glyph glyph-name="ncaron" unicode="&#x148;" horiz-adv-x="1008" 
d="M362 1082l8 -107c64 84.667 147.667 127 251 127c186 0 281.667 -130.333 287 -391v-711h-284v690c0 61.333 -9.16699 105.833 -27.5 133.5s-50.5 41.5 -96.5 41.5c-51.333 0 -91.333 -26.333 -120 -79v-786h-284v1082h266zM503 1395l116 142h240v-11l-268 -281h-176
l-267 283v9h240z" />
    <glyph glyph-name="napostrophe" unicode="&#x149;" horiz-adv-x="1008" 
d="M362 1082l8 -107c64 84.667 147.667 127 251 127c186 0 281.667 -130.333 287 -391v-711h-284v690c0 61.333 -9.16699 105.833 -27.5 133.5s-50.5 41.5 -96.5 41.5c-51.333 0 -91.333 -26.333 -120 -79v-786h-284v1082h266zM52 1111l-138 79
c41.333 79.333 63 159.333 65 240v106h204v-76c-0.666992 -60.667 -13.167 -123.5 -37.5 -188.5s-55.5 -118.5 -93.5 -160.5z" />
    <glyph glyph-name="Eng" unicode="&#x14a;" horiz-adv-x="1248" 
d="M1134 1456v-1479c0 -133.333 -30.333 -235.666 -91 -306.999s-144.667 -107 -252 -107c-46.667 0 -90 5.66699 -130 17l11 240c28 -8 56 -12 84 -12c55.333 0 83 58 83 174v18l-429 902v-902h-294v1456h294l429 -899v899h295z" />
    <glyph glyph-name="eng" unicode="&#x14b;" horiz-adv-x="1017" 
d="M364 1082l11.998 -143c63.333 108.667 146 163 248 163c94.667 0 166.334 -36.333 215.001 -109s74 -178 76 -316v-710c0 -129.333 -29.667 -229 -89 -299s-141.666 -105 -246.999 -105c-44.667 0 -85.667 5.66699 -123 17l12 233c26 -8 52.667 -12 80 -12
c55.333 0 83 57 83 171v687c0 72.667 -8.66699 125.167 -26 157.5s-46.666 48.5 -87.999 48.5c-54.667 0 -99.334 -23.667 -134.001 -71v-794h-283v1082h264z" />
    <glyph glyph-name="Omacron" unicode="&#x14c;" horiz-adv-x="1236" 
d="M1142 597c0 -195.333 -46.1689 -347.001 -138.502 -455.001s-220.5 -162 -384.5 -162c-163.333 0 -291.666 53.5 -384.999 160.5s-140.666 256.833 -141.999 449.5v249c0 200 46.333 356.167 139 468.5s221.334 168.5 386.001 168.5c162 0 289.667 -55.167 383 -165.5
s140.666 -265.166 141.999 -464.499v-249zM846.998 840.999c0 131.333 -18.668 228.999 -56.001 292.999s-95.333 96 -174 96c-78 0 -135.667 -30.833 -173 -92.5s-56.666 -155.5 -57.999 -281.5v-259c0 -127.333 19 -221.166 57 -281.499s96.667 -90.5 176 -90.5
c76.667 0 133.667 29.5 171 88.5s56.333 150.5 57 274.5v253zM918.997 1595h-600v168h600v-168z" />
    <glyph glyph-name="omacron" unicode="&#x14d;" horiz-adv-x="1019" 
d="M70 576c0 164 38.667 292.667 116 386s184.333 140 321 140c138 0 245.667 -46.667 323 -140s116 -222.666 116 -387.999v-69c0 -164.667 -38.333 -293.334 -115 -386.001s-184 -139 -322 -139c-138.667 0 -246.5 46.5 -323.5 139.5s-115.5 222.167 -115.5 387.5v69z
M354 505c0 -193.333 51.668 -290 155.001 -290c95.333 0 146.666 80.667 153.999 242l1 119c0 98.667 -13.667 171.834 -41 219.501s-66 71.5 -116 71.5c-48 0 -85.5 -23.833 -112.5 -71.5s-40.5 -120.834 -40.5 -219.501v-71zM806.001 1286h-600v168h600v-168z" />
    <glyph glyph-name="Obreve" unicode="&#x14e;" horiz-adv-x="1236" 
d="M1142 597c0 -195.333 -46.1689 -347.001 -138.502 -455.001s-220.5 -162 -384.5 -162c-163.333 0 -291.666 53.5 -384.999 160.5s-140.666 256.833 -141.999 449.5v249c0 200 46.333 356.167 139 468.5s221.334 168.5 386.001 168.5c162 0 289.667 -55.167 383 -165.5
s140.666 -265.166 141.999 -464.499v-249zM846.998 840.999c0 131.333 -18.668 228.999 -56.001 292.999s-95.333 96 -174 96c-78 0 -135.667 -30.833 -173 -92.5s-56.666 -155.5 -57.999 -281.5v-259c0 -127.333 19 -221.166 57 -281.499s96.667 -90.5 176 -90.5
c76.667 0 133.667 29.5 171 88.5s56.333 150.5 57 274.5v253zM965.997 1837c0 -88.667 -31.832 -160.334 -95.499 -215.001s-147.5 -82 -251.5 -82c-104.667 0 -188.834 27.333 -252.501 82s-95.5 126.334 -95.5 215.001h207c0 -41.333 12.5 -73.5 37.5 -96.5
s59.5 -34.5 103.5 -34.5c43.333 0 77.333 11.5 102 34.5s37 55.167 37 96.5h208z" />
    <glyph glyph-name="obreve" unicode="&#x14f;" horiz-adv-x="1019" 
d="M70 576c0 164 38.667 292.667 116 386s184.333 140 321 140c138 0 245.667 -46.667 323 -140s116 -222.666 116 -387.999v-69c0 -164.667 -38.333 -293.334 -115 -386.001s-184 -139 -322 -139c-138.667 0 -246.5 46.5 -323.5 139.5s-115.5 222.167 -115.5 387.5v69z
M354 505c0 -193.333 51.668 -290 155.001 -290c95.333 0 146.666 80.667 153.999 242l1 119c0 98.667 -13.667 171.834 -41 219.501s-66 71.5 -116 71.5c-48 0 -85.5 -23.833 -112.5 -71.5s-40.5 -120.834 -40.5 -219.501v-71zM853.001 1527
c0 -88.667 -31.832 -160.334 -95.499 -215.001s-147.5 -82 -251.5 -82c-104.667 0 -188.834 27.333 -252.501 82s-95.5 126.334 -95.5 215.001h207c0 -41.333 12.5 -73.5 37.5 -96.5s59.5 -34.5 103.5 -34.5c43.333 0 77.333 11.5 102 34.5s37 55.167 37 96.5h208z" />
    <glyph glyph-name="Ohungarumlaut" unicode="&#x150;" horiz-adv-x="1236" 
d="M1142 597c0 -195.333 -46.1689 -347.001 -138.502 -455.001s-220.5 -162 -384.5 -162c-163.333 0 -291.666 53.5 -384.999 160.5s-140.666 256.833 -141.999 449.5v249c0 200 46.333 356.167 139 468.5s221.334 168.5 386.001 168.5c162 0 289.667 -55.167 383 -165.5
s140.666 -265.166 141.999 -464.499v-249zM846.998 840.999c0 131.333 -18.668 228.999 -56.001 292.999s-95.333 96 -174 96c-78 0 -135.667 -30.833 -173 -92.5s-56.666 -155.5 -57.999 -281.5v-259c0 -127.333 19 -221.166 57 -281.499s96.667 -90.5 176 -90.5
c76.667 0 133.667 29.5 171 88.5s56.333 150.5 57 274.5v253zM836.997 1845h247l-220 -301h-207zM489.997 1845h244l-191 -301h-202z" />
    <glyph glyph-name="ohungarumlaut" unicode="&#x151;" horiz-adv-x="1019" 
d="M70 576c0 164 38.667 292.667 116 386s184.333 140 321 140c138 0 245.667 -46.667 323 -140s116 -222.666 116 -387.999v-69c0 -164.667 -38.333 -293.334 -115 -386.001s-184 -139 -322 -139c-138.667 0 -246.5 46.5 -323.5 139.5s-115.5 222.167 -115.5 387.5v69z
M354 505c0 -193.333 51.668 -290 155.001 -290c95.333 0 146.666 80.667 153.999 242l1 119c0 98.667 -13.667 171.834 -41 219.501s-66 71.5 -116 71.5c-48 0 -85.5 -23.833 -112.5 -71.5s-40.5 -120.834 -40.5 -219.501v-71zM724.001 1535h247l-220 -301h-207z
M377.001 1535h244l-191 -301h-202z" />
    <glyph glyph-name="OE" unicode="&#x152;" horiz-adv-x="1723" 
d="M1611 0l-754 0.000976562c-91.333 -13.333 -169.666 -20 -234.999 -20c-100.667 0 -190.667 24.5 -270 73.5s-141 117.833 -185 206.5s-67 188.667 -69 300v320c0 115.333 22 218.666 66 309.999s105.667 161.833 185 211.5s169.666 74.5 270.999 74.5
c66.667 0 145.667 -6.66699 237 -20h752v-245h-540v-344h457v-237h-457v-386h542v-244zM622 214.001c54 0 105 4 153 12v1003c-59.333 8 -111 12 -155 12c-74 0 -132.333 -30 -175 -90s-64 -149.667 -64 -269v-306c0 -120.667 21.667 -211.167 65 -271.5
s102 -90.5 176 -90.5z" />
    <glyph glyph-name="oe" unicode="&#x153;" horiz-adv-x="1579" 
d="M88 551c0 168 39.166 301.832 117.499 401.499s183.833 149.5 316.5 149.5c122 0 221 -41.667 297 -125c73.333 84.667 166.666 126.334 279.999 125.001c123.333 0 220 -42.5 290 -127.5s105 -206.833 105 -365.5v-160h-525c8 -77.333 28.167 -135.833 60.5 -175.5
s74.5 -59.5 126.5 -59.5c70.667 0 134 15 190 45l56 32l75 -188l-30 -25c-87.333 -65.333 -194.666 -98 -321.999 -98c-124 0 -225.333 42 -304 126c-75.333 -84 -174.666 -126 -297.999 -126c-134 0 -240 49.667 -318 149s-117 235.333 -117 408v14zM370.999 529.999
c0 -108 12.667 -187.667 38 -239s63.333 -77 114 -77c92 0 142 87.333 150 262l1 75c0 210.667 -50.667 316 -152 316c-92 0 -142 -88.333 -150 -265zM1099 866.999c-72.667 0 -115.333 -73.333 -128 -220h246v26c0 129.333 -39.333 194 -118 194z" />
    <glyph glyph-name="Racute" unicode="&#x154;" horiz-adv-x="1134" 
d="M558 532l-145.999 -0.000976562v-532h-294v1456h469c147.333 0 261.166 -38.167 341.499 -114.5s120.5 -184.833 120.5 -325.5c0 -193.333 -70.333 -328.666 -211 -405.999l255 -596v-14h-316zM412.001 776.999h167c58.667 0 102.667 19.5 132 58.5s44 91.167 44 156.5
c0 146 -57 219 -171 219h-172v-434zM578.001 1846h318l-278 -310h-236z" />
    <glyph glyph-name="racute" unicode="&#x155;" horiz-adv-x="679" 
d="M637 809l-94.002 8c-77.333 0 -129.666 -34 -156.999 -102v-715h-284v1082h267l8 -117c44.667 91.333 106.334 137 185.001 137c32 0 58 -4.33301 78 -13zM420.998 1536h318l-278 -310h-236z" />
    <glyph glyph-name="Rcommaaccent" unicode="&#x156;" horiz-adv-x="1134" 
d="M558 532l-145.999 -0.000976562v-532h-294v1456h469c147.333 0 261.166 -38.167 341.499 -114.5s120.5 -184.833 120.5 -325.5c0 -193.333 -70.333 -328.666 -211 -405.999l255 -596v-14h-316zM412.001 776.999h167c58.667 0 102.667 19.5 132 58.5s44 91.167 44 156.5
c0 146 -57 219 -171 219h-172v-434zM507.001 -507.001l-138 79c41.333 79.333 63 159.333 65 240v106h204v-76c-0.666992 -60.667 -13.167 -123.5 -37.5 -188.5s-55.5 -118.5 -93.5 -160.5z" />
    <glyph glyph-name="rcommaaccent" unicode="&#x157;" horiz-adv-x="679" 
d="M637 809l-94.002 8c-77.333 0 -129.666 -34 -156.999 -102v-715h-284v1082h267l8 -117c44.667 91.333 106.334 137 185.001 137c32 0 58 -4.33301 78 -13zM219.998 -507l-138 79c41.333 79.333 63 159.333 65 240v106h204v-76
c-0.666992 -60.667 -13.167 -123.5 -37.5 -188.5s-55.5 -118.5 -93.5 -160.5z" />
    <glyph glyph-name="Rcaron" unicode="&#x158;" horiz-adv-x="1134" 
d="M558 532l-145.999 -0.000976562v-532h-294v1456h469c147.333 0 261.166 -38.167 341.499 -114.5s120.5 -184.833 120.5 -325.5c0 -193.333 -70.333 -328.666 -211 -405.999l255 -596v-14h-316zM412.001 776.999h167c58.667 0 102.667 19.5 132 58.5s44 91.167 44 156.5
c0 146 -57 219 -171 219h-172v-434zM521.001 1705l116 142h240v-11l-268 -281h-176l-267 283v9h240z" />
    <glyph glyph-name="rcaron" unicode="&#x159;" horiz-adv-x="679" 
d="M637 809l-94.002 8c-77.333 0 -129.666 -34 -156.999 -102v-715h-284v1082h267l8 -117c44.667 91.333 106.334 137 185.001 137c32 0 58 -4.33301 78 -13zM364.998 1395l116 142h240v-11l-268 -281h-176l-267 283v9h240z" />
    <glyph glyph-name="Sacute" unicode="&#x15a;" horiz-adv-x="1106" 
d="M732 382c0 59.333 -15.166 104.169 -45.499 134.502s-85.5 61.833 -165.5 94.5c-146 55.333 -251 120.166 -315 194.499s-96 162.166 -96 263.499c0 122.667 43.5 221.167 130.5 295.5s197.5 111.5 331.5 111.5c89.333 0 169 -18.833 239 -56.5
s123.833 -90.834 161.5 -159.501s56.5 -146.667 56.5 -234h-293c0 68 -14.5 119.833 -43.5 155.5s-70.833 53.5 -125.5 53.5c-51.333 0 -91.333 -15.167 -120 -45.5s-43 -71.166 -43 -122.499c0 -40 16 -76.167 48 -108.5s88.667 -65.833 170 -100.5
c142 -51.333 245.167 -114.333 309.5 -189s96.5 -169.667 96.5 -285c0 -126.667 -40.333 -225.667 -121 -297s-190.334 -107 -329.001 -107c-94 0 -179.667 19.333 -257 58s-137.833 94 -181.5 166s-65.5 157 -65.5 255h295c0 -84 16.333 -145 49 -183s86 -57 160 -57
c102.667 0 154 54.333 154 163zM624.001 1846h318l-278 -310h-236z" />
    <glyph glyph-name="sacute" unicode="&#x15b;" horiz-adv-x="930" 
d="M582 290c0 24 -11.498 46.165 -34.498 66.498s-74.167 47.833 -153.5 82.5c-116.667 47.333 -196.834 96.333 -240.501 147s-65.5 113.667 -65.5 189c0 94.667 34.167 172.834 102.5 234.501s158.833 92.5 271.5 92.5c118.667 0 213.667 -30.667 285 -92
s107 -143.666 107 -246.999h-283c0 88 -36.667 132 -110 132c-30 0 -54.667 -9.33301 -74 -28s-29 -44.667 -29 -78c0 -24 10.667 -45.167 32 -63.5s71.666 -44.5 150.999 -78.5c115.333 -42.667 196.833 -90.167 244.5 -142.5s71.5 -120.166 71.5 -203.499
c0 -96.667 -36.333 -174.334 -109 -233.001s-168 -88 -286 -88c-79.333 0 -149.333 15.5 -210 46.5s-108.167 74.167 -142.5 129.5s-51.5 115 -51.5 179h269c1.33301 -49.333 12.833 -86.333 34.5 -111s57.167 -37 106.5 -37c76 0 114 34.333 114 103zM523.002 1536h318
l-278 -310h-236z" />
    <glyph glyph-name="Scircumflex" unicode="&#x15c;" horiz-adv-x="1106" 
d="M732 382c0 59.333 -15.166 104.169 -45.499 134.502s-85.5 61.833 -165.5 94.5c-146 55.333 -251 120.166 -315 194.499s-96 162.166 -96 263.499c0 122.667 43.5 221.167 130.5 295.5s197.5 111.5 331.5 111.5c89.333 0 169 -18.833 239 -56.5
s123.833 -90.834 161.5 -159.501s56.5 -146.667 56.5 -234h-293c0 68 -14.5 119.833 -43.5 155.5s-70.833 53.5 -125.5 53.5c-51.333 0 -91.333 -15.167 -120 -45.5s-43 -71.166 -43 -122.499c0 -40 16 -76.167 48 -108.5s88.667 -65.833 170 -100.5
c142 -51.333 245.167 -114.333 309.5 -189s96.5 -169.667 96.5 -285c0 -126.667 -40.333 -225.667 -121 -297s-190.334 -107 -329.001 -107c-94 0 -179.667 19.333 -257 58s-137.833 94 -181.5 166s-65.5 157 -65.5 255h295c0 -84 16.333 -145 49 -183s86 -57 160 -57
c102.667 0 154 54.333 154 163zM913.001 1566v-12h-221l-125 144l-125 -144h-216v16l260 276h162z" />
    <glyph glyph-name="scircumflex" unicode="&#x15d;" horiz-adv-x="930" 
d="M582 290c0 24 -11.498 46.165 -34.498 66.498s-74.167 47.833 -153.5 82.5c-116.667 47.333 -196.834 96.333 -240.501 147s-65.5 113.667 -65.5 189c0 94.667 34.167 172.834 102.5 234.501s158.833 92.5 271.5 92.5c118.667 0 213.667 -30.667 285 -92
s107 -143.666 107 -246.999h-283c0 88 -36.667 132 -110 132c-30 0 -54.667 -9.33301 -74 -28s-29 -44.667 -29 -78c0 -24 10.667 -45.167 32 -63.5s71.666 -44.5 150.999 -78.5c115.333 -42.667 196.833 -90.167 244.5 -142.5s71.5 -120.166 71.5 -203.499
c0 -96.667 -36.333 -174.334 -109 -233.001s-168 -88 -286 -88c-79.333 0 -149.333 15.5 -210 46.5s-108.167 74.167 -142.5 129.5s-51.5 115 -51.5 179h269c1.33301 -49.333 12.833 -86.333 34.5 -111s57.167 -37 106.5 -37c76 0 114 34.333 114 103zM812.002 1256v-12
h-221l-125 144l-125 -144h-216v16l260 276h162z" />
    <glyph glyph-name="Scedilla" unicode="&#x15e;" horiz-adv-x="1106" 
d="M732 382c0 59.333 -15.166 104.169 -45.499 134.502s-85.5 61.833 -165.5 94.5c-146 55.333 -251 120.166 -315 194.499s-96 162.166 -96 263.499c0 122.667 43.5 221.167 130.5 295.5s197.5 111.5 331.5 111.5c89.333 0 169 -18.833 239 -56.5
s123.833 -90.834 161.5 -159.501s56.5 -146.667 56.5 -234h-293c0 68 -14.5 119.833 -43.5 155.5s-70.833 53.5 -125.5 53.5c-51.333 0 -91.333 -15.167 -120 -45.5s-43 -71.166 -43 -122.499c0 -40 16 -76.167 48 -108.5s88.667 -65.833 170 -100.5
c142 -51.333 245.167 -114.333 309.5 -189s96.5 -169.667 96.5 -285c0 -126.667 -40.333 -225.667 -121 -297s-190.334 -107 -329.001 -107c-94 0 -179.667 19.333 -257 58s-137.833 94 -181.5 166s-65.5 157 -65.5 255h295c0 -84 16.333 -145 49 -183s86 -57 160 -57
c102.667 0 154 54.333 154 163zM678.001 7.00293l-9 -58c38.667 -8.66699 68.5 -27.834 89.5 -57.501s31.5 -68.167 31.5 -115.5c0 -73.333 -26.333 -131.333 -79 -174s-128 -64 -226 -64l-6 167c48.667 0 73 27.333 73 82c0 26.667 -8.5 45.334 -25.5 56.001
s-45.833 17.667 -86.5 21l27 143h211z" />
    <glyph glyph-name="scedilla" unicode="&#x15f;" horiz-adv-x="930" 
d="M582 290c0 24 -11.498 46.165 -34.498 66.498s-74.167 47.833 -153.5 82.5c-116.667 47.333 -196.834 96.333 -240.501 147s-65.5 113.667 -65.5 189c0 94.667 34.167 172.834 102.5 234.501s158.833 92.5 271.5 92.5c118.667 0 213.667 -30.667 285 -92
s107 -143.666 107 -246.999h-283c0 88 -36.667 132 -110 132c-30 0 -54.667 -9.33301 -74 -28s-29 -44.667 -29 -78c0 -24 10.667 -45.167 32 -63.5s71.666 -44.5 150.999 -78.5c115.333 -42.667 196.833 -90.167 244.5 -142.5s71.5 -120.166 71.5 -203.499
c0 -96.667 -36.333 -174.334 -109 -233.001s-168 -88 -286 -88c-79.333 0 -149.333 15.5 -210 46.5s-108.167 74.167 -142.5 129.5s-51.5 115 -51.5 179h269c1.33301 -49.333 12.833 -86.333 34.5 -111s57.167 -37 106.5 -37c76 0 114 34.333 114 103zM575.002 -2.00195
l-9 -58c38.667 -8.66699 68.5 -27.834 89.5 -57.501s31.5 -68.167 31.5 -115.5c0 -73.333 -26.333 -131.333 -79 -174s-128 -64 -226 -64l-6 167c48.667 0 73 27.333 73 82c0 26.667 -8.5 45.334 -25.5 56.001s-45.833 17.667 -86.5 21l27 143h211z" />
    <glyph glyph-name="Scaron" unicode="&#x160;" horiz-adv-x="1106" 
d="M732 382c0 59.333 -15.166 104.169 -45.499 134.502s-85.5 61.833 -165.5 94.5c-146 55.333 -251 120.166 -315 194.499s-96 162.166 -96 263.499c0 122.667 43.5 221.167 130.5 295.5s197.5 111.5 331.5 111.5c89.333 0 169 -18.833 239 -56.5
s123.833 -90.834 161.5 -159.501s56.5 -146.667 56.5 -234h-293c0 68 -14.5 119.833 -43.5 155.5s-70.833 53.5 -125.5 53.5c-51.333 0 -91.333 -15.167 -120 -45.5s-43 -71.166 -43 -122.499c0 -40 16 -76.167 48 -108.5s88.667 -65.833 170 -100.5
c142 -51.333 245.167 -114.333 309.5 -189s96.5 -169.667 96.5 -285c0 -126.667 -40.333 -225.667 -121 -297s-190.334 -107 -329.001 -107c-94 0 -179.667 19.333 -257 58s-137.833 94 -181.5 166s-65.5 157 -65.5 255h295c0 -84 16.333 -145 49 -183s86 -57 160 -57
c102.667 0 154 54.333 154 163zM567.001 1705l116 142h240v-11l-268 -281h-176l-267 283v9h240z" />
    <glyph glyph-name="scaron" unicode="&#x161;" horiz-adv-x="930" 
d="M582 290c0 24 -11.498 46.165 -34.498 66.498s-74.167 47.833 -153.5 82.5c-116.667 47.333 -196.834 96.333 -240.501 147s-65.5 113.667 -65.5 189c0 94.667 34.167 172.834 102.5 234.501s158.833 92.5 271.5 92.5c118.667 0 213.667 -30.667 285 -92
s107 -143.666 107 -246.999h-283c0 88 -36.667 132 -110 132c-30 0 -54.667 -9.33301 -74 -28s-29 -44.667 -29 -78c0 -24 10.667 -45.167 32 -63.5s71.666 -44.5 150.999 -78.5c115.333 -42.667 196.833 -90.167 244.5 -142.5s71.5 -120.166 71.5 -203.499
c0 -96.667 -36.333 -174.334 -109 -233.001s-168 -88 -286 -88c-79.333 0 -149.333 15.5 -210 46.5s-108.167 74.167 -142.5 129.5s-51.5 115 -51.5 179h269c1.33301 -49.333 12.833 -86.333 34.5 -111s57.167 -37 106.5 -37c76 0 114 34.333 114 103zM466.002 1395l116 142
h240v-11l-268 -281h-176l-267 283v9h240z" />
    <glyph glyph-name="Tcommaaccent" unicode="&#x162;" horiz-adv-x="1112" 
d="M1060 1211h-360v-1211h-295v1211h-354v245h1009v-245zM660 14l-9 -58c38.667 -8.66699 68.5 -27.834 89.5 -57.501s31.5 -68.167 31.5 -115.5c0 -73.333 -26.333 -131.333 -79 -174s-128 -64 -226 -64l-6 167c48.667 0 73 27.333 73 82
c0 26.667 -8.5 45.334 -25.5 56.001s-45.833 17.667 -86.5 21l27 143h211z" />
    <glyph glyph-name="tcommaaccent" unicode="&#x163;" horiz-adv-x="629" 
d="M432 1348l0.000976562 -266h145v-213h-145v-537c0 -42.667 5.83301 -72 17.5 -88s34.167 -24 67.5 -24c27.333 0 49.666 2.33301 66.999 7l-2 -220c-48 -18 -100 -27 -156 -27c-182.667 0 -275 104.667 -277 314v575h-125v213h125v266h283zM496.001 7l-9 -58
c38.667 -8.66699 68.5 -27.834 89.5 -57.501s31.5 -68.167 31.5 -115.5c0 -73.333 -26.333 -131.333 -79 -174s-128 -64 -226 -64l-6 167c48.667 0 73 27.333 73 82c0 26.667 -8.5 45.334 -25.5 56.001s-45.833 17.667 -86.5 21l27 143h211z" />
    <glyph glyph-name="Tcaron" unicode="&#x164;" horiz-adv-x="1112" 
d="M1060 1211h-360v-1211h-295v1211h-354v245h1009v-245zM551 1705l116 142h240v-11l-268 -281h-176l-267 283v9h240z" />
    <glyph glyph-name="tcaron" unicode="&#x165;" horiz-adv-x="669" 
d="M432 1348l0.000976562 -266h145v-213h-145v-537c0 -42.667 5.83301 -72 17.5 -88s34.167 -24 67.5 -24c27.333 0 49.666 2.33301 66.999 7l-2 -220c-48 -18 -100 -27 -156 -27c-182.667 0 -275 104.667 -277 314v575h-125v213h125v266h283zM649.001 1243l-138 79
c41.333 79.333 63 159.333 65 240v106h204v-76c-0.666992 -60.667 -13.167 -123.5 -37.5 -188.5s-55.5 -118.5 -93.5 -160.5z" />
    <glyph glyph-name="Tbar" unicode="&#x166;" horiz-adv-x="1112" 
d="M844 746h-144v-746h-295v746h-168v183h168v282h-354v245h1009v-245h-360v-282h144v-183z" />
    <glyph glyph-name="tbar" unicode="&#x167;" horiz-adv-x="629" 
d="M432 1348v-266h145v-213h-145v-157h159v-183h-159v-197c0 -42.667 5.83301 -72 17.5 -88s34.167 -24 67.5 -24c27.333 0 49.666 2.33301 66.999 7l-2 -220c-48 -18 -100 -27 -156 -27c-181.333 0 -273.666 103 -276.999 309v240h-165v183h165v157h-125v213h125v266h283z
" />
    <glyph glyph-name="Utilde" unicode="&#x168;" horiz-adv-x="1170" 
d="M1064 1456v-1008c-1.33301 -151.333 -43 -267.166 -125 -347.499s-199.667 -120.5 -353 -120.5c-156 0 -275.167 40.667 -357.5 122s-123.5 199 -123.5 353v1001h296v-1002c0 -82.667 13.333 -141.667 40 -177s75 -53 145 -53s118 17.5 144 52.5s39.333 92.5 40 172.5
v1007h294zM902 1831c0 -74 -18.8379 -136.833 -56.5049 -188.5s-85.167 -77.5 -142.5 -77.5c-21.333 0 -40.166 3 -56.499 9s-39.333 18.333 -69 37s-50.667 30 -63 34s-25.833 6 -40.5 6c-18 0 -33 -8.16699 -45 -24.5s-18 -39.833 -18 -70.5l-160 9
c0 74 19 137.167 57 189.5s84.667 78.5 140 78.5c14.667 0 28.834 -2.16699 42.501 -6.5s37.334 -16 71.001 -35s57.834 -31 72.501 -36s29.334 -7.5 44.001 -7.5c17.333 0 32.5 8.16699 45.5 24.5s19.5 39.833 19.5 70.5z" />
    <glyph glyph-name="utilde" unicode="&#x169;" horiz-adv-x="1008" 
d="M635 99c-58.667 -79.333 -137.335 -119 -236.002 -119c-99.333 0 -174.666 34.167 -225.999 102.5s-77 167.833 -77 298.5v701h283v-708c1.33301 -105.333 36.333 -158 105 -158c64.667 0 111.334 28 140.001 84v782h285v-1082h-266zM822.999 1522
c0 -74 -18.8379 -136.833 -56.5049 -188.5s-85.167 -77.5 -142.5 -77.5c-21.333 0 -40.166 3 -56.499 9s-39.333 18.333 -69 37s-50.667 30 -63 34s-25.833 6 -40.5 6c-18 0 -33 -8.16699 -45 -24.5s-18 -39.833 -18 -70.5l-160 9c0 74 19 137.167 57 189.5
s84.667 78.5 140 78.5c14.667 0 28.834 -2.16699 42.501 -6.5s37.334 -16 71.001 -35s57.834 -31 72.501 -36s29.334 -7.5 44.001 -7.5c17.333 0 32.5 8.16699 45.5 24.5s19.5 39.833 19.5 70.5z" />
    <glyph glyph-name="Umacron" unicode="&#x16a;" horiz-adv-x="1170" 
d="M1064 1456v-1008c-1.33301 -151.333 -43 -267.166 -125 -347.499s-199.667 -120.5 -353 -120.5c-156 0 -275.167 40.667 -357.5 122s-123.5 199 -123.5 353v1001h296v-1002c0 -82.667 13.333 -141.667 40 -177s75 -53 145 -53s118 17.5 144 52.5s39.333 92.5 40 172.5
v1007h294zM879 1595h-600v168h600v-168z" />
    <glyph glyph-name="umacron" unicode="&#x16b;" horiz-adv-x="1008" 
d="M635 99c-58.667 -79.333 -137.335 -119 -236.002 -119c-99.333 0 -174.666 34.167 -225.999 102.5s-77 167.833 -77 298.5v701h283v-708c1.33301 -105.333 36.333 -158 105 -158c64.667 0 111.334 28 140.001 84v782h285v-1082h-266zM799.999 1286h-600v168h600v-168z
" />
    <glyph glyph-name="Ubreve" unicode="&#x16c;" horiz-adv-x="1170" 
d="M1064 1456v-1008c-1.33301 -151.333 -43 -267.166 -125 -347.499s-199.667 -120.5 -353 -120.5c-156 0 -275.167 40.667 -357.5 122s-123.5 199 -123.5 353v1001h296v-1002c0 -82.667 13.333 -141.667 40 -177s75 -53 145 -53s118 17.5 144 52.5s39.333 92.5 40 172.5
v1007h294zM926 1837c0 -88.667 -31.832 -160.334 -95.499 -215.001s-147.5 -82 -251.5 -82c-104.667 0 -188.834 27.333 -252.501 82s-95.5 126.334 -95.5 215.001h207c0 -41.333 12.5 -73.5 37.5 -96.5s59.5 -34.5 103.5 -34.5c43.333 0 77.333 11.5 102 34.5
s37 55.167 37 96.5h208z" />
    <glyph glyph-name="ubreve" unicode="&#x16d;" horiz-adv-x="1008" 
d="M635 99c-58.667 -79.333 -137.335 -119 -236.002 -119c-99.333 0 -174.666 34.167 -225.999 102.5s-77 167.833 -77 298.5v701h283v-708c1.33301 -105.333 36.333 -158 105 -158c64.667 0 111.334 28 140.001 84v782h285v-1082h-266zM846.999 1527
c0 -88.667 -31.832 -160.334 -95.499 -215.001s-147.5 -82 -251.5 -82c-104.667 0 -188.834 27.333 -252.501 82s-95.5 126.334 -95.5 215.001h207c0 -41.333 12.5 -73.5 37.5 -96.5s59.5 -34.5 103.5 -34.5c43.333 0 77.333 11.5 102 34.5s37 55.167 37 96.5h208z" />
    <glyph glyph-name="Uring" unicode="&#x16e;" horiz-adv-x="1170" 
d="M1064 1456v-1008c-1.33301 -151.333 -43 -267.166 -125 -347.499s-199.667 -120.5 -353 -120.5c-156 0 -275.167 40.667 -357.5 122s-123.5 199 -123.5 353v1001h296v-1002c0 -82.667 13.333 -141.667 40 -177s75 -53 145 -53s118 17.5 144 52.5s39.333 92.5 40 172.5
v1007h294zM356 1730c0 57.333 21.667 105.835 65 145.502s96 59.5 158 59.5c61.333 0 113.833 -19.5 157.5 -58.5s65.5 -87.833 65.5 -146.5c0 -56.667 -21.333 -104.334 -64 -143.001s-95.667 -58 -159 -58c-64.667 0 -118 19.667 -160 59s-63 86.666 -63 141.999z
M579 1623c33.333 0 59.668 10.333 79.001 31s29 46 29 76c0 30.667 -9.83301 56.5 -29.5 77.5s-45.834 31.5 -78.501 31.5c-31.333 0 -57 -10.333 -77 -31s-30 -46.667 -30 -78s10.167 -57 30.5 -77s45.833 -30 76.5 -30z" />
    <glyph glyph-name="uring" unicode="&#x16f;" horiz-adv-x="1008" 
d="M635 99c-58.667 -79.333 -137.335 -119 -236.002 -119c-99.333 0 -174.666 34.167 -225.999 102.5s-77 167.833 -77 298.5v701h283v-708c1.33301 -105.333 36.333 -158 105 -158c64.667 0 111.334 28 140.001 84v782h285v-1082h-266zM276.999 1420
c0 57.333 21.667 105.835 65 145.502s96 59.5 158 59.5c61.333 0 113.833 -19.5 157.5 -58.5s65.5 -87.833 65.5 -146.5c0 -56.667 -21.333 -104.334 -64 -143.001s-95.667 -58 -159 -58c-64.667 0 -118 19.667 -160 59s-63 86.666 -63 141.999zM499.999 1313
c33.333 0 59.668 10.333 79.001 31s29 46 29 76c0 30.667 -9.83301 56.5 -29.5 77.5s-45.834 31.5 -78.501 31.5c-31.333 0 -57 -10.333 -77 -31s-30 -46.667 -30 -78s10.167 -57 30.5 -77s45.833 -30 76.5 -30z" />
    <glyph glyph-name="Uhungarumlaut" unicode="&#x170;" horiz-adv-x="1170" 
d="M1064 1456v-1008c-1.33301 -151.333 -43 -267.166 -125 -347.499s-199.667 -120.5 -353 -120.5c-156 0 -275.167 40.667 -357.5 122s-123.5 199 -123.5 353v1001h296v-1002c0 -82.667 13.333 -141.667 40 -177s75 -53 145 -53s118 17.5 144 52.5s39.333 92.5 40 172.5
v1007h294zM797 1845h247l-220 -301h-207zM450 1845h244l-191 -301h-202z" />
    <glyph glyph-name="uhungarumlaut" unicode="&#x171;" horiz-adv-x="1008" 
d="M635 99c-58.667 -79.333 -137.335 -119 -236.002 -119c-99.333 0 -174.666 34.167 -225.999 102.5s-77 167.833 -77 298.5v701h283v-708c1.33301 -105.333 36.333 -158 105 -158c64.667 0 111.334 28 140.001 84v782h285v-1082h-266zM717.999 1535h247l-220 -301h-207z
M370.999 1535h244l-191 -301h-202z" />
    <glyph glyph-name="Uogonek" unicode="&#x172;" horiz-adv-x="1170" 
d="M1064 1456l-0.000976562 -993.999c0 -221.333 -79 -367 -237 -437c-44.667 -37.333 -67 -81.333 -67 -132c0 -43.333 17 -65 51 -65c16.667 0 37.334 6.66699 62.001 20l27 -158c-43.333 -29.333 -92 -44 -146 -44c-60.667 0 -109.667 19 -147 57s-56 88.667 -56 152
c0 48.667 8.66699 90.334 26 125.001c-151.333 1.33301 -267.5 42.166 -348.5 122.499s-122.167 195.166 -123.5 344.499v1009h296v-1002c0 -82.667 13.333 -141.667 40 -177s75 -53 145 -53s118 17.5 144 52.5s39.333 92.5 40 172.5v1007h294z" />
    <glyph glyph-name="uogonek" unicode="&#x173;" horiz-adv-x="1008" 
d="M877 0c-42.667 -28 -74.001 -55.333 -94.001 -82s-30 -57.667 -30 -93c0 -43.333 17 -65 51 -65c16.667 0 37.334 6.66699 62.001 20l27 -158c-43.333 -29.333 -92 -44 -146 -44c-60.667 0 -109.667 19 -147 57s-56 88.667 -56 152c0 38.667 6.66699 76.167 20 112.5
s39.666 70.5 78.999 102.5l-8 97c-58.667 -79.333 -137.334 -119 -236.001 -119c-99.333 0 -174.666 34.167 -225.999 102.5s-77 167.833 -77 298.5v701h283v-708c1.33301 -105.333 36.333 -158 105 -158c64.667 0 111.334 28 140.001 84v782h285v-1082h-32z" />
    <glyph glyph-name="Wcircumflex" unicode="&#x174;" horiz-adv-x="1534" 
d="M1063 541l138 915h291l-259 -1456h-295l-170 858l-168 -858h-296l-260 1456h293l137 -914l171 914h247zM1121 1566v-12h-221l-125 144l-125 -144h-216v16l260 276h162z" />
    <glyph glyph-name="wcircumflex" unicode="&#x175;" horiz-adv-x="1296" 
d="M891 475l97 607h271l-224 -1082h-235l-153 626l-153 -626h-236l-224 1082h272l96 -608l144 608h201zM992 1256v-12h-221l-125 144l-125 -144h-216v16l260 276h162z" />
    <glyph glyph-name="Ycircumflex" unicode="&#x176;" horiz-adv-x="1111" 
d="M556 802l219 654h320l-390 -928v-528h-298v528l-391 928h320zM904 1566v-12h-221l-125 144l-125 -144h-216v16l260 276h162z" />
    <glyph glyph-name="ycircumflex" unicode="&#x177;" horiz-adv-x="914" 
d="M450 471l144 611h302l-356 -1244c-53.333 -183.333 -153.666 -275 -300.999 -275c-34 0 -72.667 6.33301 -116 19v221l33 -1c44 0 77.167 8.5 99.5 25.5s39.166 46.5 50.499 88.5l22 73l-312 1093h304zM805 1256v-12h-221l-125 144l-125 -144h-216v16l260 276h162z" />
    <glyph glyph-name="Ydieresis" unicode="&#x178;" horiz-adv-x="1111" 
d="M556 802l219 654h320l-390 -928v-528h-298v528l-391 928h320zM174 1675c0 36.667 13.5 67.167 40.5 91.5s59.833 36.5 98.5 36.5s71.5 -12.167 98.5 -36.5s40.5 -54.833 40.5 -91.5c0 -36 -13.5 -66.167 -40.5 -90.5s-59.833 -36.5 -98.5 -36.5s-71.5 12.167 -98.5 36.5
s-40.5 54.5 -40.5 90.5zM663 1675c0 36 13.5 66.167 40.5 90.5s59.833 36.5 98.5 36.5s71.5 -12.167 98.5 -36.5s40.5 -54.5 40.5 -90.5c0 -34.667 -12.833 -64.5 -38.5 -89.5s-59.167 -37.5 -100.5 -37.5s-74.833 12.5 -100.5 37.5s-38.5 54.833 -38.5 89.5z" />
    <glyph glyph-name="Zacute" unicode="&#x179;" horiz-adv-x="1086" 
d="M422 244h600v-244h-944v177l594 1034h-600v245h939v-173zM609 1846h318l-278 -310h-236z" />
    <glyph glyph-name="zacute" unicode="&#x17a;" horiz-adv-x="927" 
d="M416 235h428v-235h-764v177l418 669h-408v236h748v-171zM517 1536h318l-278 -310h-236z" />
    <glyph glyph-name="Zdotaccent" unicode="&#x17b;" horiz-adv-x="1086" 
d="M422 244h600v-244h-944v177l594 1034h-600v245h939v-173zM403 1702c0 41.333 14 74.666 42 99.999s63.667 38 107 38s79 -12.667 107 -38s42 -58.666 42 -99.999c0 -40 -13.333 -72.667 -40 -98s-63 -38 -109 -38s-82.333 12.667 -109 38s-40 58 -40 98z" />
    <glyph glyph-name="zdotaccent" unicode="&#x17c;" horiz-adv-x="927" 
d="M416 235h428v-235h-764v177l418 669h-408v236h748v-171zM311 1392c0 41.333 14 74.666 42 99.999s63.667 38 107 38s79 -12.667 107 -38s42 -58.666 42 -99.999c0 -40 -13.333 -72.667 -40 -98s-63 -38 -109 -38s-82.333 12.667 -109 38s-40 58 -40 98z" />
    <glyph glyph-name="Zcaron" unicode="&#x17d;" horiz-adv-x="1086" 
d="M422 244h600v-244h-944v177l594 1034h-600v245h939v-173zM552 1705l116 142h240v-11l-268 -281h-176l-267 283v9h240z" />
    <glyph glyph-name="zcaron" unicode="&#x17e;" horiz-adv-x="927" 
d="M416 235h428v-235h-764v177l418 669h-408v236h748v-171zM460 1395l116 142h240v-11l-268 -281h-176l-267 283v9h240z" />
    <glyph glyph-name="longs" unicode="&#x17f;" horiz-adv-x="504" 
d="M108 0l0.000976562 1178c0.666992 122 32.167 215.667 94.5 281s149.166 98 260.499 98c36 0 82.667 -7 140 -21l-24 -225c-24.667 7.33301 -50.667 11 -78 11c-73.333 0 -110 -51 -110 -153v-1169h-283z" />
    <glyph glyph-name="uni018F" unicode="&#x18f;" horiz-adv-x="1231" 
d="M601 -20c-168.667 0 -298.999 59.001 -390.999 177.001s-138.667 284.667 -140 500v171h769c-3.33301 126 -31.833 221.333 -85.5 286s-130.5 97 -230.5 97c-113.333 0 -218.333 -21 -315 -63l-44 250c24 17.333 74.667 34.666 152 51.999s151.666 26 222.999 26
c185.333 0 331 -60.5 437 -181.5s159 -289.5 159 -505.5v-139c0 -126.667 -23.333 -241.5 -70 -344.5s-111 -183 -193 -240s-172.333 -85.5 -271 -85.5zM601.001 244.001c66 0 120 30.167 162 90.5s66.667 142.833 74 247.5h-474v-31c0 -204.667 79.333 -307 238 -307z" />
    <glyph glyph-name="florin" unicode="&#x192;" horiz-adv-x="677" 
d="M608 869h-161l-1 -920c-0.666992 -122.667 -29.167 -217.667 -85.5 -285s-135.166 -101 -236.499 -101c-46 0 -87.667 5.66699 -125 17l12 231c22.667 -8.66699 47.667 -13 75 -13c31.333 0 52 13.167 62 39.5s15 64.5 15 114.5v917h-130v213h130v92
c0 122.667 31 217.167 93 283.5s149.333 99.5 262 99.5c36 0 82.667 -7 140 -21l-24 -226c-22.667 6.66699 -49.334 10 -80.001 10c-70 0 -105.667 -47 -107 -141v-97h161v-213z" />
    <glyph glyph-name="Ohorn" unicode="&#x1a0;" horiz-adv-x="1245" 
d="M1140 695c0 -142.667 -21.833 -268 -65.5 -376s-106.167 -191.5 -187.5 -250.5s-174.333 -88.5 -279 -88.5c-103.333 0 -195.666 29 -276.999 87s-144.333 140.667 -189 248s-67.334 231 -68.001 371v73c0 141.333 22 266.5 66 375.5s106.5 193.167 187.5 252.5
s173.833 89 278.5 89c154 0 280 -61.333 378 -184c31.333 16 53 47.667 65 95s18 107 18 179h188c0 -222.667 -62.333 -362 -187 -418c46.667 -108 70.667 -233.667 72 -377v-76zM842 761c0 152.667 -20.501 268.333 -61.501 347s-99.167 118 -174.5 118
s-133.166 -38.667 -173.499 -116s-60.833 -191.333 -61.5 -342v-73c0 -151.333 20.5 -267 61.5 -347s99.5 -120 175.5 -120c75.333 0 133 39.333 173 118s60.333 192.667 61 342v73z" />
    <glyph glyph-name="ohorn" unicode="&#x1a1;" horiz-adv-x="1051" 
d="M70 551c0 168 39.667 301.832 119 401.499s185 149.5 317 149.5s237.333 -48.667 316 -146c35.333 36.667 53 112.334 53 227.001h167c0 -177.333 -49.667 -293.333 -149 -348c34.667 -83.333 52 -185 52 -305c0 -167.333 -39.333 -300.833 -118 -400.5
s-185 -149.5 -319 -149.5c-128 0 -231 45.5 -309 136.5s-120.667 214.5 -128 370.5zM352 529.999c0 -210 52 -315 156 -315c94 0 144.667 89.667 152 269l1 67c0 210.667 -51.667 316 -155 316c-50 0 -88.167 -26.5 -114.5 -79.5s-39.5 -138.833 -39.5 -257.5z" />
    <glyph glyph-name="Uhorn" unicode="&#x1af;" horiz-adv-x="1282" 
d="M1064 1456l-0.000976562 -226.999c41.333 4.66699 73 16.5 95 35.5s38 46.833 48 83.5s15 99.667 15 189h184c0 -160 -27 -276.333 -81 -349s-141 -112 -261 -118v-580c-1.33301 -158.667 -44.666 -283.334 -129.999 -374.001s-201.333 -136 -348 -136
c-148 0 -264.833 45.167 -350.5 135.5s-129.167 214.833 -130.5 373.5v967h296v-980c4 -168 65.667 -252 185 -252c118.667 0 180 84 184 252v980h294z" />
    <glyph glyph-name="uhorn" unicode="&#x1b0;" horiz-adv-x="1107" 
d="M1165 1177c0 -118.667 -20.168 -207.332 -60.501 -265.999s-105.5 -94.334 -195.5 -107.001v-804h-266l-8 99c-58.667 -79.333 -137.334 -119 -236.001 -119c-99.333 0 -174.666 34.167 -225.999 102.5s-77 167.833 -77 298.5v701h283v-708
c1.33301 -105.333 36.333 -158 105 -158c64.667 0 111.334 28 140.001 84v782h285v-136c33.333 10.667 57 31.667 71 63s21 87.333 21 168h164z" />
    <glyph glyph-name="uni01F0" unicode="&#x1f0;" horiz-adv-x="550" 
d="M423 1082v-1122c-1.33301 -127.333 -31.5 -225.333 -90.5 -294s-140.833 -103 -245.5 -103c-46.667 0 -88.667 5.66699 -126 17l13 231c28.667 -8.66699 56 -13 82 -13c56 0 84 58.333 84 175v1109h283zM262 1370l116 142h240v-11l-268 -281h-176l-267 283v9h240z" />
    <glyph glyph-name="Aringacute" unicode="&#x1fa;" horiz-adv-x="1223" 
d="M812 298h-401l-78 -298h-311l455 1456h269l458 -1456h-314zM475 543h272l-136 519zM706 2000h250l-241 -208h-170zM433 1566c0 53.333 17.667 97.833 53 133.5s78 53.5 128 53.5c48.667 0 90.334 -17.667 125.001 -53s52 -80 52 -134
c0 -53.333 -16.833 -97.333 -50.5 -132s-75.834 -52 -126.501 -52c-52 0 -95.167 17.5 -129.5 52.5s-51.5 78.833 -51.5 131.5zM538 1566c0 -26 7.16699 -47.333 21.5 -64s32.5 -25 54.5 -25c21.333 0 38.666 8.33301 51.999 25s20 38 20 64
c0 26.667 -6.66699 48.5 -20 65.5s-30.666 25.5 -51.999 25.5c-22 0 -40.167 -8.5 -54.5 -25.5s-21.5 -38.833 -21.5 -65.5z" />
    <glyph glyph-name="aringacute" unicode="&#x1fb;" horiz-adv-x="964" 
d="M617 0c-8 16.667 -15.9971 44.668 -23.9971 84.001c-50.667 -69.333 -119.334 -104 -206.001 -104c-90.667 0 -165.834 30 -225.501 90s-89.5 137.667 -89.5 233c0 113.333 36.167 201 108.5 263s176.5 93.667 312.5 95h86v87c0 48.667 -8.33301 83 -25 103
s-41 30 -73 30c-70.667 0 -106 -41.333 -106 -124h-283c0 100 37.5 182.5 112.5 247.5s169.833 97.5 284.5 97.5c118.667 0 210.5 -30.833 275.5 -92.5s97.5 -149.834 97.5 -264.501v-509c1.33301 -93.333 14.666 -166.333 39.999 -219v-17h-285zM450.003 202.001
c31.333 0 58 6.33301 80 19s38.333 27.667 49 45v225h-68c-48 0 -85.833 -15.333 -113.5 -46s-41.5 -71.667 -41.5 -123c0 -80 31.333 -120 94 -120zM570.003 1691h250l-241 -208h-170zM297.003 1257c0 53.333 17.667 97.833 53 133.5s78 53.5 128 53.5
c48.667 0 90.334 -17.667 125.001 -53s52 -80 52 -134c0 -53.333 -16.833 -97.333 -50.5 -132s-75.834 -52 -126.501 -52c-52 0 -95.167 17.5 -129.5 52.5s-51.5 78.833 -51.5 131.5zM402.003 1257c0 -26 7.16699 -47.333 21.5 -64s32.5 -25 54.5 -25
c21.333 0 38.666 8.33301 51.999 25s20 38 20 64c0 26.667 -6.66699 48.5 -20 65.5s-30.666 25.5 -51.999 25.5c-22 0 -40.167 -8.5 -54.5 -25.5s-21.5 -38.833 -21.5 -65.5z" />
    <glyph glyph-name="AEacute" unicode="&#x1fc;" horiz-adv-x="1674" 
d="M1602 0h-778l-12 333h-333l-132 -333h-332l643 1456h892v-238h-485l13 -352h404v-238h-396l13 -390h503v-238zM577 582h226l-18 524zM856 1858h318l-278 -310h-236z" />
    <glyph glyph-name="aeacute" unicode="&#x1fd;" horiz-adv-x="1491" 
d="M1063 -20c-136.667 0 -244.668 45.333 -324.001 136c-37.333 -44 -84 -77.667 -140 -101s-117.333 -35 -184 -35c-108 0 -192.333 29.833 -253 89.5s-91 142.834 -91 249.501c0 104.667 35.167 185.667 105.5 243s174.833 86.666 313.5 87.999h125v55
c0 50.667 -9.66699 90.334 -29 119.001s-46.333 43 -81 43c-38 0 -67.667 -12 -89 -36s-32 -53 -32 -87l-282 19c0 100 37.667 181.5 113 244.5s173 94.5 293 94.5c113.333 0 203.333 -31.333 270 -94c70.667 64 159 95.333 265 94c120.667 0 215.334 -43.333 284.001 -130
s103.667 -204.334 105 -353.001v-170h-540c6 -76.667 26.167 -135 60.5 -175s81.5 -60 141.5 -60c42 0 80.667 5.33301 116 16s77 31 125 61l72 -191c-32 -32 -80.333 -60 -145 -84s-131 -36 -199 -36zM470.999 193c48 0 96 22.333 144 67v200h-115
c-42 0 -76.833 -13.5 -104.5 -40.5s-41.5 -61.833 -41.5 -104.5c0 -81.333 39 -122 117 -122zM1043 867c-88 0 -138 -74.333 -150 -223h262v28c0 58 -8.83301 105 -26.5 141s-46.167 54 -85.5 54zM801.999 1537h318l-278 -310h-236z" />
    <glyph glyph-name="Oslashacute" unicode="&#x1fe;" horiz-adv-x="1233" 
d="M1158 695c0 -142.667 -21.833 -267.999 -65.5 -375.999s-106.167 -191.5 -187.5 -250.5s-174.333 -88.5 -279 -88.5c-89.333 0 -170 21.333 -242 64l-68 -139h-177l120 245c-111.333 131.333 -167 315.666 -167 552.999v56c0 143.333 22.167 269.5 66.5 378.5
s107 192.667 188 251s173.5 87.5 277.5 87.5c92.667 0 176.667 -23.333 252 -70l55 112h178l-110 -223c105.333 -132.667 158.333 -311 159 -535v-65zM389 695.001c0 -92.667 7.33301 -170.667 22 -234l347 705c-36.667 40 -81.334 60 -134.001 60
c-75.333 0 -133.166 -38.667 -173.499 -116s-60.833 -191.333 -61.5 -342v-73zM860 761.001c0 78.667 -6.33301 149.667 -19 213l-341 -695c34 -34 76 -51 126 -51c74.667 0 132.167 39.333 172.5 118s60.833 192.667 61.5 342v73zM678 1920h318l-278 -310h-236z" />
    <glyph glyph-name="oslashacute" unicode="&#x1ff;" horiz-adv-x="1017" 
d="M71 551c0 168 39.666 301.833 118.999 401.5s185 149.5 317 149.5c52.667 0 102.334 -8.33301 149.001 -25l57 139h152l-87 -212c112 -98.667 168 -256.667 168 -474c0 -167.333 -39.333 -300.833 -118 -400.5s-185 -149.5 -319 -149.5c-52 0 -99.333 7.33301 -142 22
l-59 -144h-152l88 214c-115.333 99.333 -173 259 -173 479zM353.999 530c0 -66.667 4.33398 -119 13.001 -157l197 480c-17.333 9.33301 -36.333 14 -57 14c-92.667 0 -143.334 -89.333 -152.001 -268zM663 551c0 52.667 -4 101 -12 145l-193 -471
c14 -6.66699 31 -10 51 -10c93.333 0 144.333 88 153 264zM534 1532h318l-278 -310h-236z" />
    <glyph glyph-name="Scommaaccent" unicode="&#x218;" horiz-adv-x="1106" 
d="M732 382c0 59.333 -15.166 104.169 -45.499 134.502s-85.5 61.833 -165.5 94.5c-146 55.333 -251 120.166 -315 194.499s-96 162.166 -96 263.499c0 122.667 43.5 221.167 130.5 295.5s197.5 111.5 331.5 111.5c89.333 0 169 -18.833 239 -56.5
s123.833 -90.834 161.5 -159.501s56.5 -146.667 56.5 -234h-293c0 68 -14.5 119.833 -43.5 155.5s-70.833 53.5 -125.5 53.5c-51.333 0 -91.333 -15.167 -120 -45.5s-43 -71.166 -43 -122.499c0 -40 16 -76.167 48 -108.5s88.667 -65.833 170 -100.5
c142 -51.333 245.167 -114.333 309.5 -189s96.5 -169.667 96.5 -285c0 -126.667 -40.333 -225.667 -121 -297s-190.334 -107 -329.001 -107c-94 0 -179.667 19.333 -257 58s-137.833 94 -181.5 166s-65.5 157 -65.5 255h295c0 -84 16.333 -145 49 -183s86 -57 160 -57
c102.667 0 154 54.333 154 163zM541.001 -516.997l-138 79c41.333 79.333 63 159.333 65 240v106h204v-76c-0.666992 -60.667 -13.167 -123.5 -37.5 -188.5s-55.5 -118.5 -93.5 -160.5z" />
    <glyph glyph-name="scommaaccent" unicode="&#x219;" horiz-adv-x="930" 
d="M582 290c0 24 -11.498 46.165 -34.498 66.498s-74.167 47.833 -153.5 82.5c-116.667 47.333 -196.834 96.333 -240.501 147s-65.5 113.667 -65.5 189c0 94.667 34.167 172.834 102.5 234.501s158.833 92.5 271.5 92.5c118.667 0 213.667 -30.667 285 -92
s107 -143.666 107 -246.999h-283c0 88 -36.667 132 -110 132c-30 0 -54.667 -9.33301 -74 -28s-29 -44.667 -29 -78c0 -24 10.667 -45.167 32 -63.5s71.666 -44.5 150.999 -78.5c115.333 -42.667 196.833 -90.167 244.5 -142.5s71.5 -120.166 71.5 -203.499
c0 -96.667 -36.333 -174.334 -109 -233.001s-168 -88 -286 -88c-79.333 0 -149.333 15.5 -210 46.5s-108.167 74.167 -142.5 129.5s-51.5 115 -51.5 179h269c1.33301 -49.333 12.833 -86.333 34.5 -111s57.167 -37 106.5 -37c76 0 114 34.333 114 103zM438.002 -527.002
l-138 79c41.333 79.333 63 159.333 65 240v106h204v-76c-0.666992 -60.667 -13.167 -123.5 -37.5 -188.5s-55.5 -118.5 -93.5 -160.5z" />
    <glyph glyph-name="uni021A" unicode="&#x21a;" horiz-adv-x="1112" 
d="M1060 1211h-360v-1211h-295v1211h-354v245h1009v-245zM523 -510l-138 79c41.333 79.333 63 159.333 65 240v106h204v-76c-0.666992 -60.667 -13.167 -123.5 -37.5 -188.5s-55.5 -118.5 -93.5 -160.5z" />
    <glyph glyph-name="uni021B" unicode="&#x21b;" horiz-adv-x="629" 
d="M432 1348l0.000976562 -266h145v-213h-145v-537c0 -42.667 5.83301 -72 17.5 -88s34.167 -24 67.5 -24c27.333 0 49.666 2.33301 66.999 7l-2 -220c-48 -18 -100 -27 -156 -27c-182.667 0 -275 104.667 -277 314v575h-125v213h125v266h283zM359.001 -517l-138 79
c41.333 79.333 63 159.333 65 240v106h204v-76c-0.666992 -60.667 -13.167 -123.5 -37.5 -188.5s-55.5 -118.5 -93.5 -160.5z" />
    <glyph glyph-name="uni0237" unicode="&#x237;" horiz-adv-x="550" 
d="M423 1082v-1122c-1.33301 -127.333 -31.5 -225.333 -90.5 -294s-140.833 -103 -245.5 -103c-46.667 0 -88.667 5.66699 -126 17l13 231c28.667 -8.66699 56 -13 82 -13c56 0 84 58.333 84 175v1109h283z" />
    <glyph glyph-name="uni0259" unicode="&#x259;" horiz-adv-x="959" 
d="M452 1103c132.667 0 239.499 -48.668 320.499 -146.001s121.5 -228.333 121.5 -393v-30c0 -167.333 -38.333 -301.666 -115 -402.999s-177 -151.333 -301 -150c-124.667 0 -221.667 42.667 -291 128s-104 207.333 -104 366v159h525c-8 76 -28 134 -60 174
s-74.333 60 -127 60c-42.667 0 -81.5 -5 -116.5 -15s-77.833 -30.667 -128.5 -62l-75 188c36 36 85.833 65.667 149.5 89s130.834 35 201.501 35zM477.999 215.999c70.667 0 113.667 73 129 219h-247v-25c0 -129.333 39.333 -194 118 -194z" />
    <glyph glyph-name="afii57929" unicode="&#x2bc;" horiz-adv-x="460" 
d="M197 1009l-130 79c47.333 94 72 185.333 74 274v174h222v-158c-0.666992 -60.667 -16.5 -126.167 -47.5 -196.5s-70.5 -127.833 -118.5 -172.5z" />
    <glyph glyph-name="circumflex" unicode="&#x2c6;" horiz-adv-x="929" 
d="M805 1256v-12h-221l-125 144l-125 -144h-216v16l260 276h162z" />
    <glyph glyph-name="caron" unicode="&#x2c7;" horiz-adv-x="883" 
d="M436 1395l116 142h240v-11l-268 -281h-176l-267 283v9h240z" />
    <glyph glyph-name="uni02C9" unicode="&#x2c9;" horiz-adv-x="938" 
d="M767 1287h-600v168h600v-168z" />
    <glyph glyph-name="breve" unicode="&#x2d8;" horiz-adv-x="910" 
d="M800 1527c0 -88.667 -31.832 -160.334 -95.499 -215.001s-147.5 -82 -251.5 -82c-104.667 0 -188.834 27.333 -252.501 82s-95.5 126.334 -95.5 215.001h207c0 -41.333 12.5 -73.5 37.5 -96.5s59.5 -34.5 103.5 -34.5c43.333 0 77.333 11.5 102 34.5s37 55.167 37 96.5
h208z" />
    <glyph glyph-name="dotaccent" unicode="&#x2d9;" horiz-adv-x="544" 
d="M118 1374c0 41.333 14 74.666 42 99.999s63.667 38 107 38s79 -12.667 107 -38s42 -58.666 42 -99.999c0 -40 -13.333 -72.667 -40 -98s-63 -38 -109 -38s-82.333 12.667 -109 38s-40 58 -40 98z" />
    <glyph glyph-name="ring" unicode="&#x2da;" horiz-adv-x="682" 
d="M119 1323c0 57.333 21.667 105.835 65 145.502s96 59.5 158 59.5c61.333 0 113.833 -19.5 157.5 -58.5s65.5 -87.833 65.5 -146.5c0 -56.667 -21.333 -104.334 -64 -143.001s-95.667 -58 -159 -58c-64.667 0 -118 19.667 -160 59s-63 86.666 -63 141.999zM342 1216
c33.333 0 59.668 10.333 79.001 31s29 46 29 76c0 30.667 -9.83301 56.5 -29.5 77.5s-45.834 31.5 -78.501 31.5c-31.333 0 -57 -10.333 -77 -31s-30 -46.667 -30 -78s10.167 -57 30.5 -77s45.833 -30 76.5 -30z" />
    <glyph glyph-name="ogonek" unicode="&#x2db;" horiz-adv-x="583" 
d="M375 0c-42.667 -28 -74.001 -55.333 -94.001 -82s-30 -57.667 -30 -93c0 -43.333 17 -65 51 -65c16.667 0 37.334 6.66699 62.001 20l27 -158c-43.333 -29.333 -92 -44 -146 -44c-60.667 0 -109.667 19 -147 57s-56 88.667 -56 152s15.333 116.5 46 159.5
s78.667 80.833 144 113.5z" />
    <glyph glyph-name="tilde" unicode="&#x2dc;" horiz-adv-x="895" 
d="M774 1524c0 -74 -18.8379 -136.833 -56.5049 -188.5s-85.167 -77.5 -142.5 -77.5c-21.333 0 -40.166 3 -56.499 9s-39.333 18.333 -69 37s-50.667 30 -63 34s-25.833 6 -40.5 6c-18 0 -33 -8.16699 -45 -24.5s-18 -39.833 -18 -70.5l-160 9c0 74 19 137.167 57 189.5
s84.667 78.5 140 78.5c14.667 0 28.834 -2.16699 42.501 -6.5s37.334 -16 71.001 -35s57.834 -31 72.501 -36s29.334 -7.5 44.001 -7.5c17.333 0 32.5 8.16699 45.5 24.5s19.5 39.833 19.5 70.5z" />
    <glyph glyph-name="hungarumlaut" unicode="&#x2dd;" horiz-adv-x="758" 
d="M549 1535h247l-220 -301h-207zM202 1535h244l-191 -301h-202z" />
    <glyph glyph-name="uni02F3" unicode="&#x2f3;" horiz-adv-x="582" 
d="M133 -230c0 47.333 15.833 88 47.5 122s71.167 51 118.5 51s86.5 -16.833 117.5 -50.5s46.5 -74.5 46.5 -122.5c0 -48.667 -15.667 -89 -47 -121s-70.333 -48 -117 -48c-47.333 0 -86.833 16.167 -118.5 48.5s-47.5 72.5 -47.5 120.5zM236 -230
c0 -21.333 6.16699 -38.833 18.5 -52.5s27.166 -20.5 44.499 -20.5s31.666 6.83301 42.999 20.5s17 31.167 17 52.5c0 22.667 -5.66699 41.167 -17 55.5s-25.666 21.5 -42.999 21.5s-32.166 -7.16699 -44.499 -21.5s-18.5 -32.833 -18.5 -55.5z" />
    <glyph glyph-name="gravecomb" unicode="&#x300;" horiz-adv-x="0" 
d="M-283 1226h-229l-246 310h307z" />
    <glyph glyph-name="acutecomb" unicode="&#x301;" horiz-adv-x="0" 
d="M-404 1536h306l-246 -310h-226z" />
    <glyph glyph-name="tildecomb" unicode="&#x303;" horiz-adv-x="0" 
d="M-125 1524c0 -74 -18.8379 -136.833 -56.5049 -188.5s-85.167 -77.5 -142.5 -77.5c-21.333 0 -40.166 3 -56.499 9s-39.333 18.333 -69 37s-50.667 30 -63 34s-25.833 6 -40.5 6c-18 0 -33 -8.16699 -45 -24.5s-18 -39.833 -18 -70.5l-160 9c0 74 19 137.167 57 189.5
s84.667 78.5 140 78.5c14.667 0 28.834 -2.16699 42.501 -6.5s37.334 -16 71.001 -35s57.834 -31 72.501 -36s29.334 -7.5 44.001 -7.5c17.333 0 32.5 8.16699 45.5 24.5s19.5 39.833 19.5 70.5z" />
    <glyph glyph-name="hookabovecomb" unicode="&#x309;" horiz-adv-x="0" 
d="M-603 1267l-16 133.999c38 2.66699 65.333 8.83398 82 18.501s25 25.167 25 46.5c0 26.667 -9.16699 44.667 -27.5 54s-43.833 14 -76.5 14l6 137c112 0 195.833 -17.5 251.5 -52.5s83.5 -82.5 83.5 -142.5c0 -37.333 -10.167 -68.833 -30.5 -94.5
s-49.5 -42.167 -87.5 -49.5v-65h-210z" />
    <glyph glyph-name="uni030F" unicode="&#x30f;" horiz-adv-x="0" 
d="M-394 1252h-229l-243 266h273zM-88 1252h-225l-205 266h270z" />
    <glyph glyph-name="dotbelowcomb" unicode="&#x323;" horiz-adv-x="0" 
d="M-600 -95c48.667 0 88.167 -13.167 118.5 -39.5s45.5 -59.5 45.5 -99.5s-15.167 -73.167 -45.5 -99.5s-69.833 -39.5 -118.5 -39.5c-48 0 -87.167 13.167 -117.5 39.5s-45.5 59.5 -45.5 99.5s15.167 73.167 45.5 99.5s69.5 39.5 117.5 39.5z" />
    <glyph glyph-name="tonos" unicode="&#x384;" horiz-adv-x="695" 
d="M293 1601h264l-165 -345h-173z" />
    <glyph glyph-name="dieresistonos" unicode="&#x385;" horiz-adv-x="1017" 
d="M452 1753h250l-149 -333h-139zM91 1365c0 36 12.333 66.333 37 91s55.667 37 93 37c38 0 69.333 -12.333 94 -37s37 -55 37 -91c0 -35.333 -12.333 -65.333 -37 -90s-56 -37 -94 -37c-37.333 0 -68.333 12.333 -93 37s-37 54.667 -37 90zM638 1365
c0 36.667 12.667 67 38 91s56 36 92 36c37.333 0 68.333 -12.333 93 -37s37 -54.667 37 -90c0 -34 -12 -63.667 -36 -89s-55.333 -38 -94 -38c-38 0 -69.167 12.167 -93.5 36.5s-36.5 54.5 -36.5 90.5z" />
    <glyph glyph-name="Alphatonos" unicode="&#x386;" horiz-adv-x="1223" 
d="M812 298h-401l-78 -298h-311l455 1456h269l458 -1456h-314zM475 543h272l-136 519zM118 1601h264l-165 -345h-173z" />
    <glyph glyph-name="anoteleia" unicode="&#x387;" horiz-adv-x="583" 
d="M131 696c0 45.333 14.498 82.666 43.498 111.999s66.5 44 112.5 44c46.667 0 84.334 -14.667 113.001 -44s43 -66.666 43 -111.999c0 -46 -14.5 -83.333 -43.5 -112s-66.5 -43 -112.5 -43c-45.333 0 -82.666 14.333 -111.999 43s-44 66 -44 112z" />
    <glyph glyph-name="Epsilontonos" unicode="&#x388;" horiz-adv-x="1005" 
d="M869 630h-458v-386h542v-244h-836v1456h834v-245h-540v-344h458v-237zM-246 1602h264l-165 -345h-173z" />
    <glyph glyph-name="Etatonos" unicode="&#x389;" horiz-adv-x="1257" 
d="M1138 0h-293v623h-434v-623h-294v1456h294v-589h434v589h293v-1456zM-245 1599h264l-165 -345h-173z" />
    <glyph glyph-name="Iotatonos" unicode="&#x38a;" horiz-adv-x="554" 
d="M424 0h-294v1456h294v-1456zM-248 1603h264l-165 -345h-173z" />
    <glyph glyph-name="Omicrontonos" unicode="&#x38c;" horiz-adv-x="1256" 
d="M1162 597c0 -195.333 -46.1689 -347.001 -138.502 -455.001s-220.5 -162 -384.5 -162c-163.333 0 -291.666 53.5 -384.999 160.5s-140.666 256.833 -141.999 449.5v249c0 200 46.333 356.167 139 468.5s221.334 168.5 386.001 168.5c162 0 289.667 -55.167 383 -165.5
s140.666 -265.166 141.999 -464.499v-249zM866.998 840.999c0 131.333 -18.668 228.999 -56.001 292.999s-95.333 96 -174 96c-78 0 -135.667 -30.833 -173 -92.5s-56.666 -155.5 -57.999 -281.5v-259c0 -127.333 19 -221.166 57 -281.499s96.667 -90.5 176 -90.5
c76.667 0 133.667 29.5 171 88.5s56.333 150.5 57 274.5v253zM-82.0029 1601h264l-165 -345h-173z" />
    <glyph glyph-name="Upsilontonos" unicode="&#x38e;" horiz-adv-x="1211" 
d="M656 802l219 654h320l-390 -928v-528h-298v528l-391 928h320zM-230 1601h264l-165 -345h-173z" />
    <glyph glyph-name="Omegatonos" unicode="&#x38f;" horiz-adv-x="1225" 
d="M653 251c44 25.333 76.1641 80.1699 96.4971 164.503s30.833 199.5 31.5 345.5v102c0 121.333 -14.667 212.5 -44 273.5s-70.333 91.5 -123 91.5c-50.667 0 -90.667 -29.833 -120 -89.5s-44.333 -148.834 -45 -267.501v-94c0 -140.667 8.66699 -252.667 26 -336
c20.667 -100.667 56.334 -164 107.001 -190v-251h-443v247h184c-62 63.333 -111.167 141.166 -147.5 233.499s-54.833 189.5 -55.5 291.5v89c0 118 20.833 224 62.5 318s100.334 166.833 176.001 218.5s160.834 77.5 255.501 77.5c95.333 0 181 -26 257 -78
s134.667 -124.333 176 -217s62.333 -197 63 -313v-90c0 -101.333 -17.667 -198.333 -53 -291s-85 -172.334 -149 -239.001h180v-247h-435v251zM-62.0029 1601h264l-165 -345h-173z" />
    <glyph glyph-name="iotadieresistonos" unicode="&#x390;" horiz-adv-x="640" 
d="M413 1082l-1 -742c0 -40.667 5.83301 -69.5 17.5 -86.5s34.167 -25.5 67.5 -25.5c26 0 48.667 2.66699 68 8l-2 -221c-47.333 -17.333 -100 -26 -158 -26c-182 0 -273.667 105.333 -275 316v777h283zM252 1732h250l-149 -333h-139zM-109 1344c0 36 12.333 66.333 37 91
s55.667 37 93 37c38 0 69.333 -12.333 94 -37s37 -55 37 -91c0 -35.333 -12.333 -65.333 -37 -90s-56 -37 -94 -37c-37.333 0 -68.333 12.333 -93 37s-37 54.667 -37 90zM438 1344c0 36.667 12.667 67 38 91s56 36 92 36c37.333 0 68.333 -12.333 93 -37s37 -54.667 37 -90
c0 -34 -12 -63.667 -36 -89s-55.333 -38 -94 -38c-38 0 -69.167 12.167 -93.5 36.5s-36.5 54.5 -36.5 90.5z" />
    <glyph glyph-name="Alpha" unicode="&#x391;" horiz-adv-x="1223" 
d="M812 298h-401l-78 -298h-311l455 1456h269l458 -1456h-314zM475 543h272l-136 519z" />
    <glyph glyph-name="Beta" unicode="&#x392;" horiz-adv-x="1149" 
d="M117 0l0.00195312 1456h450c152 0 267.5 -33.833 346.5 -101.5s118.5 -166.834 118.5 -297.501c0 -74 -16.333 -137.667 -49 -191s-77.334 -92.333 -134.001 -117c65.333 -18.667 115.666 -56.167 150.999 -112.5s53 -125.833 53 -208.5
c0 -141.333 -38.833 -248 -116.5 -320s-190.167 -108 -337.5 -108h-482zM411.002 633.001v-389h188c52.667 0 92.667 16.333 120 49s41 79 41 139c0 130.667 -47.333 197.667 -142 201h-207zM411.002 847.001h153c115.333 0 173 59.667 173 179
c0 66 -13.333 113.333 -40 142s-70 43 -130 43h-156v-364z" />
    <glyph glyph-name="Gamma" unicode="&#x393;" horiz-adv-x="1001" 
d="M937 1211h-523v-1211h-294v1456h817v-245z" />
    <glyph glyph-name="uni2206" unicode="&#x394;" horiz-adv-x="1313" 
d="M512 1456h305l473 -1456h-1259zM415 244h492l-244 797z" />
    <glyph glyph-name="uni2206" unicode="&#x2206;" horiz-adv-x="1313" 
d="M512 1456h305l473 -1456h-1259zM415 244h492l-244 797z" />
    <glyph glyph-name="Epsilon" unicode="&#x395;" horiz-adv-x="1005" 
d="M869 630h-458v-386h542v-244h-836v1456h834v-245h-540v-344h458v-237z" />
    <glyph glyph-name="Zeta" unicode="&#x396;" horiz-adv-x="1086" 
d="M422 244h600v-244h-944v177l594 1034h-600v245h939v-173z" />
    <glyph glyph-name="Eta" unicode="&#x397;" horiz-adv-x="1257" 
d="M1138 0h-293v623h-434v-623h-294v1456h294v-589h434v589h293v-1456z" />
    <glyph glyph-name="Theta" unicode="&#x398;" horiz-adv-x="1231" 
d="M764 606h-285v234h285v-234zM1147 695c0 -142.667 -21.833 -268 -65.5 -376s-106.167 -191.5 -187.5 -250.5s-174.333 -88.5 -279 -88.5c-103.333 0 -195.666 29 -276.999 87s-144.333 140.667 -189 248s-67.334 231 -68.001 371v73c0 143.333 22.167 269.5 66.5 378.5
s107 192.667 188 251s173.5 87.5 277.5 87.5s196.5 -29 277.5 -87s144 -141.667 189 -251s67.5 -235 67.5 -377v-66zM849 761c0 152.667 -20.501 268.333 -61.501 347s-99.167 118 -174.5 118s-133.166 -38.667 -173.499 -116s-60.833 -191.333 -61.5 -342v-73
c0 -151.333 20.5 -267 61.5 -347s99.5 -120 175.5 -120c74.667 0 132.167 39.333 172.5 118s60.833 192.667 61.5 342v73z" />
    <glyph glyph-name="Iota" unicode="&#x399;" horiz-adv-x="554" 
d="M424 0h-294v1456h294v-1456z" />
    <glyph glyph-name="Kappa" unicode="&#x39a;" horiz-adv-x="1133" 
d="M527 562l-116 -146v-416h-294v1456h294v-635l93 157l271 478h360l-417 -640l424 -816h-349z" />
    <glyph glyph-name="Lambda" unicode="&#x39b;" horiz-adv-x="1155" 
d="M577 1012l-237 -1012h-318l403 1456h304l404 -1456h-319z" />
    <glyph glyph-name="Mu" unicode="&#x39c;" horiz-adv-x="1553" 
d="M501 1456l275 -1053l274 1053h384v-1456h-295v394l27 607l-291 -1001h-200l-291 1001l27 -607v-394h-294v1456h384z" />
    <glyph glyph-name="Nu" unicode="&#x39d;" horiz-adv-x="1254" 
d="M1135 0h-294l-430 955v-955h-294v1456h294l431 -956v956h293v-1456z" />
    <glyph glyph-name="Xi" unicode="&#x39e;" horiz-adv-x="1022" 
d="M96 244h841v-244h-841v244zM195 852h646v-234h-646v234zM118 1456h782v-245h-782v245z" />
    <glyph glyph-name="Omicron" unicode="&#x39f;" horiz-adv-x="1236" 
d="M1142 597c0 -195.333 -46.1689 -347.001 -138.502 -455.001s-220.5 -162 -384.5 -162c-163.333 0 -291.666 53.5 -384.999 160.5s-140.666 256.833 -141.999 449.5v249c0 200 46.333 356.167 139 468.5s221.334 168.5 386.001 168.5c162 0 289.667 -55.167 383 -165.5
s140.666 -265.166 141.999 -464.499v-249zM846.998 840.999c0 131.333 -18.668 228.999 -56.001 292.999s-95.333 96 -174 96c-78 0 -135.667 -30.833 -173 -92.5s-56.666 -155.5 -57.999 -281.5v-259c0 -127.333 19 -221.166 57 -281.499s96.667 -90.5 176 -90.5
c76.667 0 133.667 29.5 171 88.5s56.333 150.5 57 274.5v253z" />
    <glyph glyph-name="Pi" unicode="&#x3a0;" horiz-adv-x="1259" 
d="M1139 0h-294v1211h-432v-1211h-294v1456h1020v-1456z" />
    <glyph glyph-name="Rho" unicode="&#x3a1;" horiz-adv-x="1165" 
d="M411 512v-511.999h-294v1456h496c144 0 258.833 -44.667 344.5 -134s128.5 -205.333 128.5 -348s-42.333 -255.334 -127 -338.001s-202 -124 -352 -124h-196zM411 757.001h202c56 0 99.333 18.333 130 55s46 90 46 160c0 72.667 -15.667 130.5 -47 173.5
s-73.333 64.833 -126 65.5h-205v-454z" />
    <glyph glyph-name="Sigma" unicode="&#x3a3;" horiz-adv-x="1022" 
d="M746 727l-288 -484h500v-243h-875v151l350 584l-350 570v151h861v-245h-482l284 -469v-15z" />
    <glyph glyph-name="Tau" unicode="&#x3a4;" horiz-adv-x="1112" 
d="M1060 1211h-360v-1211h-295v1211h-354v245h1009v-245z" />
    <glyph glyph-name="Upsilon" unicode="&#x3a5;" horiz-adv-x="1111" 
d="M556 802l219 654h320l-390 -928v-528h-298v528l-391 928h320z" />
    <glyph glyph-name="Phi" unicode="&#x3a6;" horiz-adv-x="1385" 
d="M847 1287c142.667 -8 256.999 -63.833 342.999 -167.5s129 -237.167 129 -400.5c0 -160 -43.333 -290.333 -130 -391s-200.667 -155 -342 -163v-165h-293v164c-93.333 4.66699 -176.166 30.167 -248.499 76.5s-128.5 110.833 -168.5 193.5s-60 177 -60 283
c0 107.333 19.333 203.333 58 288s94.5 151.667 167.5 201s156.833 76.333 251.5 81v169h293v-169zM365.999 717c0 -90.667 16.833 -159.832 50.5 -207.499s79.5 -74.5 137.5 -80.5v594c-57.333 -6.66699 -103 -35.334 -137 -86.001s-51 -124 -51 -220zM1031 719.002
c0 94.667 -16.5 167.17 -49.5 217.503s-77.833 79.166 -134.5 86.499v-594c58 7.33301 103.167 35.166 135.5 83.499s48.5 117.166 48.5 206.499z" />
    <glyph glyph-name="Chi" unicode="&#x3a7;" horiz-adv-x="1146" 
d="M573 956l196 500h337l-342 -722l350 -734h-341l-200 509l-199 -509h-341l350 734l-343 722h337z" />
    <glyph glyph-name="Psi" unicode="&#x3a8;" horiz-adv-x="1302" 
d="M801 642c54.667 17.333 94.167 55 118.5 113s36.5 138 36.5 240v461h295v-472c-2 -168.667 -42.667 -305 -122 -409c-78.667 -102 -188 -162.667 -328 -182v-393h-294v391c-144 16.667 -256.167 76.5 -336.5 179.5s-121.833 239.167 -124.5 408.5v477h294v-481
c4 -182 59.667 -292.333 167 -331v812h294v-814z" />
    <glyph glyph-name="uni2126" unicode="&#x3a9;" horiz-adv-x="1205" 
d="M633 251c44 25.333 76.1641 80.1699 96.4971 164.503s30.833 199.5 31.5 345.5v102c0 121.333 -14.667 212.5 -44 273.5s-70.333 91.5 -123 91.5c-50.667 0 -90.667 -29.833 -120 -89.5s-44.333 -148.834 -45 -267.501v-94c0 -140.667 8.66699 -252.667 26 -336
c20.667 -100.667 56.334 -164 107.001 -190v-251h-443v247h184c-62 63.333 -111.167 141.166 -147.5 233.499s-54.833 189.5 -55.5 291.5v89c0 118 20.833 224 62.5 318s100.334 166.833 176.001 218.5s160.834 77.5 255.501 77.5c95.333 0 181 -26 257 -78
s134.667 -124.333 176 -217s62.333 -197 63 -313v-90c0 -101.333 -17.667 -198.333 -53 -291s-85 -172.334 -149 -239.001h180v-247h-435v251z" />
    <glyph glyph-name="uni2126" unicode="&#x2126;" horiz-adv-x="1205" 
d="M633 251c44 25.333 76.1641 80.1699 96.4971 164.503s30.833 199.5 31.5 345.5v102c0 121.333 -14.667 212.5 -44 273.5s-70.333 91.5 -123 91.5c-50.667 0 -90.667 -29.833 -120 -89.5s-44.333 -148.834 -45 -267.501v-94c0 -140.667 8.66699 -252.667 26 -336
c20.667 -100.667 56.334 -164 107.001 -190v-251h-443v247h184c-62 63.333 -111.167 141.166 -147.5 233.499s-54.833 189.5 -55.5 291.5v89c0 118 20.833 224 62.5 318s100.334 166.833 176.001 218.5s160.834 77.5 255.501 77.5c95.333 0 181 -26 257 -78
s134.667 -124.333 176 -217s62.333 -197 63 -313v-90c0 -101.333 -17.667 -198.333 -53 -291s-85 -172.334 -149 -239.001h180v-247h-435v251z" />
    <glyph glyph-name="Iotadieresis" unicode="&#x3aa;" horiz-adv-x="554" 
d="M424 0h-294v1456h294v-1456zM-108 1678c0 36.667 13.5 67.167 40.5 91.5s59.833 36.5 98.5 36.5s71.5 -12.167 98.5 -36.5s40.5 -54.833 40.5 -91.5c0 -36 -13.5 -66.167 -40.5 -90.5s-59.833 -36.5 -98.5 -36.5s-71.5 12.167 -98.5 36.5s-40.5 54.5 -40.5 90.5z
M381 1678c0 36 13.5 66.167 40.5 90.5s59.833 36.5 98.5 36.5s71.5 -12.167 98.5 -36.5s40.5 -54.5 40.5 -90.5c0 -34.667 -12.833 -64.5 -38.5 -89.5s-59.167 -37.5 -100.5 -37.5s-74.833 12.5 -100.5 37.5s-38.5 54.833 -38.5 89.5z" />
    <glyph glyph-name="Upsilondieresis" unicode="&#x3ab;" horiz-adv-x="1111" 
d="M556 802l219 654h320l-390 -928v-528h-298v528l-391 928h320zM174 1675c0 36.667 13.5 67.167 40.5 91.5s59.833 36.5 98.5 36.5s71.5 -12.167 98.5 -36.5s40.5 -54.833 40.5 -91.5c0 -36 -13.5 -66.167 -40.5 -90.5s-59.833 -36.5 -98.5 -36.5s-71.5 12.167 -98.5 36.5
s-40.5 54.5 -40.5 90.5zM663 1675c0 36 13.5 66.167 40.5 90.5s59.833 36.5 98.5 36.5s71.5 -12.167 98.5 -36.5s40.5 -54.5 40.5 -90.5c0 -34.667 -12.833 -64.5 -38.5 -89.5s-59.167 -37.5 -100.5 -37.5s-74.833 12.5 -100.5 37.5s-38.5 54.833 -38.5 89.5z" />
    <glyph glyph-name="alphatonos" unicode="&#x3ac;" horiz-adv-x="1010" 
d="M899 1082l-0.00292969 -745c1.33301 -78.667 18.666 -118 51.999 -118c4.66699 0 8.33398 1.33301 11.001 4l23 -220c-32 -16 -70 -24 -114 -24c-103.333 0 -175.666 50.667 -216.999 152c-54 -100.667 -128.667 -151 -224 -151c-109.333 0 -196.166 47.333 -260.499 142
s-96.5 232 -96.5 412c0 175.333 32 313.833 96 415.5s151.333 152.5 262 152.5c84.667 0 153.334 -42.667 206.001 -128l17 108h245zM356.997 513c0 -102 12.167 -177.333 36.5 -226s61.166 -73 110.499 -73c48.667 0 86.334 22.333 113.001 67v510
c-26.667 50.667 -64 76 -112 76c-48.667 0 -85.5 -28 -110.5 -84s-37.5 -146 -37.5 -270zM505.997 1601h264l-165 -345h-173z" />
    <glyph glyph-name="epsilontonos" unicode="&#x3ad;" horiz-adv-x="1000" 
d="M96 306c0 122.667 57.668 206.334 173.001 251.001c-48 24 -86.167 56.167 -114.5 96.5s-42.5 84.5 -42.5 132.5c0 98 37.667 175 113 231s177 84 305 84c114 0 207.333 -31 280 -93s109 -141.333 109 -238h-283c0 36 -11.167 63.5 -33.5 82.5s-51.5 28.5 -87.5 28.5
c-37.333 0 -66.833 -11.333 -88.5 -34s-32.5 -51 -32.5 -85s10.833 -61.167 32.5 -81.5s51.5 -30.5 89.5 -30.5h160v-194h-159c-92 0 -138 -42.667 -138 -128c0 -36.667 12.167 -67.334 36.5 -92.001s57.166 -37 98.499 -37s74.5 11.167 99.5 33.5s37.5 51.5 37.5 87.5h282
c0 -103.333 -37.667 -185.833 -113 -247.5s-172 -92.5 -290 -92.5c-128.667 0 -233.167 30 -313.5 90s-120.5 138.667 -120.5 236zM484.001 1601h264l-165 -345h-173z" />
    <glyph glyph-name="etatonos" unicode="&#x3ae;" horiz-adv-x="1017" 
d="M363 1082l10 -123c66 95.333 149.667 143 251 143c194 0 291 -137.333 291 -412v-1105h-284v1119c-2 108.667 -40 163 -114 163c-55.333 0 -100 -25.333 -134 -76v-791h-284v1082h264zM472 1601h264l-165 -345h-173z" />
    <glyph glyph-name="iotatonos" unicode="&#x3af;" horiz-adv-x="640" 
d="M413 1082l-1 -742c0 -40.667 5.83301 -69.5 17.5 -86.5s34.167 -25.5 67.5 -25.5c26 0 48.667 2.66699 68 8l-2 -221c-47.333 -17.333 -100 -26 -158 -26c-182 0 -273.667 105.333 -275 316v777h283zM254 1580h264l-165 -345h-173z" />
    <glyph glyph-name="upsilondieresistonos" unicode="&#x3b0;" horiz-adv-x="986" 
d="M388 1082l0.000976562 -657c0 -140.667 27 -211 81 -211c44.667 0 82.667 34.333 114 103s47 151.667 47 249c-2.66699 160 -30.334 332 -83.001 516h267c65.333 -148 98 -320 98 -516c0 -185.333 -37.667 -329.5 -113 -432.5s-182.333 -154.5 -321 -154.5
c-121.333 0 -213.5 37.333 -276.5 112s-94.833 181.667 -95.5 321v670h282zM467.001 1748h250l-149 -333h-139zM106.001 1360c0 36 12.333 66.333 37 91s55.667 37 93 37c38 0 69.333 -12.333 94 -37s37 -55 37 -91c0 -35.333 -12.333 -65.333 -37 -90s-56 -37 -94 -37
c-37.333 0 -68.333 12.333 -93 37s-37 54.667 -37 90zM653.001 1360c0 36.667 12.667 67 38 91s56 36 92 36c37.333 0 68.333 -12.333 93 -37s37 -54.667 37 -90c0 -34 -12 -63.667 -36 -89s-55.333 -38 -94 -38c-38 0 -69.167 12.167 -93.5 36.5s-36.5 54.5 -36.5 90.5z
" />
    <glyph glyph-name="alpha" unicode="&#x3b1;" horiz-adv-x="1010" 
d="M899 1082l-0.00292969 -745c1.33301 -78.667 18.666 -118 51.999 -118c4.66699 0 8.33398 1.33301 11.001 4l23 -220c-32 -16 -70 -24 -114 -24c-103.333 0 -175.666 50.667 -216.999 152c-54 -100.667 -128.667 -151 -224 -151c-109.333 0 -196.166 47.333 -260.499 142
s-96.5 232 -96.5 412c0 175.333 32 313.833 96 415.5s151.333 152.5 262 152.5c84.667 0 153.334 -42.667 206.001 -128l17 108h245zM356.997 513c0 -102 12.167 -177.333 36.5 -226s61.166 -73 110.499 -73c48.667 0 86.334 22.333 113.001 67v510
c-26.667 50.667 -64 76 -112 76c-48.667 0 -85.5 -28 -110.5 -84s-37.5 -146 -37.5 -270z" />
    <glyph glyph-name="beta" unicode="&#x3b2;" horiz-adv-x="1079" 
d="M554 1476c128 0 227.834 -35.3301 299.501 -105.997s107.5 -166.667 107.5 -288c0 -66.667 -14.667 -127.334 -44 -182.001s-70 -98.334 -122 -131.001c68 -28.667 120.333 -73.334 157 -134.001s55 -134.667 55 -222c0 -136 -33 -242.167 -99 -318.5
s-157.667 -114.5 -275 -114.5c-80 0 -153.333 21 -220 63v-449h-282v1434c0 131.333 40.167 238.833 120.5 322.5s181.166 125.5 302.499 125.5zM678.001 1059c0 51.333 -11.166 94.5 -33.499 129.5s-52.5 52.5 -90.5 52.5c-42.667 0 -76.834 -19.333 -102.501 -58
s-38.5 -89.667 -38.5 -153v-771c40.667 -29.333 92 -44 154 -44c48 0 86.167 19.333 114.5 58s42.5 87 42.5 145c0 151.333 -51.667 227 -155 227h-67v213h57c79.333 4 119 71 119 201z" />
    <glyph glyph-name="gamma" unicode="&#x3b3;" horiz-adv-x="930" 
d="M469 408l137 674h295l-296 -1068v-431h-282v442l-294 1057h296z" />
    <glyph glyph-name="delta" unicode="&#x3b4;" horiz-adv-x="1017" 
d="M178 1249c0 101.333 31.1689 180.501 93.502 237.501s149.166 85.5 260.499 85.5c52 0 100.667 -7.33301 146 -22l66 -22l3 -224c-73.333 31.333 -136.333 47 -189 47c-74.667 0 -112 -31.667 -112 -95c0 -30.667 8.66699 -56.334 26 -77.001s43.333 -40 78 -58
c254.667 -105.333 388.334 -283 401.001 -533l1 -63c0 -164 -39.833 -295.833 -119.5 -395.5s-185.834 -149.5 -318.501 -149.5c-133.333 0 -240 48.333 -320 145s-120 231.667 -120 405c0 107.333 24.167 202.833 72.5 286.5s109.166 136.5 182.499 158.5l-3 6
c-98.667 68 -148 157.333 -148 268zM356.002 538.001c0 -100.667 13.833 -179.833 41.5 -237.5s66.5 -86.5 116.5 -86.5c49.333 0 87.5 28.167 114.5 84.5s40.5 142.833 40.5 259.5c0 75.333 -14.167 143.333 -42.5 204s-66.833 97.667 -115.5 111
c-49.333 0 -87.5 -28.5 -114.5 -85.5s-40.5 -140.167 -40.5 -249.5z" />
    <glyph glyph-name="epsilon" unicode="&#x3b5;" horiz-adv-x="1000" 
d="M96 306c0 122.667 57.668 206.334 173.001 251.001c-48 24 -86.167 56.167 -114.5 96.5s-42.5 84.5 -42.5 132.5c0 98 37.667 175 113 231s177 84 305 84c114 0 207.333 -31 280 -93s109 -141.333 109 -238h-283c0 36 -11.167 63.5 -33.5 82.5s-51.5 28.5 -87.5 28.5
c-37.333 0 -66.833 -11.333 -88.5 -34s-32.5 -51 -32.5 -85s10.833 -61.167 32.5 -81.5s51.5 -30.5 89.5 -30.5h160v-194h-159c-92 0 -138 -42.667 -138 -128c0 -36.667 12.167 -67.334 36.5 -92.001s57.166 -37 98.499 -37s74.5 11.167 99.5 33.5s37.5 51.5 37.5 87.5h282
c0 -103.333 -37.667 -185.833 -113 -247.5s-172 -92.5 -290 -92.5c-128.667 0 -233.167 30 -313.5 90s-120.5 138.667 -120.5 236z" />
    <glyph glyph-name="zeta" unicode="&#x3b6;" horiz-adv-x="912" 
d="M846 1456l-0.000976562 -166l-330 -490l-40 -65c-56.667 -98.667 -85 -201.334 -85 -308.001c0 -50.667 7.33301 -90.834 22 -120.501s42.334 -53.834 83.001 -72.501l141 -51c68 -26.667 115.333 -58.167 142 -94.5s39.667 -82.166 39 -137.499
c0 -52.667 -20.5 -111.667 -61.5 -177s-90.167 -119.666 -147.5 -162.999l-142 113c48.667 56.667 72 112.334 70 167.001c2.66699 42 -19 72 -65 90l-92 30c-96 32.667 -165.167 78.667 -207.5 138s-63.5 137 -63.5 233c0 95.333 16.833 187.5 50.5 276.5
s95.5 198.167 185.5 327.5l164 236h-420v234h757z" />
    <glyph glyph-name="eta" unicode="&#x3b7;" horiz-adv-x="1017" 
d="M363 1082l10 -123c66 95.333 149.667 143 251 143c194 0 291 -137.333 291 -412v-1105h-284v1119c-2 108.667 -40 163 -114 163c-55.333 0 -100 -25.333 -134 -76v-791h-284v1082h264z" />
    <glyph glyph-name="theta" unicode="&#x3b8;" horiz-adv-x="1060" 
d="M953 607c0 -200 -36.834 -354.501 -110.501 -463.501s-177.5 -163.5 -311.5 -163.5c-134.667 0 -239 54.833 -313 164.5s-111 263.834 -111 462.501v244c0 200 37 354.167 111 462.5s178 162.5 312 162.5c130 0 232.333 -52 307 -156s113.334 -253 116.001 -447v-266z
M668.999 618.999h-279v-51c0 -235.333 47 -353 141 -353c84 0 129.667 98.333 137 295zM389.999 844.999h278.999v47c0 112.667 -11.5 199 -34.5 259s-57.833 90 -104.5 90c-85.333 0 -131.666 -98.333 -138.999 -295z" />
    <glyph glyph-name="iota" unicode="&#x3b9;" horiz-adv-x="640" 
d="M413 1082l-1 -742c0 -40.667 5.83301 -69.5 17.5 -86.5s34.167 -25.5 67.5 -25.5c26 0 48.667 2.66699 68 8l-2 -221c-47.333 -17.333 -100 -26 -158 -26c-182 0 -273.667 105.333 -275 316v777h283z" />
    <glyph glyph-name="kappa" unicode="&#x3ba;" horiz-adv-x="1077" 
d="M486 397h-81v-397h-283v1082h283v-406h58l201 406h357l-304 -506l311 -576h-363z" />
    <glyph glyph-name="lambda" unicode="&#x3bb;" horiz-adv-x="984" 
d="M268 1547c114.667 0 191.667 -57.667 231 -173l357 -1047c20 -70.667 45.333 -107 76 -109h30v-230c-20 -4 -53.667 -6 -101 -6c-71.333 0 -127.833 19.333 -169.5 58s-74.167 93.667 -97.5 165l-126 415l-146 -620h-305l312 1055l-61 166c-18 59.333 -50.667 89 -98 89
h-24l-28 -2l-4 217c44 14.667 95.333 22 154 22z" />
    <glyph glyph-name="mu" unicode="&#x3bc;" horiz-adv-x="1125" 
d="M414 1082v-623c0 -84.667 9.5 -146.167 28.5 -184.5s53.167 -57.5 102.5 -57.5c66.667 0 114.667 28.667 144 86v779h284v-1082h-264l-4 51c-46.667 -48 -102.667 -72 -168 -72c-47.333 0 -88.333 11.333 -123 34v-429h-282v1498h282z" />
    <glyph glyph-name="nu" unicode="&#x3bd;" horiz-adv-x="920" 
d="M458 400l137 682h295l-297 -1082h-270l-298 1082h296z" />
    <glyph glyph-name="xi" unicode="&#x3be;" horiz-adv-x="967" 
d="M795 1198l-77.001 23c-34.667 9.33301 -69.334 14 -104.001 14c-54.667 0 -94.667 -12.667 -120 -38s-38 -59 -38 -101c0 -97.333 56.333 -146 169 -146h124v-244h-127c-82.667 -0.666992 -143.167 -21.667 -181.5 -63s-57.5 -102.666 -57.5 -183.999
c0 -56.667 13.667 -103.834 41 -141.501s71.333 -67.167 132 -88.5l110 -31c86.667 -26 147.167 -58.5 181.5 -97.5s51.5 -90.167 51.5 -153.5c0 -52.667 -20.5 -112 -61.5 -178s-89.833 -120 -146.5 -162l-146 113c48.667 54 73 110 73 168c0 42 -28.333 74.333 -85 97
l-162 59c-101.333 40 -171.666 89.833 -210.999 149.5s-59 144.5 -59 254.5c0 188 85.667 314.333 257 379c-123.333 52.667 -185 140.667 -185 264c0 118.667 36.833 212.5 110.5 281.5s172.834 103.5 297.501 103.5c78.667 0 144.667 -9 198 -27l61 -23z" />
    <glyph glyph-name="omicron" unicode="&#x3bf;" horiz-adv-x="1019" 
d="M70 576c0 164 38.667 292.667 116 386s184.333 140 321 140c138 0 245.667 -46.667 323 -140s116 -222.666 116 -387.999v-69c0 -164.667 -38.333 -293.334 -115 -386.001s-184 -139 -322 -139c-138.667 0 -246.5 46.5 -323.5 139.5s-115.5 222.167 -115.5 387.5v69z
M354 505c0 -193.333 51.668 -290 155.001 -290c95.333 0 146.666 80.667 153.999 242l1 119c0 98.667 -13.667 171.834 -41 219.501s-66 71.5 -116 71.5c-48 0 -85.5 -23.833 -112.5 -71.5s-40.5 -120.834 -40.5 -219.501v-71z" />
    <glyph glyph-name="pi" unicode="&#x3c0;" horiz-adv-x="1166" 
d="M1097 860h-137.999v-520c0 -43.333 6.16699 -72.833 18.5 -88.5s34.5 -23.5 66.5 -23.5c25.333 0 47.666 2.66699 66.999 8l-1 -221c-47.333 -17.333 -100 -26 -158 -26c-180.667 0 -272.667 103 -276 309v562h-185v-860h-283v860h-145v222h1034v-222z" />
    <glyph glyph-name="rho" unicode="&#x3c1;" horiz-adv-x="1017" 
d="M532 1102c129.333 0 230.667 -50.833 304 -152.5s110 -247.167 110 -436.5c0 -164 -31.5 -293.833 -94.5 -389.5s-149.5 -143.5 -259.5 -143.5c-84 0 -152.333 33.333 -205 100v-496h-283v986c0 164.667 39.333 294.5 118 389.5s182 142.5 310 142.5zM387.001 283
c28 -46 71 -68.999 129 -68.999c96.667 0 146 95.333 148 286v34c0 109.333 -12.5 192.166 -37.5 248.499s-61.5 84.5 -109.5 84.5c-40.667 0 -72.5 -28.167 -95.5 -84.5s-34.5 -135.5 -34.5 -237.5v-262z" />
    <glyph glyph-name="sigma1" unicode="&#x3c2;" horiz-adv-x="918" 
d="M490 1102c117.333 0 210.165 -37.832 278.498 -113.499s102.5 -179.167 102.5 -310.5h-264c0 126 -39 189 -117 189c-88 0 -135.667 -87 -143 -261l-1 -80c0 -84.667 13.333 -148.834 40 -192.501s74 -78.167 142 -103.5c87.333 -29.333 145.833 -54.333 175.5 -75
s52.334 -45.667 68.001 -75s24.5 -67 26.5 -113c0 -54 -20.667 -114.167 -62 -180.5s-89.666 -119.833 -144.999 -160.5l-146 114c49.333 59.333 73.333 115.333 72 168c0 46.667 -25 78.667 -75 96c-132 40.667 -227.5 100.667 -286.5 180s-89.833 186.333 -92.5 321v49
c0 165.333 38.167 298 114.5 398s180.5 150 312.5 150z" />
    <glyph glyph-name="sigma" unicode="&#x3c3;" horiz-adv-x="1033" 
d="M991 846l-211 -0.000976562c97.333 -94 146 -213 146 -357c0 -154 -38 -277.333 -114 -370s-177.667 -139 -305 -139c-133.333 0 -239.333 49.5 -318 148.5s-118 234.833 -118 407.5v15c0 160.667 38.833 289.334 116.5 386.001s183.5 145 317.5 145l1 -1v1h485v-236z
M354 529.999c0 -210.667 51 -316 153 -316c82.667 0 127.667 86 135 258l1 79c0 102 -11.5 176.667 -34.5 224s-57.5 71 -103.5 71c-96.667 0 -147 -91.333 -151 -274v-42z" />
    <glyph glyph-name="tau" unicode="&#x3c4;" horiz-adv-x="942" 
d="M889 849l-285.002 0.000976562v-519c0 -43.333 5 -73 15 -89s25.333 -24 46 -24c22.667 0 49.334 5.33301 80.001 16l29 -221c-46.667 -21.333 -103 -32 -169 -32c-91.333 0 -161.666 29.667 -210.999 89s-74 147.666 -74 264.999v515h-269v233h838v-233z" />
    <glyph glyph-name="upsilon" unicode="&#x3c5;" horiz-adv-x="986" 
d="M388 1082l0.000976562 -657c0 -140.667 27 -211 81 -211c44.667 0 82.667 34.333 114 103s47 151.667 47 249c-2.66699 160 -30.334 332 -83.001 516h267c65.333 -148 98 -320 98 -516c0 -185.333 -37.667 -329.5 -113 -432.5s-182.333 -154.5 -321 -154.5
c-121.333 0 -213.5 37.333 -276.5 112s-94.833 181.667 -95.5 321v670h282z" />
    <glyph glyph-name="phi" unicode="&#x3c6;" horiz-adv-x="1351" 
d="M526 -10c-154 24 -271.667 88.168 -353 192.501s-122 242.166 -122 413.499c0 100 16 194.5 48 283.5s76.667 161.5 134 217.5l197 -155c-28.667 -40.667 -51.5 -91.334 -68.5 -152.001s-26.167 -125.334 -27.5 -194.001c0 -194 64 -313.667 192 -359v561
c0 88.667 26.5 160.667 79.5 216s119.167 83 198.5 83c96.667 0 181.167 -23.167 253.5 -69.5s128.5 -111.166 168.5 -194.499s60 -174.666 60 -273.999c0 -163.333 -41.333 -294 -124 -392s-200.667 -157.667 -354 -179v-466h-282v468zM808 232.001
c129.333 39.333 193.999 148.332 193.999 326.999c-1.33301 94.667 -16.166 168.834 -44.499 222.501s-67.5 80.5 -117.5 80.5c-21.333 0 -32 -11.333 -32 -34v-596z" />
    <glyph glyph-name="chi" unicode="&#x3c7;" horiz-adv-x="927" 
d="M178 1098c62.667 0 115.998 -16.168 159.998 -48.501s80.667 -86.833 110 -163.5l64 -174l148 370h286l-298 -740l151 -409c20.667 -82 60 -124 118 -126l27 1l-26 -231c-18 -4.66699 -38.333 -7.66699 -61 -9c-59.333 -3.33301 -106.666 5.83398 -141.999 27.501
s-67.666 56.667 -96.999 105s-57.333 115.5 -84 201.5l-30 83l-161 -401h-279l308 774l-138 390c-10.667 37.333 -29.5 65.5 -56.5 84.5s-55.5 28.5 -85.5 28.5l-56 -6l-4 220c51.333 15.333 100 23 146 23z" />
    <glyph glyph-name="psi" unicode="&#x3c8;" horiz-adv-x="1347" 
d="M806 1082l0.00292969 -846.001c129.333 46.667 194 166.667 194 360c-2 142.667 -30 304.667 -84 486h260c71.333 -142.667 107 -304.667 107 -486c0 -176 -41.333 -316 -124 -420s-200.334 -166.667 -353.001 -188v-466h-283v469
c-152.667 24.667 -267.334 87.5 -344.001 188.5s-115 237.167 -115 408.5v494h284v-501c1.33301 -181.333 59.666 -295.666 174.999 -342.999v844h283z" />
    <glyph glyph-name="omega" unicode="&#x3c9;" horiz-adv-x="1451" 
d="M473 1082c-69.333 -174 -106.668 -346 -112.001 -516c0 -234.667 35.333 -352 106 -352c74 0 111 98.667 111 296v336h298v-337c0 -196.667 37 -295 111 -295c34.667 0 61 30 79 90s27 147.333 27 262c-5.33301 170 -42.666 342 -111.999 516h268
c84 -148.667 126 -320.667 126 -516c0 -199.333 -31.833 -346.833 -95.5 -442.5s-157.834 -143.5 -282.501 -143.5c-122.667 0 -212.667 66.667 -270 200c-57.333 -133.333 -147.333 -200 -270 -200c-125.333 0 -219.666 48 -282.999 144s-95 243.333 -95 442
c0 195.333 42 367.333 126 516h268z" />
    <glyph glyph-name="iotadieresis" unicode="&#x3ca;" horiz-adv-x="640" 
d="M413 1082l-1 -742c0 -40.667 5.83301 -69.5 17.5 -86.5s34.167 -25.5 67.5 -25.5c26 0 48.667 2.66699 68 8l-2 -221c-47.333 -17.333 -100 -26 -158 -26c-182 0 -273.667 105.333 -275 316v777h283zM-97 1344c0 36.667 13.5 67.167 40.5 91.5s59.833 36.5 98.5 36.5
s71.5 -12.167 98.5 -36.5s40.5 -54.833 40.5 -91.5c0 -36 -13.5 -66.167 -40.5 -90.5s-59.833 -36.5 -98.5 -36.5s-71.5 12.167 -98.5 36.5s-40.5 54.5 -40.5 90.5zM392 1344c0 36 13.5 66.167 40.5 90.5s59.833 36.5 98.5 36.5s71.5 -12.167 98.5 -36.5
s40.5 -54.5 40.5 -90.5c0 -34.667 -12.833 -64.5 -38.5 -89.5s-59.167 -37.5 -100.5 -37.5s-74.833 12.5 -100.5 37.5s-38.5 54.833 -38.5 89.5z" />
    <glyph glyph-name="upsilondieresis" unicode="&#x3cb;" horiz-adv-x="986" 
d="M388 1082l0.000976562 -657c0 -140.667 27 -211 81 -211c44.667 0 82.667 34.333 114 103s47 151.667 47 249c-2.66699 160 -30.334 332 -83.001 516h267c65.333 -148 98 -320 98 -516c0 -185.333 -37.667 -329.5 -113 -432.5s-182.333 -154.5 -321 -154.5
c-121.333 0 -213.5 37.333 -276.5 112s-94.833 181.667 -95.5 321v670h282zM118.001 1360c0 36.667 13.5 67.167 40.5 91.5s59.833 36.5 98.5 36.5s71.5 -12.167 98.5 -36.5s40.5 -54.833 40.5 -91.5c0 -36 -13.5 -66.167 -40.5 -90.5s-59.833 -36.5 -98.5 -36.5
s-71.5 12.167 -98.5 36.5s-40.5 54.5 -40.5 90.5zM607.001 1360c0 36 13.5 66.167 40.5 90.5s59.833 36.5 98.5 36.5s71.5 -12.167 98.5 -36.5s40.5 -54.5 40.5 -90.5c0 -34.667 -12.833 -64.5 -38.5 -89.5s-59.167 -37.5 -100.5 -37.5s-74.833 12.5 -100.5 37.5
s-38.5 54.833 -38.5 89.5z" />
    <glyph glyph-name="omicrontonos" unicode="&#x3cc;" horiz-adv-x="1019" 
d="M70 576c0 164 38.667 292.667 116 386s184.333 140 321 140c138 0 245.667 -46.667 323 -140s116 -222.666 116 -387.999v-69c0 -164.667 -38.333 -293.334 -115 -386.001s-184 -139 -322 -139c-138.667 0 -246.5 46.5 -323.5 139.5s-115.5 222.167 -115.5 387.5v69z
M354 505c0 -193.333 51.668 -290 155.001 -290c95.333 0 146.666 80.667 153.999 242l1 119c0 98.667 -13.667 171.834 -41 219.501s-66 71.5 -116 71.5c-48 0 -85.5 -23.833 -112.5 -71.5s-40.5 -120.834 -40.5 -219.501v-71zM472.001 1601h264l-165 -345h-173z" />
    <glyph glyph-name="upsilontonos" unicode="&#x3cd;" horiz-adv-x="986" 
d="M388 1082l0.000976562 -657c0 -140.667 27 -211 81 -211c44.667 0 82.667 34.333 114 103s47 151.667 47 249c-2.66699 160 -30.334 332 -83.001 516h267c65.333 -148 98 -320 98 -516c0 -185.333 -37.667 -329.5 -113 -432.5s-182.333 -154.5 -321 -154.5
c-121.333 0 -213.5 37.333 -276.5 112s-94.833 181.667 -95.5 321v670h282zM469.001 1596h264l-165 -345h-173z" />
    <glyph glyph-name="omegatonos" unicode="&#x3ce;" horiz-adv-x="1451" 
d="M473 1082c-69.333 -174 -106.668 -346 -112.001 -516c0 -234.667 35.333 -352 106 -352c74 0 111 98.667 111 296v336h298v-337c0 -196.667 37 -295 111 -295c34.667 0 61 30 79 90s27 147.333 27 262c-5.33301 170 -42.666 342 -111.999 516h268
c84 -148.667 126 -320.667 126 -516c0 -199.333 -31.833 -346.833 -95.5 -442.5s-157.834 -143.5 -282.501 -143.5c-122.667 0 -212.667 66.667 -270 200c-57.333 -133.333 -147.333 -200 -270 -200c-125.333 0 -219.666 48 -282.999 144s-95 243.333 -95 442
c0 195.333 42 367.333 126 516h268zM686.998 1596h264l-165 -345h-173z" />
    <glyph glyph-name="theta1" unicode="&#x3d1;" horiz-adv-x="1074" 
d="M1048 576l-82 -25.001v-89c0 -144.667 -39.167 -261.167 -117.5 -349.5s-182.5 -132.5 -312.5 -132.5c-123.333 0 -224.5 44.667 -303.5 134s-118.5 206.333 -118.5 351v237h268v-241c0 -70.667 15.167 -127.834 45.5 -171.501s71.5 -65.5 123.5 -65.5
c36 0 64.667 20.833 86 62.5s32 98.834 32 171.501v93c-109.333 32 -197.833 93 -265.5 183s-101.834 194.667 -102.501 314v26c0 122.667 31.333 220.334 94 293.001s146 109 250 109c98.667 0 176.834 -37.333 234.501 -112s86.5 -179 86.5 -313v-245l74 16zM569 1065
c0 -101.333 33.333 -177.667 100 -229v260c-0.666992 80.667 -14 121 -40 121c-38 0 -58 -38.667 -60 -116v-36z" />
    <glyph glyph-name="Upsilon1" unicode="&#x3d2;" horiz-adv-x="1076" 
d="M539 805l140 432c27.333 87.333 62.5 150.166 105.5 188.499s95.833 57.5 158.5 57.5c40.667 0 84 -8.66699 130 -26l-35 -232c-2.66699 2.66699 -17 4 -43 4c-36.667 0 -58.667 -23.333 -66 -70l-245 -669v-490h-296v488l-242 671c-7.33301 46.667 -29.333 70 -66 70
c-28 0 -43 -1.33301 -45 -4l-32 232c46 17.333 89.333 26 130 26c65.333 0 118.5 -17.667 159.5 -53s74.5 -90.666 100.5 -165.999z" />
    <glyph glyph-name="omega1" unicode="&#x3d6;" horiz-adv-x="1478" 
d="M1455 875h-104c28 -95.333 42 -198.333 42 -309c0 -199.333 -31 -346.833 -93 -442.5s-153.667 -143.5 -275 -143.5c-132 0 -227 69 -285 207c-59.333 -138 -154.333 -207 -285 -207c-122 0 -213.833 48 -275.5 144s-92.5 243.333 -92.5 442c0 108 13.667 211 41 309h-95
v207h1422v-207zM1110 566c-2.66699 98.667 -17.332 201.667 -43.999 309h-652c-26.667 -107.333 -41.334 -210.333 -44.001 -309c0 -234.667 31.333 -352 94 -352c85.333 0 128 97 128 291v187h298v-184c0 -196 41.667 -294 125 -294c63.333 0 95 117.333 95 352z" />
    <glyph glyph-name="uni0400" unicode="&#x400;" horiz-adv-x="1005" 
d="M869 630h-458v-386h542v-244h-836v1456h834v-245h-540v-344h458v-237zM700 1539h-239l-276 310h317z" />
    <glyph glyph-name="afii10023" unicode="&#x401;" horiz-adv-x="1005" 
d="M869 630h-458v-386h542v-244h-836v1456h834v-245h-540v-344h458v-237zM172 1678c0 36.667 13.5 67.167 40.5 91.5s59.833 36.5 98.5 36.5s71.5 -12.167 98.5 -36.5s40.5 -54.833 40.5 -91.5c0 -36 -13.5 -66.167 -40.5 -90.5s-59.833 -36.5 -98.5 -36.5
s-71.5 12.167 -98.5 36.5s-40.5 54.5 -40.5 90.5zM661 1678c0 36 13.5 66.167 40.5 90.5s59.833 36.5 98.5 36.5s71.5 -12.167 98.5 -36.5s40.5 -54.5 40.5 -90.5c0 -34.667 -12.833 -64.5 -38.5 -89.5s-59.167 -37.5 -100.5 -37.5s-74.833 12.5 -100.5 37.5
s-38.5 54.833 -38.5 89.5z" />
    <glyph glyph-name="afii10051" unicode="&#x402;" horiz-adv-x="1329" 
d="M996 1211h-374v-341c68 16.667 128.667 25 182 25c147.333 0 261.5 -39.167 342.5 -117.5s121.5 -189.833 121.5 -334.5c0 -142 -42 -254.333 -126 -337s-203.333 -124 -358 -124v229c114.667 0 177 50.667 187 152l3 62c0 70.667 -16 125.667 -48 165
s-77.667 59 -137 59c-57.333 0 -113 -5.66699 -167 -17v-632h-295v1211h-290v245h959v-245z" />
    <glyph glyph-name="afii10052" unicode="&#x403;" horiz-adv-x="1001" 
d="M937 1211h-523v-1211h-294v1456h817v-245zM594 1849h318l-278 -310h-236z" />
    <glyph glyph-name="afii10053" unicode="&#x404;" horiz-adv-x="1178" 
d="M1105 485c-8.66699 -154.667 -57.333 -277.499 -146 -368.499s-207.667 -136.5 -357 -136.5c-161.333 0 -288.166 62.5 -380.499 187.5s-138.5 297.5 -138.5 517.5v87c0 140.667 21.333 264.5 64 371.5s103.667 189.167 183 246.5s171 86 275 86
c146.667 0 263.667 -45.333 351 -136s137.666 -217.334 150.999 -380.001h-295c-4.66699 98 -23.167 167.667 -55.5 209s-82.833 62 -151.5 62c-72 0 -126.333 -31 -163 -93s-58 -157.667 -64 -287h342v-244h-342c4 -131.333 23.833 -228.333 59.5 -291s90.5 -94 164.5 -94
c71.333 0 122.833 22.167 154.5 66.5s49.5 109.833 53.5 196.5h295z" />
    <glyph glyph-name="afii10054" unicode="&#x405;" horiz-adv-x="1106" 
d="M732 382c0 59.333 -15.166 104.169 -45.499 134.502s-85.5 61.833 -165.5 94.5c-146 55.333 -251 120.166 -315 194.499s-96 162.166 -96 263.499c0 122.667 43.5 221.167 130.5 295.5s197.5 111.5 331.5 111.5c89.333 0 169 -18.833 239 -56.5
s123.833 -90.834 161.5 -159.501s56.5 -146.667 56.5 -234h-293c0 68 -14.5 119.833 -43.5 155.5s-70.833 53.5 -125.5 53.5c-51.333 0 -91.333 -15.167 -120 -45.5s-43 -71.166 -43 -122.499c0 -40 16 -76.167 48 -108.5s88.667 -65.833 170 -100.5
c142 -51.333 245.167 -114.333 309.5 -189s96.5 -169.667 96.5 -285c0 -126.667 -40.333 -225.667 -121 -297s-190.334 -107 -329.001 -107c-94 0 -179.667 19.333 -257 58s-137.833 94 -181.5 166s-65.5 157 -65.5 255h295c0 -84 16.333 -145 49 -183s86 -57 160 -57
c102.667 0 154 54.333 154 163z" />
    <glyph glyph-name="afii10055" unicode="&#x406;" horiz-adv-x="554" 
d="M424 0h-294v1456h294v-1456z" />
    <glyph glyph-name="afii10056" unicode="&#x407;" horiz-adv-x="554" 
d="M424 0h-294v1456h294v-1456zM-108 1678c0 36.667 13.5 67.167 40.5 91.5s59.833 36.5 98.5 36.5s71.5 -12.167 98.5 -36.5s40.5 -54.833 40.5 -91.5c0 -36 -13.5 -66.167 -40.5 -90.5s-59.833 -36.5 -98.5 -36.5s-71.5 12.167 -98.5 36.5s-40.5 54.5 -40.5 90.5z
M381 1678c0 36 13.5 66.167 40.5 90.5s59.833 36.5 98.5 36.5s71.5 -12.167 98.5 -36.5s40.5 -54.5 40.5 -90.5c0 -34.667 -12.833 -64.5 -38.5 -89.5s-59.167 -37.5 -100.5 -37.5s-74.833 12.5 -100.5 37.5s-38.5 54.833 -38.5 89.5z" />
    <glyph glyph-name="afii10057" unicode="&#x408;" horiz-adv-x="1004" 
d="M596 1456h294v-1008c0 -141.333 -39.333 -254.666 -118 -339.999s-180 -128 -304 -128c-133.333 0 -237 39.667 -311 119s-111 189.666 -111 330.999h295c0 -137.333 42.333 -206 127 -206c85.333 0 128 79.333 128 238v994z" />
    <glyph glyph-name="afii10058" unicode="&#x409;" horiz-adv-x="1864" 
d="M1151 963l179 0.00292969c92.667 0 175.5 -20.5 248.5 -61.5s129.167 -98 168.5 -171s59 -155.833 59 -248.5c0 -140.667 -43 -255.667 -129 -345s-199.667 -135 -341 -137h-480v1211h-286l-20 -516c-8 -170 -27.167 -304.833 -57.5 -404.5
s-74.666 -172.834 -132.999 -219.501s-136.833 -70.334 -235.5 -71.001h-73v244l35 3c60.667 7.33301 104.167 45.666 130.5 114.999s43.166 186 50.499 350l21 744h863v-493zM1151 719.003v-475.001h177c54 0 98.167 22.167 132.5 66.5s51.5 102.166 51.5 173.499
c0 68.667 -16.833 124.834 -50.5 168.501s-77.5 65.834 -131.5 66.501h-179z" />
    <glyph glyph-name="afii10059" unicode="&#x40a;" horiz-adv-x="1854" 
d="M414 843l430 0.00195312v613h295v-501h171c148.667 0 266.5 -44.5 353.5 -133.5s130.5 -203.5 130.5 -343.5c0 -138.667 -42.5 -252.334 -127.5 -341.001s-197.833 -134.334 -338.5 -137.001h-484v599h-430v-599h-294v1456h294v-613zM1139 711.002v-466h178
c54.667 0 99 22 133 66s51 100.333 51 169c0 65.333 -16.5 120 -49.5 164s-77.167 66.333 -132.5 67h-180z" />
    </font>
</defs>
</svg>
